<?xml version="1.0" encoding="UTF-8"?>
<!DOCTYPE svg PUBLIC "-//W3C//DTD SVG 1.1//EN" "http://www.w3.org/Graphics/SVG/1.1/DTD/svg11.dtd">

<svg xmlns="http://www.w3.org/2000/svg" xmlns:xlink="http://www.w3.org/1999/xlink" width="203px" height="243.8px" viewbox="0 0 203 243.8" version="1.1">
  <title>TPS54202_BUCK_DDC_A_top: null</title>
  <desc>TPS54202_BUCK_DDC_A WebTHERM&amp;reg; Board Layout file</desc>
<defs>
<g id="0201">
  <g id="Mask" display="none">
  	<rect x="0.5" y="0.5" display="inline" stroke="#000000" width="2.4" height="1.2"/>
  </g>
  <g id="Color">
  	<rect x="0.5" y="0.5" fill="#404040" stroke="#000000" width="2.4" height="1.2"/>
  </g>
  <g id="Outline" display="none">
  	<rect x="0.5" y="0.5" display="inline" fill="none" stroke="#000000" width="2.4" height="1.2"/>
  </g>
</g>
<g id="DDC0006A_N">
  <g id="Mask" display="none">
  	<g display="inline">
  		<rect x="3.1" y="0.5" width="6" height="11.2"/>
  		<path d="M8.6,1v10.2h-5V1H8.6 M9.6,0h-7v12.2h7V0L9.6,0z"/>
  	</g>
  	<g display="inline">
  		<rect x="0.5" y="5.583" width="1.688" height="1.034"/>
  		<path d="M1.688,6.083v0.034H1V6.083H1.688 M2.688,5.083H0v2.034h2.688V5.083L2.688,5.083z"/>
  	</g>
  	<g display="inline">
  		<rect x="0.5" y="1.516" width="1.688" height="1.034"/>
  		<path d="M1.688,2.016V2.05H1V2.016H1.688 M2.688,1.016H0V3.05h2.688V1.016L2.688,1.016z"/>
  	</g>
  	<g display="inline">
  		<rect x="0.5" y="9.65" width="1.688" height="1.033"/>
  		<path d="M1.688,10.15v0.033H1V10.15H1.688 M2.688,9.15H0v2.033h2.688V9.15L2.688,9.15z"/>
  	</g>
  	<g display="inline">
  		<rect x="10.058" y="1.516" width="1.643" height="1.034"/>
  		<path d="M11.201,2.016V2.05h-0.643V2.016H11.201 M12.201,1.016H9.558V3.05h2.643V1.016L12.201,1.016z"/>
  	</g>
  	<g display="inline">
  		<rect x="10.058" y="5.583" width="1.643" height="1.034"/>
  		<path d="M11.201,6.083v0.034h-0.643V6.083H11.201 M12.201,5.083H9.558v2.034h2.643V5.083L12.201,5.083z"/>
  	</g>
  	<g display="inline">
  		<rect x="10.058" y="9.65" width="1.643" height="1.033"/>
  		<path d="M11.201,10.15v0.033h-0.643V10.15H11.201 M12.201,9.15H9.558v2.033h2.643V9.15L12.201,9.15z"/>
  	</g>
  </g>
  <g id="Color">
  	<g>
  		<rect x="3.1" y="0.5" fill="#666666" width="6" height="11.2"/>
  		<path d="M8.6,1v10.2h-5V1H8.6 M9.6,0h-7v12.2h7V0L9.6,0z"/>
  	</g>
  	<g>
  		<path d="M1.688,6.083v0.034H1V6.083H1.688 M2.688,5.083H0v2.034h2.688V5.083L2.688,5.083z"/>
  	</g>
  	<g>
  		<path d="M1.688,2.016V2.05H1V2.016H1.688 M2.688,1.016H0V3.05h2.688V1.016L2.688,1.016z"/>
  	</g>
  	<g>
  		<path d="M1.688,10.15v0.033H1V10.15H1.688 M2.688,9.15H0v2.033h2.688V9.15L2.688,9.15z"/>
  	</g>
  	<g>
  		<path d="M11.201,2.016V2.05h-0.643V2.016H11.201 M12.201,1.016H9.558V3.05h2.643V1.016L12.201,1.016z"/>
  	</g>
  	<g>
  		<path d="M11.201,6.083v0.034h-0.643V6.083H11.201 M12.201,5.083H9.558v2.034h2.643V5.083L12.201,5.083z"/>
  	</g>
  	<g>
  		<path d="M11.201,10.15v0.033h-0.643V10.15H11.201 M12.201,9.15H9.558v2.033h2.643V9.15L12.201,9.15z"/>
  	</g>
  </g>
  <g id="Outline" display="none">
  	<g display="inline">
  		<path d="M8.6,1v10.2h-5V1H8.6 M9.6,0h-7v12.2h7V0L9.6,0z"/>
  	</g>
  	<g display="inline">
  		<path d="M1.688,6.083v0.034H1V6.083H1.688 M2.688,5.083H0v2.034h2.688V5.083L2.688,5.083z"/>
  	</g>
  	<g display="inline">
  		<path d="M1.688,2.016V2.05H1V2.016H1.688 M2.688,1.016H0V3.05h2.688V1.016L2.688,1.016z"/>
  	</g>
  	<g display="inline">
  		<path d="M1.688,10.15v0.033H1V10.15H1.688 M2.688,9.15H0v2.033h2.688V9.15L2.688,9.15z"/>
  	</g>
  	<g display="inline">
  		<path d="M11.201,2.016V2.05h-0.643V2.016H11.201 M12.201,1.016H9.558V3.05h2.643V1.016L12.201,1.016z"/>
  	</g>
  	<g display="inline">
  		<path d="M11.201,6.083v0.034h-0.643V6.083H11.201 M12.201,5.083H9.558v2.034h2.643V5.083L12.201,5.083z"/>
  	</g>
  	<g display="inline">
  		<path d="M11.201,10.15v0.033h-0.643V10.15H11.201 M12.201,9.15H9.558v2.033h2.643V9.15L12.201,9.15z"/>
  	</g>
  </g>
</g>
<g id="0402">
  <g id="MASK" display="none">
  	<g display="inline">
  		<rect x="0.125" y="0.125" width="3.752" height="1.757"/>
  		<path d="M3.752,0.25v1.507H0.25V0.25H3.752 M4.002,0H0v2.007h4.002V0L4.002,0z"/>
  	</g>
  </g>
  <g id="COLOR">
  	<rect fill="#CBCBCB" width="4.002" height="2.007"/>
  	<rect x="1.008" fill="#363636" width="1.986" height="2.007"/>
  </g>
  <g id="OUTLINE">
  	<g>
  		<path d="M3.752,0.25v1.507H0.25V0.25H3.752 M4.002,0H0v2.007h4.002V0L4.002,0z"/>
  	</g>
  	<g>
  		<path d="M2.744,0.25v1.507H1.258V0.25H2.744 M2.994,0H1.008v2.007h1.986V0L2.994,0z"/>
  	</g>
  </g>
</g>
<g id="VLP8040">
  <g id="Mask" display="none">
  	<rect x="0.5" y="0.5" display="inline" stroke="#000000" width="27.2" height="27.2"/>
  </g>
  <g id="Color">
  	<rect x="0.5" y="0.5" fill="#404040" stroke="#000000" width="27.2" height="27.2"/>
  </g>
  <g id="Outline" display="none">
  	<rect x="0.5" y="0.5" display="inline" fill="none" stroke="#000000" width="27.2" height="27.2"/>
  </g>
</g>
<g id="1210_280">
  <g id="MASK" style="display:none;">
  	<rect style="display:inline;" width="9.071" height="7.087"/>
  	<rect x="1.701" style="display:inline;" width="5.669" height="7.087"/>
  </g>
  <g id="OUTLINE" style="display:none;">
  	<g style="display:inline;">
  		<path d="M8.571,0.5v6.087H0.5V0.5H8.571 M9.071,0H0v7.087h9.071V0L9.071,0z"/>
  	</g>
  	<g style="display:inline;">
  		<path d="M6.87,0.5v6.087H2.201V0.5H6.87 M7.37,0H1.701v7.087H7.37V0L7.37,0z"/>
  	</g>
  </g>
  <g id="COLOR">
  	<rect style="fill:#CBCBCB;" width="9.071" height="7.087"/>
  	<rect x="1.701" style="fill:#363636;" width="5.669" height="7.087"/>
  </g>
</g>
<g id="0805">
  <g id="MASK" style="display:none;">
  	<g style="display:inline;">
  		<rect x="0.279" y="0.279" width="7.442" height="4.442"/>
  		<path d="M7.442,0.558v3.884H0.558V0.558H7.442 M8,0H0v5h8V0L8,0z"/>
  	</g>
  </g>
  <g id="COLOR">
  	<rect style="fill:#CBCBCB;" width="8" height="5"/>
  	<rect x="1.75" style="fill:#363636;" width="4.5" height="5"/>
  </g>
  <g id="OUTLINE" style="display:none;">
  	<g style="display:inline;">
  		<path d="M7.442,0.558v3.884H0.558V0.558H7.442 M8,0H0v5h8V0L8,0z"/>
  	</g>
  	<g style="display:inline;">
  		<path d="M5.656,0.594v3.812H2.344V0.594H5.656 M6.25,0h-4.5v5h4.5V0L6.25,0z"/>
  	</g>
  </g>
</g>
<g id="1210_270">
  <g id="MASK" style="display:none;">
  	<rect style="display:inline;" width="9.071" height="7.087"/>
  	<rect x="1.701" style="display:inline;" width="5.669" height="7.087"/>
  </g>
  <g id="OUTLINE" style="display:none;">
  	<g style="display:inline;">
  		<path d="M8.571,0.5v6.087H0.5V0.5H8.571 M9.071,0H0v7.087h9.071V0L9.071,0z"/>
  	</g>
  	<g style="display:inline;">
  		<path d="M6.87,0.5v6.087H2.201V0.5H6.87 M7.37,0H1.701v7.087H7.37V0L7.37,0z"/>
  	</g>
  </g>
  <g id="COLOR">
  	<rect style="fill:#CBCBCB;" width="9.071" height="7.087"/>
  	<rect x="1.701" style="fill:#363636;" width="5.669" height="7.087"/>
  </g>
</g>
</defs>
<g id="boardComps">
  <g id="topview_images">
    <rect x="128.0" y="151.0" width="6.0" height="6.0" transform="rotate(-90.0 132.0 154.0)" name="0_EN_TP-1502" style="fill:white;stroke:black;stroke-width:1;" />
    <use x="111.0" y="183.0" width="3.0" height="2.0" transform="rotate(-180.0 113.0 184.0)" name="1_Cff_0201" xlink:href="#0201" />
    <use x="84.0" y="149.0" width="12.0" height="12.0" name="2_U1_DDC0006A_N" xlink:href="#DDC0006A_N" />
    <rect x="63.0" y="8.0" width="6.0" height="6.0" transform="rotate(-90.0 66.0 11.0)" name="3_GND1_TP-1502" style="fill:white;stroke:black;stroke-width:1;" />
    <rect x="124.0" y="9.0" width="6.0" height="6.0" transform="rotate(-90.0 127.0 12.0)" name="4_VOUT_TP-1502" style="fill:white;stroke:black;stroke-width:1;" />
    <rect x="52.0" y="229.0" width="6.0" height="6.0" transform="rotate(-90.0 55.0 232.0)" name="5_GND_TP-1502" style="fill:white;stroke:black;stroke-width:1;" />
    <rect x="69.0" y="229.0" width="6.0" height="6.0" transform="rotate(-90.0 73.0 232.0)" name="6_VIN_TP-1502" style="fill:white;stroke:black;stroke-width:1;" />
    <use x="111.0" y="161.0" width="4.0" height="2.0" transform="rotate(-180.0 113.0 162.0)" name="7_Rfbt_0402" xlink:href="#0402" />
    <use x="111.0" y="172.0" width="4.0" height="2.0" name="8_Rfbb_0402" xlink:href="#0402" />
    <use x="59.0" y="89.0" width="28.0" height="28.0" transform="rotate(-90.0 73.0 103.0)" name="9_L1_VLP8040" xlink:href="#VLP8040" />
    <use x="92.0" y="62.0" width="9.0" height="7.0" transform="rotate(-180.0 96.0 65.0)" name="10_Cout_1210_280" xlink:href="#1210_280" />
    <use x="108.0" y="133.0" width="8.0" height="5.0" transform="rotate(-90.0 112.0 136.0)" name="11_Cbst_0805" xlink:href="#0805" />
    <use x="70.0" y="151.0" width="9.0" height="7.0" transform="rotate(-90.0 75.0 154.0)" name="12_Cin_1210_270" xlink:href="#1210_270" />
    <use x="109.0" y="192.0" width="8.0" height="5.0" name="13_Ren_0805" xlink:href="#0805" />
  </g>
</g>
</svg>
