<?xml version="1.0" encoding="UTF-8"?>
<!DOCTYPE svg PUBLIC "-//W3C//DTD SVG 1.1//EN" "http://www.w3.org/Graphics/SVG/1.1/DTD/svg11.dtd">

<svg xmlns="http://www.w3.org/2000/svg" xmlns:xlink="http://www.w3.org/1999/xlink" width="203px" height="243.8px" viewbox="0 0 203 243.8" version="1.1">
  <title>TPS54202_BUCK_DDC_A_bottom: null</title>
  <desc>TPS54202_BUCK_DDC_A WebTHERM&amp;reg; Board Layout file</desc>
  <g id="board" fill-opacity="1" transform="scale(0.1016,-0.1016) translate(0,-2400.0)">
    <rect x="0" y="0" width="2000" height="2400" stroke="#006600" stroke-width="0" fill="#006600" type="Fill" layer="PCB" />
    <polygon net="0" points="1960,40 40,40 40,760 640,760 640,900 420,900 420,1340 300,1340 300,770 40,770 40,2360 1960,2360" stroke-width="0.0" stroke="#ff9900" fill="#ff9900" stroke-linecap="round" stroke-linejoin="round" opacity="1.0" layer="BOTTOM" />
    <polygon net="0" points="1260,2328 1247,2327 1235,2322 1225,2314 1218,2304 1213,2293 1211,2280 1213,2267 1215,2262 1193,2239 1189,2233 1188,2232 1187,2226 1187,805 1188,799 1189,798 1193,792 1231,753 1231,637 1193,598 1189,592 1187,585 1189,578 1193,572 1198,568 1206,567 1213,568 1218,572 1262,616 1266,622 1267,623 1268,629 1268,761 1267,767 1266,768 1262,774 1224,813 1224,2218 1241,2236 1247,2233 1260,2232 1272,2233 1284,2238 1294,2246 1301,2256 1306,2267 1308,2280 1306,2293 1301,2304 1294,2314 1284,2322 1272,2327" stroke-width="0.0" stroke="#006600" fill="#006600" stroke-linecap="round" stroke-linejoin="round" opacity="1.0" layer="BOTTOM" />
    <polygon net="0" points="1067,1221 767,1221 760,1220 754,1216 750,1210 748,1203 750,1196 754,1190 760,1186 767,1184 1059,1184 1097,1147 1102,1143 1110,1142 1117,1143 1122,1147 1126,1153 1128,1160 1126,1167 1122,1173 1080,1216 1074,1220 1073,1220" stroke-width="0.0" stroke="#006600" fill="#006600" stroke-linecap="round" stroke-linejoin="round" opacity="1.0" layer="BOTTOM" />
    <polygon net="0" points="1301,926 1288,924 1276,919 1266,912 1259,902 1254,890 1252,878 1254,865 1259,853 1266,843 1276,836 1288,831 1301,829 1313,831 1325,836 1335,843 1342,853 1347,865 1349,878 1347,890 1342,902 1335,912 1325,919 1313,924" stroke-width="0.0" stroke="#006600" fill="#006600" stroke-linecap="round" stroke-linejoin="round" opacity="1.0" layer="BOTTOM" />
    <polygon net="0" points="720,158 707,157 695,152 685,144 678,134 673,123 671,110 673,97 678,86 685,76 695,68 707,63 720,62 732,63 744,68 754,76 761,86 766,97 768,110 766,123 761,134 754,144 744,152 732,157" stroke-width="0.0" stroke="#006600" fill="#006600" stroke-linecap="round" stroke-linejoin="round" opacity="1.0" layer="BOTTOM" />
    <polygon net="2" points="410,890 630,890 630,770 310,770 310,1330 410,1330" stroke-width="0.0" stroke="#ff9900" fill="#ff9900" stroke-linecap="round" stroke-linejoin="round" opacity="1.0" layer="BOTTOM" />
    <line net="2" x1="767" y1="1203" x2="1067" y2="1203" stroke-width="20" stroke="#ff9900" stroke-linecap="round" stroke-linejoin="round" opacity="1.0" layer="BOTTOM" />
    <line net="2" x1="1067" y1="1203" x2="1110" y2="1160" stroke-width="20" stroke="#ff9900" stroke-linecap="round" stroke-linejoin="round" opacity="1.0" layer="BOTTOM" />
    <line net="0" x1="270" y1="740" x2="290" y2="760" stroke-width="20" stroke="#ff9900" stroke-linecap="round" stroke-linejoin="round" opacity="1.0" layer="BOTTOM" />
    <line net="0" x1="65" y1="826" x2="194" y2="826" stroke-width="20" stroke="#ff9900" stroke-linecap="round" stroke-linejoin="round" opacity="1.0" layer="BOTTOM" />
    <line net="5" x1="1206" y1="2226" x2="1260" y2="2280" stroke-width="20" stroke="#ff9900" stroke-linecap="round" stroke-linejoin="round" opacity="1.0" layer="BOTTOM" />
    <line net="5" x1="1206" y1="805" x2="1206" y2="2226" stroke-width="20" stroke="#ff9900" stroke-linecap="round" stroke-linejoin="round" opacity="1.0" layer="BOTTOM" />
    <line net="0" x1="50" y1="765" x2="55" y2="760" stroke-width="20" stroke="#ff9900" stroke-linecap="round" stroke-linejoin="round" opacity="1.0" layer="BOTTOM" />
    <line net="0" x1="50" y1="765" x2="50" y2="810" stroke-width="20" stroke="#ff9900" stroke-linecap="round" stroke-linejoin="round" opacity="1.0" layer="BOTTOM" />
    <line net="0" x1="50" y1="810" x2="65" y2="826" stroke-width="20" stroke="#ff9900" stroke-linecap="round" stroke-linejoin="round" opacity="1.0" layer="BOTTOM" />
    <line net="0" x1="290" y1="760" x2="290" y2="780" stroke-width="20" stroke="#ff9900" stroke-linecap="round" stroke-linejoin="round" opacity="1.0" layer="BOTTOM" />
    <line net="0" x1="55" y1="760" x2="290" y2="760" stroke-width="20" stroke="#ff9900" stroke-linecap="round" stroke-linejoin="round" opacity="1.0" layer="BOTTOM" />
    <line net="5" x1="1250" y1="629" x2="1250" y2="761" stroke-width="20" stroke="#ff9900" stroke-linecap="round" stroke-linejoin="round" opacity="1.0" layer="BOTTOM" />
    <line net="5" x1="1206" y1="585" x2="1250" y2="629" stroke-width="20" stroke="#ff9900" stroke-linecap="round" stroke-linejoin="round" opacity="1.0" layer="BOTTOM" />
    <line net="5" x1="1206" y1="805" x2="1250" y2="761" stroke-width="20" stroke="#ff9900" stroke-linecap="round" stroke-linejoin="round" opacity="1.0" layer="BOTTOM" />
    <circle net="2" cx="1110" cy="1160" r="6" r1="9" r2="4" stroke-width="5" stroke="#ff9900" fill="#ffffff" opacity="1" layer="MULTILAYER" />
    <circle net="0" cx="1465" cy="423" r="6" r1="9" r2="4" stroke-width="5" stroke="#ff9900" fill="#ffffff" opacity="1" layer="MULTILAYER" />
    <circle net="0" cx="1398" cy="423" r="6" r1="9" r2="4" stroke-width="5" stroke="#ff9900" fill="#ffffff" opacity="1" layer="MULTILAYER" />
    <circle net="0" cx="910" cy="1055" r="6" r1="9" r2="4" stroke-width="5" stroke="#ff9900" fill="#ffffff" opacity="1" layer="MULTILAYER" />
    <circle net="0" cx="910" cy="992" r="6" r1="9" r2="4" stroke-width="5" stroke="#ff9900" fill="#ffffff" opacity="1" layer="MULTILAYER" />
    <circle net="0" cx="745" cy="990" r="6" r1="9" r2="4" stroke-width="5" stroke="#ff9900" fill="#ffffff" opacity="1" layer="MULTILAYER" />
    <circle net="0" cx="838" cy="990" r="6" r1="9" r2="4" stroke-width="5" stroke="#ff9900" fill="#ffffff" opacity="1" layer="MULTILAYER" />
    <circle net="0" cx="838" cy="1055" r="6" r1="9" r2="4" stroke-width="5" stroke="#ff9900" fill="#ffffff" opacity="1" layer="MULTILAYER" />
    <circle net="0" cx="744" cy="1055" r="6" r1="9" r2="4" stroke-width="5" stroke="#ff9900" fill="#ffffff" opacity="1" layer="MULTILAYER" />
    <circle net="0" cx="267" cy="2024" r="6" r1="9" r2="4" stroke-width="5" stroke="#ff9900" fill="#ffffff" opacity="1" layer="MULTILAYER" />
    <circle net="0" cx="339" cy="2024" r="6" r1="9" r2="4" stroke-width="5" stroke="#ff9900" fill="#ffffff" opacity="1" layer="MULTILAYER" />
    <circle net="0" cx="267" cy="1710" r="6" r1="9" r2="4" stroke-width="5" stroke="#ff9900" fill="#ffffff" opacity="1" layer="MULTILAYER" />
    <circle net="0" cx="339" cy="1710" r="6" r1="9" r2="4" stroke-width="5" stroke="#ff9900" fill="#ffffff" opacity="1" layer="MULTILAYER" />
    <circle net="0" cx="267" cy="1226" r="6" r1="9" r2="4" stroke-width="5" stroke="#ff9900" fill="#ffffff" opacity="1" layer="MULTILAYER" />
    <circle net="0" cx="267" cy="893" r="6" r1="9" r2="4" stroke-width="5" stroke="#ff9900" fill="#ffffff" opacity="1" layer="MULTILAYER" />
    <circle net="0" cx="267" cy="827" r="6" r1="9" r2="4" stroke-width="5" stroke="#ff9900" fill="#ffffff" opacity="1" layer="MULTILAYER" />
    <circle net="0" cx="270" cy="740" r="6" r1="9" r2="4" stroke-width="5" stroke="#ff9900" fill="#ffffff" opacity="1" layer="MULTILAYER" />
    <circle net="0" cx="267" cy="428" r="6" r1="9" r2="4" stroke-width="5" stroke="#ff9900" fill="#ffffff" opacity="1" layer="MULTILAYER" />
    <circle net="0" cx="267" cy="494" r="6" r1="9" r2="4" stroke-width="5" stroke="#ff9900" fill="#ffffff" opacity="1" layer="MULTILAYER" />
    <circle net="0" cx="339" cy="493" r="6" r1="9" r2="4" stroke-width="5" stroke="#ff9900" fill="#ffffff" opacity="1" layer="MULTILAYER" />
    <circle net="0" cx="339" cy="427" r="6" r1="9" r2="4" stroke-width="5" stroke="#ff9900" fill="#ffffff" opacity="1" layer="MULTILAYER" />
    <circle net="0" cx="194" cy="2024" r="6" r1="9" r2="4" stroke-width="5" stroke="#ff9900" fill="#ffffff" opacity="1" layer="MULTILAYER" />
    <circle net="0" cx="194" cy="1710" r="6" r1="9" r2="4" stroke-width="5" stroke="#ff9900" fill="#ffffff" opacity="1" layer="MULTILAYER" />
    <circle net="0" cx="194" cy="1225" r="6" r1="9" r2="4" stroke-width="5" stroke="#ff9900" fill="#ffffff" opacity="1" layer="MULTILAYER" />
    <circle net="0" cx="190" cy="740" r="6" r1="9" r2="4" stroke-width="5" stroke="#ff9900" fill="#ffffff" opacity="1" layer="MULTILAYER" />
    <circle net="0" cx="194" cy="826" r="6" r1="9" r2="4" stroke-width="5" stroke="#ff9900" fill="#ffffff" opacity="1" layer="MULTILAYER" />
    <circle net="0" cx="194" cy="427" r="6" r1="9" r2="4" stroke-width="5" stroke="#ff9900" fill="#ffffff" opacity="1" layer="MULTILAYER" />
    <circle net="0" cx="194" cy="493" r="6" r1="9" r2="4" stroke-width="5" stroke="#ff9900" fill="#ffffff" opacity="1" layer="MULTILAYER" />
    <circle net="0" cx="1398" cy="356" r="6" r1="9" r2="4" stroke-width="5" stroke="#ff9900" fill="#ffffff" opacity="1" layer="MULTILAYER" />
    <circle net="0" cx="1465" cy="356" r="6" r1="9" r2="4" stroke-width="5" stroke="#ff9900" fill="#ffffff" opacity="1" layer="MULTILAYER" />
    <circle net="0" cx="1398" cy="290" r="6" r1="9" r2="4" stroke-width="5" stroke="#ff9900" fill="#ffffff" opacity="1" layer="MULTILAYER" />
    <circle net="0" cx="1465" cy="290" r="6" r1="9" r2="4" stroke-width="5" stroke="#ff9900" fill="#ffffff" opacity="1" layer="MULTILAYER" />
    <circle net="0" cx="1398" cy="223" r="6" r1="9" r2="4" stroke-width="5" stroke="#ff9900" fill="#ffffff" opacity="1" layer="MULTILAYER" />
    <circle net="0" cx="1465" cy="223" r="6" r1="9" r2="4" stroke-width="5" stroke="#ff9900" fill="#ffffff" opacity="1" layer="MULTILAYER" />
    <circle net="0" cx="1398" cy="157" r="6" r1="9" r2="4" stroke-width="5" stroke="#ff9900" fill="#ffffff" opacity="1" layer="MULTILAYER" />
    <circle net="0" cx="1465" cy="157" r="6" r1="9" r2="4" stroke-width="5" stroke="#ff9900" fill="#ffffff" opacity="1" layer="MULTILAYER" />
    <circle net="0" cx="910" cy="1022" r="6" r1="9" r2="4" stroke-width="5" stroke="#ff9900" fill="#ffffff" opacity="1" layer="MULTILAYER" />
    <circle net="0" cx="910" cy="959" r="6" r1="9" r2="4" stroke-width="5" stroke="#ff9900" fill="#ffffff" opacity="1" layer="MULTILAYER" />
    <circle net="0" cx="744" cy="1022" r="6" r1="9" r2="4" stroke-width="5" stroke="#ff9900" fill="#ffffff" opacity="1" layer="MULTILAYER" />
    <circle net="0" cx="838" cy="1022" r="6" r1="9" r2="4" stroke-width="5" stroke="#ff9900" fill="#ffffff" opacity="1" layer="MULTILAYER" />
    <circle net="0" cx="838" cy="959" r="6" r1="9" r2="4" stroke-width="5" stroke="#ff9900" fill="#ffffff" opacity="1" layer="MULTILAYER" />
    <circle net="2" cx="594" cy="875" r="6" r1="9" r2="4" stroke-width="5" stroke="#ff9900" fill="#ffffff" opacity="1" layer="MULTILAYER" />
    <circle net="0" cx="194" cy="892" r="6" r1="9" r2="4" stroke-width="5" stroke="#ff9900" fill="#ffffff" opacity="1" layer="MULTILAYER" />
    <circle net="2" cx="594" cy="842" r="6" r1="9" r2="4" stroke-width="5" stroke="#ff9900" fill="#ffffff" opacity="1" layer="MULTILAYER" />
    <circle net="2" cx="767" cy="1203" r="6" r1="9" r2="4" stroke-width="5" stroke="#ff9900" fill="#ffffff" opacity="1" layer="MULTILAYER" />
    <circle net="0" cx="730" cy="1870" r="6" r1="9" r2="4" stroke-width="5" stroke="#ff9900" fill="#ffffff" opacity="1" layer="MULTILAYER" />
    <circle net="0" cx="267" cy="1655" r="6" r1="9" r2="4" stroke-width="5" stroke="#ff9900" fill="#ffffff" opacity="1" layer="MULTILAYER" />
    <circle net="0" cx="194" cy="1655" r="6" r1="9" r2="4" stroke-width="5" stroke="#ff9900" fill="#ffffff" opacity="1" layer="MULTILAYER" />
    <circle net="0" cx="650" cy="990" r="6" r1="9" r2="4" stroke-width="5" stroke="#ff9900" fill="#ffffff" opacity="1" layer="MULTILAYER" />
    <circle net="0" cx="650" cy="1022" r="6" r1="9" r2="4" stroke-width="5" stroke="#ff9900" fill="#ffffff" opacity="1" layer="MULTILAYER" />
    <circle net="0" cx="650" cy="1055" r="6" r1="9" r2="4" stroke-width="5" stroke="#ff9900" fill="#ffffff" opacity="1" layer="MULTILAYER" />
    <circle net="0" cx="730" cy="1750" r="6" r1="9" r2="4" stroke-width="5" stroke="#ff9900" fill="#ffffff" opacity="1" layer="MULTILAYER" />
    <circle net="0" cx="730" cy="1710" r="6" r1="9" r2="4" stroke-width="5" stroke="#ff9900" fill="#ffffff" opacity="1" layer="MULTILAYER" />
    <circle net="0" cx="194" cy="1957" r="6" r1="9" r2="4" stroke-width="5" stroke="#ff9900" fill="#ffffff" opacity="1" layer="MULTILAYER" />
    <circle net="0" cx="194" cy="1890" r="6" r1="9" r2="4" stroke-width="5" stroke="#ff9900" fill="#ffffff" opacity="1" layer="MULTILAYER" />
    <circle net="0" cx="194" cy="1824" r="6" r1="9" r2="4" stroke-width="5" stroke="#ff9900" fill="#ffffff" opacity="1" layer="MULTILAYER" />
    <circle net="0" cx="194" cy="1757" r="6" r1="9" r2="4" stroke-width="5" stroke="#ff9900" fill="#ffffff" opacity="1" layer="MULTILAYER" />
    <circle net="0" cx="267" cy="1957" r="6" r1="9" r2="4" stroke-width="5" stroke="#ff9900" fill="#ffffff" opacity="1" layer="MULTILAYER" />
    <circle net="0" cx="267" cy="1890" r="6" r1="9" r2="4" stroke-width="5" stroke="#ff9900" fill="#ffffff" opacity="1" layer="MULTILAYER" />
    <circle net="0" cx="267" cy="1824" r="6" r1="9" r2="4" stroke-width="5" stroke="#ff9900" fill="#ffffff" opacity="1" layer="MULTILAYER" />
    <circle net="0" cx="267" cy="1757" r="6" r1="9" r2="4" stroke-width="5" stroke="#ff9900" fill="#ffffff" opacity="1" layer="MULTILAYER" />
    <circle net="0" cx="339" cy="1957" r="6" r1="9" r2="4" stroke-width="5" stroke="#ff9900" fill="#ffffff" opacity="1" layer="MULTILAYER" />
    <circle net="0" cx="339" cy="1890" r="6" r1="9" r2="4" stroke-width="5" stroke="#ff9900" fill="#ffffff" opacity="1" layer="MULTILAYER" />
    <circle net="0" cx="339" cy="1824" r="6" r1="9" r2="4" stroke-width="5" stroke="#ff9900" fill="#ffffff" opacity="1" layer="MULTILAYER" />
    <circle net="0" cx="339" cy="1757" r="6" r1="9" r2="4" stroke-width="5" stroke="#ff9900" fill="#ffffff" opacity="1" layer="MULTILAYER" />
    <circle net="0" cx="560" cy="690" r="6" r1="9" r2="4" stroke-width="5" stroke="#ff9900" fill="#ffffff" opacity="1" layer="MULTILAYER" />
    <circle net="0" cx="806" cy="1022" r="6" r1="9" r2="4" stroke-width="5" stroke="#ff9900" fill="#ffffff" opacity="1" layer="MULTILAYER" />
    <circle net="0" cx="682" cy="1022" r="6" r1="9" r2="4" stroke-width="5" stroke="#ff9900" fill="#ffffff" opacity="1" layer="MULTILAYER" />
    <circle net="0" cx="869" cy="1055" r="6" r1="9" r2="4" stroke-width="5" stroke="#ff9900" fill="#ffffff" opacity="1" layer="MULTILAYER" />
    <circle net="0" cx="713" cy="1022" r="6" r1="9" r2="4" stroke-width="5" stroke="#ff9900" fill="#ffffff" opacity="1" layer="MULTILAYER" />
    <circle net="0" cx="713" cy="1055" r="6" r1="9" r2="4" stroke-width="5" stroke="#ff9900" fill="#ffffff" opacity="1" layer="MULTILAYER" />
    <circle net="0" cx="682" cy="1055" r="6" r1="9" r2="4" stroke-width="5" stroke="#ff9900" fill="#ffffff" opacity="1" layer="MULTILAYER" />
    <circle net="0" cx="806" cy="990" r="6" r1="9" r2="4" stroke-width="5" stroke="#ff9900" fill="#ffffff" opacity="1" layer="MULTILAYER" />
    <circle net="0" cx="806" cy="959" r="6" r1="9" r2="4" stroke-width="5" stroke="#ff9900" fill="#ffffff" opacity="1" layer="MULTILAYER" />
    <circle net="0" cx="806" cy="1055" r="6" r1="9" r2="4" stroke-width="5" stroke="#ff9900" fill="#ffffff" opacity="1" layer="MULTILAYER" />
    <circle net="0" cx="869" cy="1022" r="6" r1="9" r2="4" stroke-width="5" stroke="#ff9900" fill="#ffffff" opacity="1" layer="MULTILAYER" />
    <circle net="0" cx="713" cy="990" r="6" r1="9" r2="4" stroke-width="5" stroke="#ff9900" fill="#ffffff" opacity="1" layer="MULTILAYER" />
    <circle net="0" cx="869" cy="990" r="6" r1="9" r2="4" stroke-width="5" stroke="#ff9900" fill="#ffffff" opacity="1" layer="MULTILAYER" />
    <circle net="0" cx="682" cy="990" r="6" r1="9" r2="4" stroke-width="5" stroke="#ff9900" fill="#ffffff" opacity="1" layer="MULTILAYER" />
    <circle net="0" cx="775" cy="990" r="6" r1="9" r2="4" stroke-width="5" stroke="#ff9900" fill="#ffffff" opacity="1" layer="MULTILAYER" />
    <circle net="0" cx="775" cy="1022" r="6" r1="9" r2="4" stroke-width="5" stroke="#ff9900" fill="#ffffff" opacity="1" layer="MULTILAYER" />
    <circle net="0" cx="775" cy="1055" r="6" r1="9" r2="4" stroke-width="5" stroke="#ff9900" fill="#ffffff" opacity="1" layer="MULTILAYER" />
    <circle net="0" cx="869" cy="959" r="6" r1="9" r2="4" stroke-width="5" stroke="#ff9900" fill="#ffffff" opacity="1" layer="MULTILAYER" />
    <circle net="0" cx="973" cy="1024" r="6" r1="9" r2="4" stroke-width="5" stroke="#ff9900" fill="#ffffff" opacity="1" layer="MULTILAYER" />
    <circle net="0" cx="940" cy="990" r="6" r1="9" r2="4" stroke-width="5" stroke="#ff9900" fill="#ffffff" opacity="1" layer="MULTILAYER" />
    <circle net="0" cx="941" cy="1024" r="6" r1="9" r2="4" stroke-width="5" stroke="#ff9900" fill="#ffffff" opacity="1" layer="MULTILAYER" />
    <circle net="0" cx="941" cy="1057" r="6" r1="9" r2="4" stroke-width="5" stroke="#ff9900" fill="#ffffff" opacity="1" layer="MULTILAYER" />
    <circle net="0" cx="730" cy="1920" r="6" r1="9" r2="4" stroke-width="5" stroke="#ff9900" fill="#ffffff" opacity="1" layer="MULTILAYER" />
    <circle net="0" cx="940" cy="960" r="6" r1="9" r2="4" stroke-width="5" stroke="#ff9900" fill="#ffffff" opacity="1" layer="MULTILAYER" />
    <circle net="0" cx="730" cy="1950" r="6" r1="9" r2="4" stroke-width="5" stroke="#ff9900" fill="#ffffff" opacity="1" layer="MULTILAYER" />
    <circle net="0" cx="620" cy="1055" r="6" r1="9" r2="4" stroke-width="5" stroke="#ff9900" fill="#ffffff" opacity="1" layer="MULTILAYER" />
    <circle net="0" cx="730" cy="1780" r="6" r1="9" r2="4" stroke-width="5" stroke="#ff9900" fill="#ffffff" opacity="1" layer="MULTILAYER" />
    <circle net="0" cx="730" cy="1810" r="6" r1="9" r2="4" stroke-width="5" stroke="#ff9900" fill="#ffffff" opacity="1" layer="MULTILAYER" />
    <circle net="0" cx="620" cy="1020" r="6" r1="9" r2="4" stroke-width="5" stroke="#ff9900" fill="#ffffff" opacity="1" layer="MULTILAYER" />
    <circle net="0" cx="620" cy="990" r="6" r1="9" r2="4" stroke-width="5" stroke="#ff9900" fill="#ffffff" opacity="1" layer="MULTILAYER" />
    <circle net="0" cx="970" cy="990" r="6" r1="9" r2="4" stroke-width="5" stroke="#ff9900" fill="#ffffff" opacity="1" layer="MULTILAYER" />
    <circle net="0" cx="973" cy="1057" r="6" r1="9" r2="4" stroke-width="5" stroke="#ff9900" fill="#ffffff" opacity="1" layer="MULTILAYER" />
    <circle net="0" cx="730" cy="1840" r="6" r1="9" r2="4" stroke-width="5" stroke="#ff9900" fill="#ffffff" opacity="1" layer="MULTILAYER" />
    <circle net="0" cx="730" cy="1980" r="6" r1="9" r2="4" stroke-width="5" stroke="#ff9900" fill="#ffffff" opacity="1" layer="MULTILAYER" />
    <circle net="0" cx="412" cy="1710" r="6" r1="9" r2="4" stroke-width="5" stroke="#ff9900" fill="#ffffff" opacity="1" layer="MULTILAYER" />
    <circle net="0" cx="412" cy="1757" r="6" r1="9" r2="4" stroke-width="5" stroke="#ff9900" fill="#ffffff" opacity="1" layer="MULTILAYER" />
    <circle net="0" cx="412" cy="1824" r="6" r1="9" r2="4" stroke-width="5" stroke="#ff9900" fill="#ffffff" opacity="1" layer="MULTILAYER" />
    <circle net="0" cx="412" cy="1890" r="6" r1="9" r2="4" stroke-width="5" stroke="#ff9900" fill="#ffffff" opacity="1" layer="MULTILAYER" />
    <circle net="0" cx="412" cy="1957" r="6" r1="9" r2="4" stroke-width="5" stroke="#ff9900" fill="#ffffff" opacity="1" layer="MULTILAYER" />
    <circle net="0" cx="412" cy="2024" r="6" r1="9" r2="4" stroke-width="5" stroke="#ff9900" fill="#ffffff" opacity="1" layer="MULTILAYER" />
    <circle net="0" cx="484" cy="1757" r="6" r1="9" r2="4" stroke-width="5" stroke="#ff9900" fill="#ffffff" opacity="1" layer="MULTILAYER" />
    <circle net="0" cx="484" cy="1824" r="6" r1="9" r2="4" stroke-width="5" stroke="#ff9900" fill="#ffffff" opacity="1" layer="MULTILAYER" />
    <circle net="0" cx="484" cy="1890" r="6" r1="9" r2="4" stroke-width="5" stroke="#ff9900" fill="#ffffff" opacity="1" layer="MULTILAYER" />
    <circle net="0" cx="484" cy="2024" r="6" r1="9" r2="4" stroke-width="5" stroke="#ff9900" fill="#ffffff" opacity="1" layer="MULTILAYER" />
    <circle net="0" cx="484" cy="1957" r="6" r1="9" r2="4" stroke-width="5" stroke="#ff9900" fill="#ffffff" opacity="1" layer="MULTILAYER" />
    <circle net="0" cx="484" cy="1710" r="6" r1="9" r2="4" stroke-width="5" stroke="#ff9900" fill="#ffffff" opacity="1" layer="MULTILAYER" />
    <circle net="0" cx="557" cy="1710" r="6" r1="9" r2="4" stroke-width="5" stroke="#ff9900" fill="#ffffff" opacity="1" layer="MULTILAYER" />
    <circle net="0" cx="557" cy="1757" r="6" r1="9" r2="4" stroke-width="5" stroke="#ff9900" fill="#ffffff" opacity="1" layer="MULTILAYER" />
    <circle net="0" cx="557" cy="1824" r="6" r1="9" r2="4" stroke-width="5" stroke="#ff9900" fill="#ffffff" opacity="1" layer="MULTILAYER" />
    <circle net="0" cx="557" cy="1957" r="6" r1="9" r2="4" stroke-width="5" stroke="#ff9900" fill="#ffffff" opacity="1" layer="MULTILAYER" />
    <circle net="0" cx="557" cy="1890" r="6" r1="9" r2="4" stroke-width="5" stroke="#ff9900" fill="#ffffff" opacity="1" layer="MULTILAYER" />
    <circle net="0" cx="557" cy="2024" r="6" r1="9" r2="4" stroke-width="5" stroke="#ff9900" fill="#ffffff" opacity="1" layer="MULTILAYER" />
    <circle net="0" cx="339" cy="360" r="6" r1="9" r2="4" stroke-width="5" stroke="#ff9900" fill="#ffffff" opacity="1" layer="MULTILAYER" />
    <circle net="0" cx="267" cy="561" r="6" r1="9" r2="4" stroke-width="5" stroke="#ff9900" fill="#ffffff" opacity="1" layer="MULTILAYER" />
    <circle net="0" cx="267" cy="627" r="6" r1="9" r2="4" stroke-width="5" stroke="#ff9900" fill="#ffffff" opacity="1" layer="MULTILAYER" />
    <circle net="0" cx="267" cy="694" r="6" r1="9" r2="4" stroke-width="5" stroke="#ff9900" fill="#ffffff" opacity="1" layer="MULTILAYER" />
    <circle net="0" cx="267" cy="960" r="6" r1="9" r2="4" stroke-width="5" stroke="#ff9900" fill="#ffffff" opacity="1" layer="MULTILAYER" />
    <circle net="0" cx="267" cy="1026" r="6" r1="9" r2="4" stroke-width="5" stroke="#ff9900" fill="#ffffff" opacity="1" layer="MULTILAYER" />
    <circle net="0" cx="267" cy="1093" r="6" r1="9" r2="4" stroke-width="5" stroke="#ff9900" fill="#ffffff" opacity="1" layer="MULTILAYER" />
    <circle net="0" cx="267" cy="1159" r="6" r1="9" r2="4" stroke-width="5" stroke="#ff9900" fill="#ffffff" opacity="1" layer="MULTILAYER" />
    <circle net="0" cx="412" cy="360" r="6" r1="9" r2="4" stroke-width="5" stroke="#ff9900" fill="#ffffff" opacity="1" layer="MULTILAYER" />
    <circle net="0" cx="339" cy="626" r="6" r1="9" r2="4" stroke-width="5" stroke="#ff9900" fill="#ffffff" opacity="1" layer="MULTILAYER" />
    <circle net="0" cx="267" cy="1292" r="6" r1="9" r2="4" stroke-width="5" stroke="#ff9900" fill="#ffffff" opacity="1" layer="MULTILAYER" />
    <circle net="0" cx="267" cy="1359" r="6" r1="9" r2="4" stroke-width="5" stroke="#ff9900" fill="#ffffff" opacity="1" layer="MULTILAYER" />
    <circle net="0" cx="267" cy="1425" r="6" r1="9" r2="4" stroke-width="5" stroke="#ff9900" fill="#ffffff" opacity="1" layer="MULTILAYER" />
    <circle net="0" cx="267" cy="1492" r="6" r1="9" r2="4" stroke-width="5" stroke="#ff9900" fill="#ffffff" opacity="1" layer="MULTILAYER" />
    <circle net="0" cx="484" cy="360" r="6" r1="9" r2="4" stroke-width="5" stroke="#ff9900" fill="#ffffff" opacity="1" layer="MULTILAYER" />
    <circle net="0" cx="412" cy="427" r="6" r1="9" r2="4" stroke-width="5" stroke="#ff9900" fill="#ffffff" opacity="1" layer="MULTILAYER" />
    <circle net="0" cx="412" cy="493" r="6" r1="9" r2="4" stroke-width="5" stroke="#ff9900" fill="#ffffff" opacity="1" layer="MULTILAYER" />
    <circle net="0" cx="412" cy="560" r="6" r1="9" r2="4" stroke-width="5" stroke="#ff9900" fill="#ffffff" opacity="1" layer="MULTILAYER" />
    <circle net="0" cx="412" cy="626" r="6" r1="9" r2="4" stroke-width="5" stroke="#ff9900" fill="#ffffff" opacity="1" layer="MULTILAYER" />
    <circle net="0" cx="557" cy="360" r="6" r1="9" r2="4" stroke-width="5" stroke="#ff9900" fill="#ffffff" opacity="1" layer="MULTILAYER" />
    <circle net="0" cx="557" cy="493" r="6" r1="9" r2="4" stroke-width="5" stroke="#ff9900" fill="#ffffff" opacity="1" layer="MULTILAYER" />
    <circle net="0" cx="412" cy="693" r="6" r1="9" r2="4" stroke-width="5" stroke="#ff9900" fill="#ffffff" opacity="1" layer="MULTILAYER" />
    <circle net="0" cx="484" cy="693" r="6" r1="9" r2="4" stroke-width="5" stroke="#ff9900" fill="#ffffff" opacity="1" layer="MULTILAYER" />
    <circle net="2" cx="562" cy="875" r="6" r1="9" r2="4" stroke-width="5" stroke="#ff9900" fill="#ffffff" opacity="1" layer="MULTILAYER" />
    <circle net="0" cx="267" cy="360" r="6" r1="9" r2="4" stroke-width="5" stroke="#ff9900" fill="#ffffff" opacity="1" layer="MULTILAYER" />
    <circle net="0" cx="267" cy="1598" r="6" r1="9" r2="4" stroke-width="5" stroke="#ff9900" fill="#ffffff" opacity="1" layer="MULTILAYER" />
    <circle net="0" cx="620" cy="1956" r="6" r1="9" r2="4" stroke-width="5" stroke="#ff9900" fill="#ffffff" opacity="1" layer="MULTILAYER" />
    <circle net="0" cx="620" cy="1890" r="6" r1="9" r2="4" stroke-width="5" stroke="#ff9900" fill="#ffffff" opacity="1" layer="MULTILAYER" />
    <circle net="0" cx="620" cy="1823" r="6" r1="9" r2="4" stroke-width="5" stroke="#ff9900" fill="#ffffff" opacity="1" layer="MULTILAYER" />
    <circle net="0" cx="620" cy="1757" r="6" r1="9" r2="4" stroke-width="5" stroke="#ff9900" fill="#ffffff" opacity="1" layer="MULTILAYER" />
    <circle net="0" cx="620" cy="1710" r="6" r1="9" r2="4" stroke-width="5" stroke="#ff9900" fill="#ffffff" opacity="1" layer="MULTILAYER" />
    <circle net="0" cx="339" cy="693" r="6" r1="9" r2="4" stroke-width="5" stroke="#ff9900" fill="#ffffff" opacity="1" layer="MULTILAYER" />
    <circle net="0" cx="339" cy="560" r="6" r1="9" r2="4" stroke-width="5" stroke="#ff9900" fill="#ffffff" opacity="1" layer="MULTILAYER" />
    <circle net="0" cx="484" cy="427" r="6" r1="9" r2="4" stroke-width="5" stroke="#ff9900" fill="#ffffff" opacity="1" layer="MULTILAYER" />
    <circle net="0" cx="484" cy="493" r="6" r1="9" r2="4" stroke-width="5" stroke="#ff9900" fill="#ffffff" opacity="1" layer="MULTILAYER" />
    <circle net="0" cx="484" cy="560" r="6" r1="9" r2="4" stroke-width="5" stroke="#ff9900" fill="#ffffff" opacity="1" layer="MULTILAYER" />
    <circle net="0" cx="484" cy="626" r="6" r1="9" r2="4" stroke-width="5" stroke="#ff9900" fill="#ffffff" opacity="1" layer="MULTILAYER" />
    <circle net="2" cx="562" cy="809" r="6" r1="9" r2="4" stroke-width="5" stroke="#ff9900" fill="#ffffff" opacity="1" layer="MULTILAYER" />
    <circle net="0" cx="557" cy="427" r="6" r1="9" r2="4" stroke-width="5" stroke="#ff9900" fill="#ffffff" opacity="1" layer="MULTILAYER" />
    <circle net="0" cx="557" cy="560" r="6" r1="9" r2="4" stroke-width="5" stroke="#ff9900" fill="#ffffff" opacity="1" layer="MULTILAYER" />
    <circle net="0" cx="557" cy="626" r="6" r1="9" r2="4" stroke-width="5" stroke="#ff9900" fill="#ffffff" opacity="1" layer="MULTILAYER" />
    <circle net="2" cx="594" cy="809" r="6" r1="9" r2="4" stroke-width="5" stroke="#ff9900" fill="#ffffff" opacity="1" layer="MULTILAYER" />
    <circle net="0" cx="194" cy="360" r="6" r1="9" r2="4" stroke-width="5" stroke="#ff9900" fill="#ffffff" opacity="1" layer="MULTILAYER" />
    <circle net="0" cx="194" cy="560" r="6" r1="9" r2="4" stroke-width="5" stroke="#ff9900" fill="#ffffff" opacity="1" layer="MULTILAYER" />
    <circle net="0" cx="194" cy="626" r="6" r1="9" r2="4" stroke-width="5" stroke="#ff9900" fill="#ffffff" opacity="1" layer="MULTILAYER" />
    <circle net="0" cx="194" cy="693" r="6" r1="9" r2="4" stroke-width="5" stroke="#ff9900" fill="#ffffff" opacity="1" layer="MULTILAYER" />
    <circle net="0" cx="194" cy="959" r="6" r1="9" r2="4" stroke-width="5" stroke="#ff9900" fill="#ffffff" opacity="1" layer="MULTILAYER" />
    <circle net="0" cx="194" cy="1026" r="6" r1="9" r2="4" stroke-width="5" stroke="#ff9900" fill="#ffffff" opacity="1" layer="MULTILAYER" />
    <circle net="0" cx="194" cy="1092" r="6" r1="9" r2="4" stroke-width="5" stroke="#ff9900" fill="#ffffff" opacity="1" layer="MULTILAYER" />
    <circle net="0" cx="194" cy="1159" r="6" r1="9" r2="4" stroke-width="5" stroke="#ff9900" fill="#ffffff" opacity="1" layer="MULTILAYER" />
    <circle net="0" cx="194" cy="1292" r="6" r1="9" r2="4" stroke-width="5" stroke="#ff9900" fill="#ffffff" opacity="1" layer="MULTILAYER" />
    <circle net="0" cx="194" cy="1358" r="6" r1="9" r2="4" stroke-width="5" stroke="#ff9900" fill="#ffffff" opacity="1" layer="MULTILAYER" />
    <circle net="0" cx="194" cy="1425" r="6" r1="9" r2="4" stroke-width="5" stroke="#ff9900" fill="#ffffff" opacity="1" layer="MULTILAYER" />
    <circle net="0" cx="194" cy="1491" r="6" r1="9" r2="4" stroke-width="5" stroke="#ff9900" fill="#ffffff" opacity="1" layer="MULTILAYER" />
    <circle net="0" cx="194" cy="1598" r="6" r1="9" r2="4" stroke-width="5" stroke="#ff9900" fill="#ffffff" opacity="1" layer="MULTILAYER" />
    <circle net="0" cx="1532" cy="223" r="6" r1="9" r2="4" stroke-width="5" stroke="#ff9900" fill="#ffffff" opacity="1" layer="MULTILAYER" />
    <circle net="0" cx="1600" cy="223" r="6" r1="9" r2="4" stroke-width="5" stroke="#ff9900" fill="#ffffff" opacity="1" layer="MULTILAYER" />
    <circle net="0" cx="1532" cy="290" r="6" r1="9" r2="4" stroke-width="5" stroke="#ff9900" fill="#ffffff" opacity="1" layer="MULTILAYER" />
    <circle net="0" cx="1600" cy="290" r="6" r1="9" r2="4" stroke-width="5" stroke="#ff9900" fill="#ffffff" opacity="1" layer="MULTILAYER" />
    <circle net="0" cx="1532" cy="423" r="6" r1="9" r2="4" stroke-width="5" stroke="#ff9900" fill="#ffffff" opacity="1" layer="MULTILAYER" />
    <circle net="0" cx="1600" cy="423" r="6" r1="9" r2="4" stroke-width="5" stroke="#ff9900" fill="#ffffff" opacity="1" layer="MULTILAYER" />
    <circle net="0" cx="1532" cy="157" r="6" r1="9" r2="4" stroke-width="5" stroke="#ff9900" fill="#ffffff" opacity="1" layer="MULTILAYER" />
    <circle net="0" cx="1532" cy="356" r="6" r1="9" r2="4" stroke-width="5" stroke="#ff9900" fill="#ffffff" opacity="1" layer="MULTILAYER" />
    <circle net="0" cx="1600" cy="356" r="6" r1="9" r2="4" stroke-width="5" stroke="#ff9900" fill="#ffffff" opacity="1" layer="MULTILAYER" />
    <circle net="2" cx="530" cy="809" r="6" r1="9" r2="4" stroke-width="5" stroke="#ff9900" fill="#ffffff" opacity="1" layer="MULTILAYER" />
    <circle net="2" cx="530" cy="875" r="6" r1="9" r2="4" stroke-width="5" stroke="#ff9900" fill="#ffffff" opacity="1" layer="MULTILAYER" />
    <circle net="2" cx="498" cy="809" r="6" r1="9" r2="4" stroke-width="5" stroke="#ff9900" fill="#ffffff" opacity="1" layer="MULTILAYER" />
    <circle net="2" cx="498" cy="875" r="6" r1="9" r2="4" stroke-width="5" stroke="#ff9900" fill="#ffffff" opacity="1" layer="MULTILAYER" />
    <circle net="2" cx="330" cy="1150" r="6" r1="9" r2="4" stroke-width="5" stroke="#ff9900" fill="#ffffff" opacity="1" layer="MULTILAYER" />
    <circle net="2" cx="379" cy="1150" r="6" r1="9" r2="4" stroke-width="5" stroke="#ff9900" fill="#ffffff" opacity="1" layer="MULTILAYER" />
    <circle net="2" cx="330" cy="1182" r="6" r1="9" r2="4" stroke-width="5" stroke="#ff9900" fill="#ffffff" opacity="1" layer="MULTILAYER" />
    <circle net="2" cx="330" cy="1214" r="6" r1="9" r2="4" stroke-width="5" stroke="#ff9900" fill="#ffffff" opacity="1" layer="MULTILAYER" />
    <circle net="2" cx="330" cy="1246" r="6" r1="9" r2="4" stroke-width="5" stroke="#ff9900" fill="#ffffff" opacity="1" layer="MULTILAYER" />
    <circle net="2" cx="379" cy="1182" r="6" r1="9" r2="4" stroke-width="5" stroke="#ff9900" fill="#ffffff" opacity="1" layer="MULTILAYER" />
    <circle net="2" cx="379" cy="1214" r="6" r1="9" r2="4" stroke-width="5" stroke="#ff9900" fill="#ffffff" opacity="1" layer="MULTILAYER" />
    <circle net="2" cx="379" cy="1246" r="6" r1="9" r2="4" stroke-width="5" stroke="#ff9900" fill="#ffffff" opacity="1" layer="MULTILAYER" />
    <circle net="2" cx="330" cy="1278" r="6" r1="9" r2="4" stroke-width="5" stroke="#ff9900" fill="#ffffff" opacity="1" layer="MULTILAYER" />
    <circle net="2" cx="379" cy="1278" r="6" r1="9" r2="4" stroke-width="5" stroke="#ff9900" fill="#ffffff" opacity="1" layer="MULTILAYER" />
    <circle net="2" cx="562" cy="842" r="6" r1="9" r2="4" stroke-width="5" stroke="#ff9900" fill="#ffffff" opacity="1" layer="MULTILAYER" />
    <circle net="2" cx="530" cy="842" r="6" r1="9" r2="4" stroke-width="5" stroke="#ff9900" fill="#ffffff" opacity="1" layer="MULTILAYER" />
    <circle net="2" cx="498" cy="842" r="6" r1="9" r2="4" stroke-width="5" stroke="#ff9900" fill="#ffffff" opacity="1" layer="MULTILAYER" />
    <circle net="5" cx="1206" cy="805" r="6" r1="9" r2="4" stroke-width="5" stroke="#ff9900" fill="#ffffff" opacity="1" layer="MULTILAYER" />
    <circle net="0" cx="1206" cy="695" r="6" r1="9" r2="4" stroke-width="5" stroke="#ff9900" fill="#ffffff" opacity="1" layer="MULTILAYER" />
    <circle net="0" cx="1600" cy="160" r="6" r1="9" r2="4" stroke-width="5" stroke="#ff9900" fill="#ffffff" opacity="1" layer="MULTILAYER" />
    <circle net="5" cx="1206" cy="585" r="6" r1="9" r2="4" stroke-width="5" stroke="#ff9900" fill="#ffffff" opacity="1" layer="MULTILAYER" />
    <circle net="5" cx="1260" cy="2280" r="30" r1="40" r2="20" stroke-width="20" stroke="#ff9900" fill="#ffffff" opacity="1" layer="MULTILAYER" />
    <circle net="0" cx="660" cy="2290" r="30" r1="40" r2="20" stroke-width="20" stroke="#ff9900" fill="#ffffff" opacity="1" layer="MULTILAYER" />
    <circle net="11" cx="720" cy="110" r="30" r1="40" r2="20" stroke-width="20" stroke="#ff9900" fill="#ffffff" opacity="1" layer="MULTILAYER" />
    <circle net="0" cx="550" cy="110" r="30" r1="40" r2="20" stroke-width="20" stroke="#ff9900" fill="#ffffff" opacity="1" layer="MULTILAYER" />
    <circle net="7" cx="1301" cy="878" r="30" r1="40" r2="20" stroke-width="20" stroke="#ff9900" fill="#ffffff" opacity="1" layer="MULTILAYER" />
  </g>
</svg>

