G04 DipTrace 2.3.1.0*
%INBottomMask.gbr*%
%MOIN*%
%ADD54R,0.0709X0.0709*%
%ADD62C,0.063*%
%ADD63C,0.13*%
%ADD72O,0.1024X0.185*%
%ADD74O,0.1417X0.0906*%
%ADD100O,0.185X0.1024*%
%ADD102O,0.0906X0.1417*%
%ADD104C,0.1024*%
%ADD105C,0.0866*%
%ADD107C,0.126*%
%ADD109C,0.0709*%
%ADD112C,0.4409*%
%ADD114C,0.0679*%
%ADD116R,0.0679X0.0679*%
%FSLAX44Y44*%
G04*
G70*
G90*
G75*
G01*
%LNBotMask*%
%LPD*%
D116*
X29948Y8689D3*
D114*
Y7689D3*
D116*
X14610Y19281D3*
D114*
X13610D3*
D116*
X28937Y8687D3*
D114*
Y7687D3*
D116*
X36000Y8687D3*
D114*
Y7687D3*
D116*
X35000Y8687D3*
D114*
Y7687D3*
D116*
X34000Y8687D3*
D114*
Y7687D3*
D116*
X33000Y8687D3*
D114*
Y7687D3*
D116*
X32000Y8687D3*
D114*
Y7687D3*
D116*
X39875Y8687D3*
D114*
Y7687D3*
D116*
X40875Y8687D3*
D114*
Y7687D3*
D116*
X41875Y8687D3*
D114*
Y7687D3*
D116*
X38000Y8687D3*
D114*
Y7687D3*
D112*
X6437Y9187D3*
Y16812D3*
Y24437D3*
D116*
X15624Y17187D3*
D114*
X14624D3*
X13624D3*
D116*
X24836Y12377D3*
D114*
X23836D3*
D116*
X14624Y18185D3*
D114*
X13624D3*
D116*
X45206Y17937D3*
D114*
X46206D3*
D116*
X45206Y16937D3*
D114*
X46206D3*
D54*
X18921Y7396D3*
D109*
X17937D3*
Y6608D3*
X18921D3*
D107*
X20799Y5541D3*
X16059D3*
D116*
X27937Y8687D3*
D114*
Y7687D3*
D116*
X12421Y12348D3*
D114*
Y13348D3*
D116*
X37003Y8687D3*
D114*
Y7687D3*
D105*
X27665Y29687D3*
Y31687D3*
D104*
X26165Y29687D3*
X29165D3*
D62*
X26165Y35187D3*
X29165Y33187D3*
D105*
X42245Y29687D3*
Y31687D3*
D104*
X40745Y29687D3*
X43745D3*
D62*
X40745Y35187D3*
X43745Y33187D3*
D116*
X27571Y15960D3*
D114*
Y14960D3*
D116*
X28573Y15960D3*
D114*
Y14960D3*
D102*
X19791Y34274D3*
D100*
Y36046D3*
D102*
X50120Y34274D3*
D100*
Y36046D3*
D116*
X27562Y21500D3*
D114*
X28562D3*
D116*
X41685D3*
D114*
X42685D3*
D74*
X6583Y31961D3*
D72*
X4812D3*
D63*
X5437Y35437D3*
Y5437D3*
X53317D3*
Y35437D3*
M02*
