M48
INCH
T01C0.01
T02C0.038
T03C0.0394
T04C0.0472
T05C0.0512
T06C0.063
T07C0.0906
T08C0.13
T09C0.1575
%
T01
X+014598Y+011207
X+014593Y+011428
X+014593Y+011647
X+015221Y+012302
X+015200Y+013001
X+018062Y+012937
X+018687Y+012937
X+018687Y+012312
X+018062Y+012312
X+016061Y+010010
X+013406Y+006193
X+012401Y+006215
X+011357Y+007520
X+021519Y+009886
X+023106Y+010198
X+023769Y+009248
X+025991Y+009241
X+026485Y+010672
X+028940Y+013438
X+029437Y+014364
X+029572Y+014492
X+029707Y+014631
X+029956Y+014350
X+030684Y+013000
X+030684Y+012769
X+030348Y+012392
X+031746Y+015255
X+031550Y+017030
X+030522Y+017034
X+028237Y+018718
X+024752Y+018752
X+023876Y+017688
X+021939Y+017376
X+022001Y+015688
X+022314Y+015688
X+022625Y+015687
X+023564Y+014938
X+023876Y+014938
X+024189Y+014938
X+023252Y+014376
X+018034Y+016986
X+018063Y+018571
X+018688Y+020071
X+020251Y+019501
X+017420Y+021952
X+015688Y+023063
X+009908Y+029820
X+026252Y+025939
X+026252Y+025627
X+026252Y+025314
X+028064Y+026205
X+030065Y+024648
X+030624Y+025742
X+032987Y+025134
X+032987Y+024906
X+032987Y+024688
X+034774Y+025689
X+034774Y+025877
X+034774Y+026064
X+034436Y+027394
X+034436Y+027610
X+034436Y+027811
X+035468Y+027834
X+035468Y+027633
X+035468Y+027437
X+036864Y+027419
X+036864Y+027615
X+036864Y+027816
X+037016Y+025135
X+037016Y+024907
X+037016Y+024689
X+034987Y+023156
X+034800Y+023156
X+034612Y+023156
X+033925Y+019218
X+033925Y+018281
X+034730Y+017000
X+034730Y+016563
X+035168Y+016563
X+035168Y+017000
X+035815Y+018251
X+036503Y+017813
X+037807Y+017172
X+037701Y+016631
X+038300Y+018031
X+035815Y+019189
X+041046Y+019262
X+042709Y+016865
X+041688Y+015175
X+039732Y+013859
X+037581Y+011674
X+039191Y+007875
X+038940Y+007624
X+040261Y+022533
X+040228Y+023146
X+042126Y+022626
X+043893Y+024639
X+044689Y+025711
X+045691Y+025627
X+045691Y+025314
X+045691Y+025939
X+042126Y+026211
X+033101Y+027346
X+033101Y+027568
X+033101Y+027782
X+033865Y+032921
X+036053Y+035171
X+028062Y+022625
X+026293Y+022530
X+026331Y+023152
T02
X+029948Y+008689
X+029948Y+007689
X+028937Y+007687
X+028937Y+008687
X+027937Y+008687
X+027937Y+007687
X+032000Y+007687
X+033000Y+007687
X+034000Y+007687
X+035000Y+007687
X+036000Y+007687
X+036000Y+008687
X+035000Y+008687
X+034000Y+008687
X+033000Y+008687
X+032000Y+008687
X+037003Y+008687
X+038000Y+008687
X+038000Y+007687
X+037003Y+007687
X+039875Y+007687
X+040875Y+007687
X+041875Y+007687
X+041875Y+008687
X+040875Y+008687
X+039875Y+008687
X+045206Y+016937
X+045206Y+017937
X+046206Y+017937
X+046206Y+016937
X+042685Y+021500
X+041685Y+021500
X+028562Y+021500
X+027562Y+021500
X+027571Y+015960
X+027571Y+014960
X+028573Y+014960
X+028573Y+015960
X+024836Y+012377
X+023836Y+012377
X+018921Y+007396
X+018921Y+006608
X+017937Y+006608
X+017937Y+007396
X+012421Y+012348
X+012421Y+013348
X+013624Y+017187
X+013624Y+018185
X+014624Y+018185
X+014624Y+017187
X+015624Y+017187
X+014610Y+019281
X+013610Y+019281
T03
X+019791Y+034018G85X+019791Y+034530
X+006839Y+031961G85X+006328Y+031961
X+050120Y+034018G85X+050120Y+034530
T04
X+027665Y+029687
X+027665Y+031687
X+042245Y+031687
X+042245Y+029687
T05
X+020205Y+036046G85X+019378Y+036046
X+004812Y+031548G85X+004812Y+032374
X+050534Y+036046G85X+049707Y+036046
T06
X+026165Y+029687
X+029165Y+029687
X+029165Y+033187
X+026165Y+035187
X+040745Y+035187
X+043745Y+033187
X+043745Y+029687
X+040745Y+029687
T07
X+020799Y+005541
X+016059Y+005541
T08
X+005437Y+035437
X+005437Y+005437
X+053317Y+005437
X+053317Y+035437
T09
X+006437Y+009187
X+006437Y+016812
X+006437Y+024437
T00
M30
