G04 DipTrace 2.3.1.0*
%INTopPaste.gbr*%
%MOIN*%
%ADD33R,0.063X0.063*%
%ADD48O,0.0071X0.0354*%
%ADD50O,0.0354X0.0071*%
%ADD60R,0.0157X0.0354*%
%ADD71R,0.0079X0.0276*%
%ADD77R,0.0421X0.0521*%
%ADD79R,0.0433X0.0512*%
%ADD82R,0.0721X0.0301*%
%ADD84R,0.0721X0.1201*%
%ADD86R,0.1969X0.1693*%
%ADD92R,0.0354X0.0157*%
%ADD95R,0.1161X0.1161*%
%ADD97O,0.0039X0.0315*%
%ADD99O,0.0315X0.0039*%
%ADD119R,0.0721X0.0181*%
%ADD121R,0.0118X0.0118*%
%ADD123R,0.0321X0.0321*%
%FSLAX44Y44*%
G04*
G70*
G90*
G75*
G01*
%LNTopPaste*%
%LPD*%
D123*
X13437Y21372D3*
Y20752D3*
X21167Y17060D3*
Y16440D3*
X22501Y18373D3*
Y17753D3*
X21904Y16455D3*
Y17075D3*
X24769Y18313D3*
X25389D3*
X29502Y16623D3*
Y16003D3*
X30127Y16623D3*
Y16003D3*
X38004Y11269D3*
Y10649D3*
X31780Y14818D3*
Y14198D3*
X31107Y14815D3*
Y15435D3*
X17428Y22411D3*
Y23031D3*
X30440Y14815D3*
Y15435D3*
X18674Y19667D3*
Y19047D3*
X39000Y14544D3*
Y15164D3*
X39013Y18323D3*
Y17703D3*
X20882Y9882D3*
Y10502D3*
X15215Y11961D3*
X14595D3*
X15210Y13355D3*
X14590D3*
X13903Y5576D3*
Y6196D3*
X14607Y12658D3*
X15227D3*
X30305Y10669D3*
Y11289D3*
X40467Y15147D3*
Y14527D3*
D121*
X40419Y10742D3*
Y11215D3*
X32426Y13726D3*
Y14199D3*
X40944Y10736D3*
Y11208D3*
D119*
X23314Y17126D3*
Y16626D3*
Y16126D3*
Y15626D3*
X25514Y17126D3*
Y16626D3*
Y16126D3*
Y15626D3*
D123*
X41189Y15146D3*
Y14526D3*
X21811Y17813D3*
X21191D3*
X37003Y11269D3*
Y10649D3*
X43191Y8172D3*
Y8792D3*
X32000Y10672D3*
Y11292D3*
X33000Y10672D3*
Y11292D3*
X34000Y10672D3*
Y11292D3*
X39066Y11224D3*
Y10604D3*
X35000Y10672D3*
Y11292D3*
X36000Y10672D3*
Y11292D3*
X43891Y17937D3*
X43271D3*
X43891Y16863D3*
X43271D3*
X38253Y16994D3*
Y16374D3*
X39000Y16356D3*
Y16976D3*
X15230Y14054D3*
X14610D3*
X12903Y5576D3*
Y6196D3*
X21582Y11208D3*
Y10588D3*
X22262Y11681D3*
Y11061D3*
X39775Y11535D3*
Y10915D3*
X39729Y14522D3*
Y15142D3*
G36*
X35556Y16186D2*
X35261D1*
Y16481D1*
X35556D1*
Y16186D1*
G37*
G36*
X35113D2*
X34818D1*
Y16481D1*
X35113D1*
Y16186D1*
G37*
G36*
X34670D2*
X34375D1*
Y16481D1*
X34670D1*
Y16186D1*
G37*
G36*
X35556Y16629D2*
X35261D1*
Y16924D1*
X35556D1*
Y16629D1*
G37*
G36*
X35113D2*
X34818D1*
Y16924D1*
X35113D1*
Y16629D1*
G37*
G36*
X34670D2*
X34375D1*
Y16924D1*
X34670D1*
Y16629D1*
G37*
G36*
X35556Y17072D2*
X35261D1*
Y17367D1*
X35556D1*
Y17072D1*
G37*
G36*
X35113D2*
X34818D1*
Y17367D1*
X35113D1*
Y17072D1*
G37*
G36*
X34670D2*
X34375D1*
Y17367D1*
X34670D1*
Y17072D1*
G37*
D99*
X35930Y16186D3*
Y16383D3*
Y16580D3*
Y16777D3*
Y16973D3*
Y17170D3*
Y17367D3*
D97*
X35556Y17741D3*
X35359D3*
X35163D3*
X34966D3*
X34769D3*
X34572D3*
X34375D3*
D99*
X34001Y17367D3*
Y17170D3*
Y16973D3*
Y16777D3*
Y16580D3*
Y16383D3*
Y16186D3*
D97*
X34375Y15812D3*
X34572D3*
X34769D3*
X34966D3*
X35163D3*
X35359D3*
X35556D3*
D95*
X34966Y16777D3*
D60*
X30318Y11861D3*
X30692D3*
X31066D3*
Y12924D3*
X30318D3*
D92*
X16250Y22687D3*
Y23061D3*
Y23435D3*
X15187D3*
Y22687D3*
X19750Y19437D3*
Y19063D3*
Y18689D3*
X20812D3*
Y19437D3*
G36*
X17505Y11788D2*
X17948D1*
Y12182D1*
X17505D1*
Y11788D1*
G37*
G36*
Y12428D2*
X17948D1*
Y12822D1*
X17505D1*
Y12428D1*
G37*
G36*
Y13068D2*
X17948D1*
Y13462D1*
X17505D1*
Y13068D1*
G37*
G36*
X18145Y11788D2*
X18587D1*
Y12182D1*
X18145D1*
Y11788D1*
G37*
G36*
Y12428D2*
X18587D1*
Y12822D1*
X18145D1*
Y12428D1*
G37*
G36*
Y13068D2*
X18587D1*
Y13462D1*
X18145D1*
Y13068D1*
G37*
G36*
X18784Y11788D2*
X19227D1*
Y12182D1*
X18784D1*
Y11788D1*
G37*
G36*
Y12428D2*
X19227D1*
Y12822D1*
X18784D1*
Y12428D1*
G37*
G36*
Y13068D2*
X19227D1*
Y13462D1*
X18784D1*
Y13068D1*
G37*
D48*
X17062Y11062D3*
X17259D3*
X17456D3*
X17653D3*
X17849D3*
X18046D3*
X18243D3*
X18440D3*
X18637D3*
X18834D3*
X19031D3*
X19227D3*
X19424D3*
X19621D3*
D50*
X19905Y11345D3*
Y11542D3*
Y11739D3*
Y11936D3*
Y12133D3*
Y12330D3*
Y12527D3*
Y12723D3*
Y12920D3*
Y13117D3*
Y13314D3*
Y13511D3*
Y13708D3*
Y13905D3*
D48*
X19621Y14188D3*
X19424D3*
X19227D3*
X19031D3*
X18834D3*
X18637D3*
X18440D3*
X18243D3*
X18046D3*
X17849D3*
X17653D3*
X17456D3*
X17259D3*
X17062D3*
D50*
X16779Y13905D3*
Y13708D3*
Y13511D3*
Y13314D3*
Y13117D3*
Y12920D3*
Y12723D3*
Y12527D3*
Y12330D3*
Y12133D3*
Y11936D3*
Y11739D3*
Y11542D3*
Y11345D3*
D86*
X18342Y12625D3*
D119*
X23772Y11179D3*
Y10679D3*
Y10179D3*
Y9679D3*
X25972Y11179D3*
Y10679D3*
Y10179D3*
Y9679D3*
D92*
X15684Y9635D3*
Y10009D3*
Y10383D3*
X14621D3*
Y9635D3*
D84*
X9437Y20937D3*
D82*
X11687Y21837D3*
Y20937D3*
Y20037D3*
D33*
X41663Y16194D3*
X40013D3*
Y18192D3*
X41663Y18194D3*
D79*
X40518Y16779D3*
X41151D3*
Y17605D3*
X40518D3*
D33*
X13806Y9511D3*
X12157D3*
Y7511D3*
X13806D3*
D123*
X24821Y24275D3*
Y24895D3*
X31535Y24242D3*
Y24862D3*
D77*
X23936Y24994D3*
Y25844D3*
X32440Y25014D3*
Y25864D3*
D123*
X30955Y27742D3*
X31575D3*
X25437Y27754D3*
X24817D3*
D77*
X26897Y27864D3*
Y27014D3*
X29375Y27864D3*
Y27014D3*
D123*
X27627Y26218D3*
Y25598D3*
X30396Y25271D3*
Y24651D3*
X25872Y22537D3*
Y23157D3*
D119*
X29139Y23127D3*
Y23627D3*
Y24127D3*
Y24627D3*
X26939Y23127D3*
Y23627D3*
Y24127D3*
Y24627D3*
D77*
X23936Y23385D3*
Y24235D3*
X32436Y23385D3*
Y24235D3*
D123*
X24817Y27113D3*
X25437D3*
X31582Y27059D3*
X30962D3*
X26135Y27127D3*
Y27747D3*
X30250Y27127D3*
Y27747D3*
X25437Y26449D3*
X24817D3*
X30962Y26395D3*
X31582D3*
X28502Y26218D3*
Y25598D3*
X28924Y19841D3*
Y19221D3*
D77*
X31534Y22736D3*
Y23586D3*
X24814Y22766D3*
Y23616D3*
D123*
X28237Y19218D3*
Y19838D3*
X38353Y24308D3*
Y24928D3*
X45666Y24277D3*
Y24897D3*
D77*
X37501Y24993D3*
Y25843D3*
X46556Y24985D3*
Y25835D3*
D123*
X45040Y27750D3*
X45660D3*
X39213Y27789D3*
X38593D3*
D77*
X40936Y27864D3*
Y27014D3*
X43436Y27864D3*
Y27014D3*
D123*
X41685Y26216D3*
Y25596D3*
X44438Y25246D3*
Y24626D3*
X39761Y22536D3*
Y23156D3*
D119*
X43226Y23152D3*
Y23652D3*
Y24152D3*
Y24652D3*
X41026Y23152D3*
Y23652D3*
Y24152D3*
Y24652D3*
D77*
X37497Y23385D3*
Y24235D3*
X46559Y23385D3*
Y24235D3*
D123*
X38593Y27101D3*
X39213D3*
X45660Y27063D3*
X45040D3*
X39935Y27127D3*
Y27747D3*
X44310Y27127D3*
Y27747D3*
X39227Y26414D3*
X38607D3*
X45040Y26375D3*
X45660D3*
X42564Y26218D3*
Y25598D3*
X38316Y19670D3*
Y19050D3*
D77*
X45691Y22766D3*
Y23616D3*
X38378Y22796D3*
Y23646D3*
D123*
X38988Y19031D3*
Y19651D3*
X34442Y31796D3*
X33822D3*
X33817Y29800D3*
X34437D3*
X35492Y29791D3*
X36112D3*
X36117Y31826D3*
X35497D3*
D119*
X36053Y33296D3*
Y33796D3*
Y34296D3*
Y34796D3*
X33853Y33296D3*
Y33796D3*
Y34296D3*
Y34796D3*
D123*
X33821Y32483D3*
X34441D3*
X34097Y27834D3*
Y28454D3*
X34441Y31130D3*
X33821D3*
X36751Y31137D3*
X36131D3*
X33816Y29123D3*
X33196D3*
X35495D3*
X36115D3*
X33410Y27834D3*
Y28454D3*
X34441Y30464D3*
X33821D3*
X36117Y32514D3*
X35497D3*
X36509Y27834D3*
Y28454D3*
X35793Y27836D3*
Y28456D3*
X36112Y30460D3*
X35492D3*
X9896Y30331D3*
Y30951D3*
X8766Y32480D3*
Y31860D3*
X11023Y30916D3*
Y31536D3*
X8207Y31849D3*
Y32469D3*
X9900Y32138D3*
Y31518D3*
X9335Y32767D3*
Y32147D3*
X10465Y32146D3*
Y31526D3*
D71*
X12509Y32467D3*
X12253D3*
X11997D3*
Y31600D3*
X12509D3*
M02*
