G04 DipTrace 2.3.1.0*
%INTopSilk.gbr*%
%MOIN*%
%ADD10C,0.0098*%
%ADD12C,0.003*%
%ADD40C,0.0157*%
%ADD46C,0.0312*%
%ADD59C,0.0154*%
%ADD124C,0.0062*%
%ADD125C,0.0093*%
%FSLAX44Y44*%
G04*
G70*
G90*
G75*
G01*
%LNTopSilk*%
%LPD*%
X13201Y21107D2*
D10*
Y21016D1*
X13673Y21112D2*
Y21021D1*
X13718Y21649D2*
X13155D1*
Y20470D1*
X13718D1*
Y21649D1*
X20931Y16795D2*
Y16704D1*
X21404Y16800D2*
Y16709D1*
X21448Y17337D2*
X20885D1*
Y16158D1*
X21448D1*
Y17337D1*
X22265Y18108D2*
Y18017D1*
X22738Y18113D2*
Y18022D1*
X22782Y18650D2*
X22219D1*
Y17471D1*
X22782D1*
Y18650D1*
X22140Y16720D2*
Y16811D1*
X21667Y16715D2*
Y16807D1*
X21623Y16179D2*
X22186D1*
Y17358D1*
X21623D1*
Y16179D1*
X25034Y18077D2*
X25125D1*
X25029Y18549D2*
X25120D1*
X24493Y18594D2*
X25671D1*
Y18030D1*
X24493D1*
Y18594D1*
X29266Y16358D2*
Y16267D1*
X29738Y16363D2*
Y16271D1*
X29783Y16899D2*
X29219D1*
Y15720D1*
X29783D1*
Y16899D1*
X29891Y16358D2*
Y16267D1*
X30363Y16363D2*
Y16271D1*
X30408Y16899D2*
X29845D1*
Y15720D1*
X30408D1*
Y16899D1*
X37767Y11004D2*
Y10913D1*
X38240Y11009D2*
Y10918D1*
X38284Y11546D2*
X37721D1*
Y10367D1*
X38284D1*
Y11546D1*
X31544Y14553D2*
Y14462D1*
X32016Y14558D2*
Y14467D1*
X32061Y15095D2*
X31498D1*
Y13916D1*
X32061D1*
Y15095D1*
X31343Y15080D2*
Y15172D1*
X30870Y15075D2*
Y15167D1*
X30826Y14539D2*
X31389D1*
Y15718D1*
X30826D1*
Y14539D1*
X17664Y22676D2*
Y22767D1*
X17192Y22671D2*
Y22762D1*
X17147Y22135D2*
X17710D1*
Y23313D1*
X17147D1*
Y22135D1*
X30676Y15080D2*
Y15171D1*
X30203Y15075D2*
Y15166D1*
X30159Y14538D2*
X30722D1*
Y15717D1*
X30159D1*
Y14538D1*
X18438Y19402D2*
Y19311D1*
X18910Y19407D2*
Y19316D1*
X18955Y19944D2*
X18392D1*
Y18765D1*
X18955D1*
Y19944D1*
X39236Y14809D2*
Y14900D1*
X38764Y14804D2*
Y14895D1*
X38719Y14268D2*
X39283D1*
Y15446D1*
X38719D1*
Y14268D1*
X38777Y18058D2*
Y17967D1*
X39249Y18063D2*
Y17972D1*
X39293Y18600D2*
X38730D1*
Y17421D1*
X39293D1*
Y18600D1*
X21119Y10147D2*
Y10238D1*
X20646Y10142D2*
Y10233D1*
X20602Y9606D2*
X21165D1*
Y10784D1*
X20602D1*
Y9606D1*
X14950Y12197D2*
X14859D1*
X14955Y11725D2*
X14864D1*
X15492Y11680D2*
X14313D1*
Y12243D1*
X15492D1*
Y11680D1*
X14945Y13591D2*
X14854D1*
X14950Y13119D2*
X14859D1*
X15487Y13075D2*
X14308D1*
Y13638D1*
X15487D1*
Y13075D1*
X14139Y5841D2*
Y5933D1*
X13667Y5836D2*
Y5928D1*
X13622Y5300D2*
X14186D1*
Y6479D1*
X13622D1*
Y5300D1*
X14872Y12422D2*
X14963D1*
X14867Y12894D2*
X14958D1*
X14330Y12939D2*
X15509D1*
Y12376D1*
X14330D1*
Y12939D1*
X30542Y10934D2*
Y11025D1*
X30069Y10929D2*
Y11020D1*
X30025Y10392D2*
X30588D1*
Y11571D1*
X30025D1*
Y10392D1*
X40231Y14882D2*
Y14791D1*
X40703Y14887D2*
Y14796D1*
X40748Y15424D2*
X40185D1*
Y14245D1*
X40748D1*
Y15424D1*
X40240Y10459D2*
X40241Y10696D1*
X40600Y10466D2*
Y10699D1*
X40597Y10530D2*
X40252D1*
X40594Y10457D2*
X40272D1*
X32247Y13443D2*
Y13680D1*
X32607Y13450D2*
X32606Y13683D1*
X32603Y13514D2*
X32258D1*
X32600Y13441D2*
X32278D1*
X40765Y10452D2*
X40766Y10689D1*
X41125Y10459D2*
Y10692D1*
X41122Y10524D2*
X40777D1*
X41119Y10450D2*
X40797D1*
X24964Y15439D2*
Y17318D1*
X23839D1*
Y15439D1*
X24964D2*
X24589D1*
X24214D2*
X23839D1*
X24589D2*
G03X24214Y15439I-187J-62D01*
G01*
X30448Y9189D2*
X29448D1*
Y7189D1*
X30448D1*
Y9189D1*
X15110Y18781D2*
X13110D1*
Y19781D1*
X15110D1*
Y18781D1*
X29437Y9187D2*
X28437D1*
Y7187D1*
X29437D1*
Y9187D1*
X36500D2*
X35500D1*
Y7187D1*
X36500D1*
Y9187D1*
X35500D2*
X34500D1*
Y7187D1*
X35500D1*
Y9187D1*
X34500D2*
X33500D1*
Y7187D1*
X34500D1*
Y9187D1*
X33500D2*
X32500D1*
Y7187D1*
X33500D1*
Y9187D1*
X32500D2*
X31500D1*
Y7187D1*
X32500D1*
Y9187D1*
X40375D2*
X39375D1*
Y7187D1*
X40375D1*
Y9187D1*
X41375D2*
X40375D1*
Y7187D1*
X41375D1*
Y9187D1*
X42375D2*
X41375D1*
Y7187D1*
X42375D1*
Y9187D1*
X38500D2*
X37500D1*
Y7187D1*
X38500D1*
Y9187D1*
X16124Y16687D2*
X13124D1*
Y17687D1*
X16124D1*
Y16687D1*
X25336Y11877D2*
X23336D1*
Y12877D1*
X25336D1*
Y11877D1*
X15124Y17685D2*
X13124D1*
Y18685D1*
X15124D1*
Y17685D1*
X44706Y18437D2*
X46706D1*
Y17437D1*
X44706D1*
Y18437D1*
Y17437D2*
X46706D1*
Y16437D1*
X44706D1*
Y17437D1*
X18980Y7877D2*
G02X18980Y7877I0J49D01*
G01*
X20803Y4632D2*
Y1486D1*
X16055Y4632D2*
Y1486D1*
Y7825D2*
Y6439D1*
X20803Y7825D2*
Y6439D1*
X19394Y7825D2*
X20803D1*
X16055D2*
X17465D1*
X18173D2*
X18685D1*
X16055Y1486D2*
X20803D1*
X28437Y9187D2*
X27437D1*
Y7187D1*
X28437D1*
Y9187D1*
X11921Y11848D2*
X12921D1*
Y13848D1*
X11921D1*
Y11848D1*
X37503Y9187D2*
X36503D1*
Y7187D1*
X37503D1*
Y9187D1*
X23137Y36687D2*
Y29010D1*
X32192Y36687D2*
Y29010D1*
X23137D2*
X32192D1*
X37717Y36687D2*
Y29010D1*
X46773Y36687D2*
Y29010D1*
X37717D2*
X46773D1*
X28071Y16460D2*
X27071D1*
Y14460D1*
X28071D1*
Y16460D1*
X29073D2*
X28073D1*
Y14460D1*
X29073D1*
Y16460D1*
X17823Y37621D2*
X21760D1*
Y33684D1*
X17823D1*
Y37621D1*
X18157D2*
X21425D1*
Y41361D1*
X18157D1*
Y37621D1*
G36*
X17764D2*
X18473D1*
Y36952D1*
X17764D1*
Y37621D1*
G37*
G36*
X21110D2*
X21819D1*
Y36952D1*
X21110D1*
Y37621D1*
G37*
X48152D2*
D10*
X52089D1*
Y33684D1*
X48152D1*
Y37621D1*
X48486D2*
X51754D1*
Y41361D1*
X48486D1*
Y37621D1*
G36*
X48093D2*
X48802D1*
Y36951D1*
X48093D1*
Y37621D1*
G37*
G36*
X51439D2*
X52148D1*
Y36951D1*
X51439D1*
Y37621D1*
G37*
X40953Y14881D2*
D10*
Y14790D1*
X41426Y14886D2*
Y14794D1*
X41470Y15422D2*
X40907D1*
Y14243D1*
X41470D1*
Y15422D1*
X21546Y18050D2*
X21455D1*
X21551Y17577D2*
X21460D1*
X22088Y17533D2*
X20909D1*
Y18096D1*
X22088D1*
Y17533D1*
X36767Y11004D2*
Y10913D1*
X37240Y11009D2*
Y10918D1*
X37284Y11546D2*
X36721D1*
Y10367D1*
X37284D1*
Y11546D1*
X43428Y8437D2*
Y8528D1*
X42955Y8432D2*
Y8523D1*
X42911Y7896D2*
X43474D1*
Y9074D1*
X42911D1*
Y7896D1*
X32236Y10937D2*
Y11028D1*
X31764Y10932D2*
Y11024D1*
X31719Y10396D2*
X32282D1*
Y11575D1*
X31719D1*
Y10396D1*
X33236Y10937D2*
Y11028D1*
X32764Y10932D2*
Y11024D1*
X32719Y10396D2*
X33282D1*
Y11575D1*
X32719D1*
Y10396D1*
X34236Y10937D2*
Y11028D1*
X33764Y10932D2*
Y11024D1*
X33719Y10396D2*
X34282D1*
Y11575D1*
X33719D1*
Y10396D1*
X38830Y10959D2*
Y10868D1*
X39302Y10964D2*
Y10873D1*
X39347Y11501D2*
X38784D1*
Y10322D1*
X39347D1*
Y11501D1*
X35236Y10937D2*
Y11028D1*
X34764Y10932D2*
Y11024D1*
X34719Y10396D2*
X35282D1*
Y11575D1*
X34719D1*
Y10396D1*
X36236Y10937D2*
Y11028D1*
X35764Y10932D2*
Y11024D1*
X35719Y10396D2*
X36282D1*
Y11575D1*
X35719D1*
Y10396D1*
X43626Y18173D2*
X43535D1*
X43631Y17701D2*
X43540D1*
X44168Y17656D2*
X42989D1*
Y18219D1*
X44168D1*
Y17656D1*
X43626Y17099D2*
X43535D1*
X43631Y16626D2*
X43540D1*
X44168Y16582D2*
X42989D1*
Y17145D1*
X44168D1*
Y16582D1*
X38017Y16729D2*
Y16638D1*
X38489Y16734D2*
Y16643D1*
X38534Y17271D2*
X37971D1*
Y16092D1*
X38534D1*
Y17271D1*
X39236Y16621D2*
Y16712D1*
X38764Y16616D2*
Y16707D1*
X38719Y16079D2*
X39283D1*
Y17258D1*
X38719D1*
Y16079D1*
X14965Y14290D2*
X14874D1*
X14970Y13818D2*
X14879D1*
X15507Y13774D2*
X14328D1*
Y14337D1*
X15507D1*
Y13774D1*
X13139Y5841D2*
Y5933D1*
X12667Y5836D2*
Y5928D1*
X12622Y5300D2*
X13186D1*
Y6479D1*
X12622D1*
Y5300D1*
X21346Y10943D2*
Y10852D1*
X21818Y10948D2*
Y10857D1*
X21863Y11485D2*
X21300D1*
Y10306D1*
X21863D1*
Y11485D1*
X22025Y11416D2*
Y11325D1*
X22498Y11421D2*
Y11330D1*
X22542Y11958D2*
X21979D1*
Y10779D1*
X22542D1*
Y11958D1*
X39539Y11270D2*
Y11179D1*
X40011Y11275D2*
Y11184D1*
X40056Y11812D2*
X39493D1*
Y10633D1*
X40056D1*
Y11812D1*
X39966Y14787D2*
Y14878D1*
X39493Y14782D2*
Y14873D1*
X39449Y14245D2*
X40012D1*
Y15424D1*
X39449D1*
Y14245D1*
X35950Y17761D2*
Y17564D1*
Y17761D2*
X35753D1*
X33981D2*
Y17564D1*
Y17761D2*
X34178D1*
X33981Y15792D2*
Y15989D1*
Y15792D2*
X34178D1*
X35950Y15989D2*
X35753Y15792D1*
D40*
X36046Y15772D3*
X30101Y12235D2*
D10*
X31282D1*
X30101Y12550D2*
X31282D1*
Y12235D2*
Y12550D1*
X30101Y12235D2*
Y12550D1*
X15875Y22471D2*
Y23652D1*
X15560Y22471D2*
Y23652D1*
X15875D2*
X15560D1*
X15875Y22471D2*
X15560D1*
X20124Y19654D2*
Y18472D1*
X20439Y19654D2*
Y18472D1*
X20124D2*
X20439D1*
X20124Y19654D2*
X20439D1*
D46*
X16623Y10906D3*
X16766Y14200D2*
D10*
Y14101D1*
Y14200D2*
X16865D1*
X19916D2*
X19817D1*
X19916D2*
Y14101D1*
Y11050D2*
Y11149D1*
Y11050D2*
X19817D1*
X16865D2*
X16767D1*
Y11148D1*
X25422Y9492D2*
Y11370D1*
X24296D1*
Y9492D1*
X25422D2*
X25046D1*
X24671D2*
X24296D1*
X25046D2*
G03X24671Y9492I-187J-62D01*
G01*
X15309Y9419D2*
Y10600D1*
X14994Y9419D2*
Y10600D1*
X15309D2*
X14994D1*
X15309Y9419D2*
X14994D1*
X9537Y19687D2*
Y20136D1*
Y21738D2*
Y22188D1*
X11337Y20287D2*
Y20638D1*
Y21187D2*
Y21537D1*
Y19687D2*
X9537D1*
X11337D2*
Y19788D1*
Y22188D2*
X9537D1*
X11337Y22086D2*
Y22188D1*
X39588Y15756D2*
X42088D1*
Y18631D1*
X39588D1*
Y15756D1*
X40829Y16409D2*
X40830Y17151D1*
X40829Y17157D2*
X41488D1*
X41213Y16381D2*
X40463D1*
X40150Y16631D2*
Y17756D1*
X40463Y18006D2*
X41213D1*
X41525Y17756D2*
Y16631D1*
X41213Y15756D2*
Y16381D1*
X42088Y16631D2*
X41525D1*
X14232Y9949D2*
X11732D1*
Y7074D1*
X14232D1*
Y9949D1*
X12588Y9929D2*
Y9062D1*
X11761D1*
X25057Y24541D2*
Y24632D1*
X24585Y24535D2*
Y24627D1*
X24540Y23999D2*
X25103D1*
Y25178D1*
X24540D1*
Y23999D1*
X31771Y24507D2*
Y24598D1*
X31299Y24502D2*
Y24593D1*
X31254Y23965D2*
X31817D1*
Y25144D1*
X31254D1*
Y23965D1*
X23604Y25844D2*
Y24998D1*
X24267Y25844D2*
Y24998D1*
X23588Y24614D2*
X24285D1*
Y26226D1*
X23588D1*
Y24614D1*
X32108Y25864D2*
Y25017D1*
X32771Y25864D2*
Y25017D1*
X32092Y24633D2*
X32789D1*
Y26245D1*
X32092D1*
Y24633D1*
X31220Y27506D2*
X31311D1*
X31215Y27978D2*
X31306D1*
X30678Y28023D2*
X31857D1*
Y27460D1*
X30678D1*
Y28023D1*
X25171Y27991D2*
X25080D1*
X25176Y27518D2*
X25085D1*
X25713Y27474D2*
X24534D1*
Y28037D1*
X25713D1*
Y27474D1*
X27229Y27014D2*
Y27861D1*
X26566Y27014D2*
Y27861D1*
X27245Y28245D2*
X26548D1*
Y26633D1*
X27245D1*
Y28245D1*
X29707Y27014D2*
Y27861D1*
X29044Y27014D2*
Y27861D1*
X29723Y28245D2*
X29026D1*
Y26633D1*
X29723D1*
Y28245D1*
X27391Y25953D2*
Y25862D1*
X27863Y25958D2*
Y25867D1*
X27907Y26495D2*
X27344D1*
Y25316D1*
X27907D1*
Y26495D1*
X30160Y25006D2*
Y24915D1*
X30633Y25011D2*
Y24919D1*
X30677Y25547D2*
X30114D1*
Y24368D1*
X30677D1*
Y25547D1*
X26108Y22802D2*
Y22893D1*
X25636Y22797D2*
Y22889D1*
X25591Y22261D2*
X26154D1*
Y23440D1*
X25591D1*
Y22261D1*
X27489Y24813D2*
Y22935D1*
X28615D1*
Y24813D1*
X27489D2*
X27864D1*
X28239D2*
X28615D1*
X27864D2*
G03X28239Y24813I187J62D01*
G01*
X27062Y22000D2*
X29062D1*
Y21000D1*
X27062D1*
Y22000D1*
X23605Y24235D2*
Y23388D1*
X24268Y24235D2*
Y23388D1*
X23589Y23004D2*
X24285D1*
Y24616D1*
X23589D1*
Y23004D1*
X32105Y24235D2*
Y23388D1*
X32768Y24235D2*
Y23388D1*
X32089Y23004D2*
X32785D1*
Y24616D1*
X32089D1*
Y23004D1*
X25082Y26877D2*
X25173D1*
X25077Y27349D2*
X25168D1*
X24540Y27394D2*
X25719D1*
Y26831D1*
X24540D1*
Y27394D1*
X31317Y27295D2*
X31226D1*
X31322Y26823D2*
X31231D1*
X31859Y26778D2*
X30680D1*
Y27342D1*
X31859D1*
Y26778D1*
X26371Y27392D2*
Y27483D1*
X25898Y27387D2*
Y27478D1*
X25854Y26850D2*
X26417D1*
Y28029D1*
X25854D1*
Y26850D1*
X30486Y27392D2*
Y27483D1*
X30013Y27387D2*
Y27478D1*
X29969Y26850D2*
X30532D1*
Y28029D1*
X29969D1*
Y26850D1*
X25171Y26686D2*
X25080D1*
X25176Y26213D2*
X25085D1*
X25713Y26169D2*
X24534D1*
Y26732D1*
X25713D1*
Y26169D1*
X31227Y26159D2*
X31318D1*
X31222Y26632D2*
X31314D1*
X30686Y26676D2*
X31865D1*
Y26113D1*
X30686D1*
Y26676D1*
X28266Y25953D2*
Y25862D1*
X28738Y25958D2*
Y25867D1*
X28783Y26495D2*
X28219D1*
Y25316D1*
X28783D1*
Y26495D1*
X28688Y19576D2*
Y19485D1*
X29160Y19581D2*
Y19489D1*
X29205Y20117D2*
X28642D1*
Y18938D1*
X29205D1*
Y20117D1*
X31202Y23586D2*
Y22740D1*
X31865Y23586D2*
Y22740D1*
X31186Y22355D2*
X31883D1*
Y23967D1*
X31186D1*
Y22355D1*
X24482Y23616D2*
Y22770D1*
X25145Y23616D2*
Y22770D1*
X24466Y22385D2*
X25162D1*
Y23997D1*
X24466D1*
Y22385D1*
X28473Y19483D2*
Y19574D1*
X28001Y19478D2*
Y19569D1*
X27956Y18942D2*
X28519D1*
Y20120D1*
X27956D1*
Y18942D1*
X38589Y24574D2*
Y24665D1*
X38117Y24569D2*
Y24660D1*
X38072Y24032D2*
X38636D1*
Y25211D1*
X38072D1*
Y24032D1*
X45903Y24542D2*
Y24633D1*
X45430Y24537D2*
Y24628D1*
X45386Y24000D2*
X45949D1*
Y25179D1*
X45386D1*
Y24000D1*
X37169Y25843D2*
Y24996D1*
X37832Y25843D2*
Y24996D1*
X37153Y24612D2*
X37850D1*
Y26224D1*
X37153D1*
Y24612D1*
X46224Y25836D2*
Y24989D1*
X46887Y25836D2*
Y24989D1*
X46208Y24605D2*
X46905D1*
Y26217D1*
X46208D1*
Y24605D1*
X45305Y27514D2*
X45396D1*
X45300Y27987D2*
X45391D1*
X44763Y28031D2*
X45942D1*
Y27468D1*
X44763D1*
Y28031D1*
X38948Y28025D2*
X38857D1*
X38953Y27553D2*
X38862D1*
X39490Y27508D2*
X38311D1*
Y28071D1*
X39490D1*
Y27508D1*
X41267Y27014D2*
Y27861D1*
X40604Y27014D2*
Y27861D1*
X41283Y28245D2*
X40587D1*
Y26633D1*
X41283D1*
Y28245D1*
X43767Y27014D2*
Y27861D1*
X43104Y27014D2*
Y27861D1*
X43783Y28245D2*
X43087D1*
Y26633D1*
X43783D1*
Y28245D1*
X41449Y25951D2*
Y25860D1*
X41921Y25956D2*
Y25865D1*
X41966Y26493D2*
X41402D1*
Y25314D1*
X41966D1*
Y26493D1*
X44202Y24981D2*
Y24890D1*
X44674Y24986D2*
Y24894D1*
X44719Y25522D2*
X44156D1*
Y24343D1*
X44719D1*
Y25522D1*
X39997Y22801D2*
Y22892D1*
X39525Y22796D2*
Y22887D1*
X39480Y22259D2*
X40043D1*
Y23438D1*
X39480D1*
Y22259D1*
X41576Y24838D2*
Y22960D1*
X42702D1*
Y24838D1*
X41576D2*
X41951D1*
X42326D2*
X42702D1*
X41951D2*
G03X42326Y24838I187J62D01*
G01*
X41185Y22000D2*
X43185D1*
Y21000D1*
X41185D1*
Y22000D1*
X37165Y24235D2*
Y23388D1*
X37828Y24235D2*
Y23388D1*
X37149Y23004D2*
X37846D1*
Y24616D1*
X37149D1*
Y23004D1*
X46228Y24235D2*
Y23388D1*
X46891Y24235D2*
Y23388D1*
X46212Y23004D2*
X46908D1*
Y24616D1*
X46212D1*
Y23004D1*
X38858Y26865D2*
X38949D1*
X38853Y27338D2*
X38945D1*
X38317Y27382D2*
X39496D1*
Y26819D1*
X38317D1*
Y27382D1*
X45395Y27299D2*
X45304D1*
X45400Y26827D2*
X45309D1*
X45937Y26782D2*
X44758D1*
Y27345D1*
X45937D1*
Y26782D1*
X40171Y27392D2*
Y27483D1*
X39699Y27387D2*
Y27478D1*
X39654Y26850D2*
X40217D1*
Y28029D1*
X39654D1*
Y26850D1*
X44546Y27392D2*
Y27483D1*
X44074Y27387D2*
Y27478D1*
X44029Y26850D2*
X44592D1*
Y28029D1*
X44029D1*
Y26850D1*
X38962Y26650D2*
X38871D1*
X38967Y26178D2*
X38876D1*
X39504Y26133D2*
X38325D1*
Y26696D1*
X39504D1*
Y26133D1*
X45305Y26139D2*
X45396D1*
X45300Y26611D2*
X45391D1*
X44763Y26656D2*
X45942D1*
Y26093D1*
X44763D1*
Y26656D1*
X42327Y25953D2*
Y25862D1*
X42800Y25958D2*
Y25867D1*
X42844Y26495D2*
X42281D1*
Y25316D1*
X42844D1*
Y26495D1*
X38080Y19405D2*
Y19314D1*
X38552Y19410D2*
Y19319D1*
X38597Y19947D2*
X38033D1*
Y18768D1*
X38597D1*
Y19947D1*
X45359Y23616D2*
Y22770D1*
X46022Y23616D2*
Y22770D1*
X45343Y22385D2*
X46040D1*
Y23997D1*
X45343D1*
Y22385D1*
X38046Y23647D2*
Y22800D1*
X38709Y23647D2*
Y22800D1*
X38030Y22416D2*
X38726D1*
Y24028D1*
X38030D1*
Y22416D1*
X39224Y19296D2*
Y19387D1*
X38752Y19291D2*
Y19382D1*
X38707Y18754D2*
X39270D1*
Y19933D1*
X38707D1*
Y18754D1*
X34177Y32032D2*
X34086D1*
X34182Y31560D2*
X34091D1*
X34719Y31515D2*
X33540D1*
Y32078D1*
X34719D1*
Y31515D1*
X34082Y29564D2*
X34173D1*
X34077Y30036D2*
X34168D1*
X33540Y30081D2*
X34719D1*
Y29518D1*
X33540D1*
Y30081D1*
X35757Y29554D2*
X35848D1*
X35752Y30027D2*
X35843D1*
X35215Y30071D2*
X36394D1*
Y29508D1*
X35215D1*
Y30071D1*
X35852Y32062D2*
X35761D1*
X35857Y31590D2*
X35765D1*
X36393Y31545D2*
X35214D1*
Y32109D1*
X36393D1*
Y31545D1*
X34402Y34982D2*
Y33104D1*
X35528D1*
Y34982D1*
X34402D2*
X34778D1*
X35153D2*
X35528D1*
X34778D2*
G03X35153Y34982I187J62D01*
G01*
X34086Y32247D2*
X34177D1*
X34081Y32719D2*
X34173D1*
X33545Y32764D2*
X34724D1*
Y32201D1*
X33545D1*
Y32764D1*
X34334Y28099D2*
Y28190D1*
X33861Y28094D2*
Y28185D1*
X33817Y27557D2*
X34380D1*
Y28736D1*
X33817D1*
Y27557D1*
X34176Y31366D2*
X34085D1*
X34181Y30894D2*
X34090D1*
X34718Y30849D2*
X33539D1*
Y31412D1*
X34718D1*
Y30849D1*
X36486Y31373D2*
X36395D1*
X36491Y30901D2*
X36400D1*
X37027Y30856D2*
X35849D1*
Y31419D1*
X37027D1*
Y30856D1*
X33551Y29359D2*
X33460D1*
X33556Y28887D2*
X33465D1*
X34092Y28842D2*
X32914D1*
Y29405D1*
X34092D1*
Y28842D1*
X35760Y28886D2*
X35851D1*
X35755Y29359D2*
X35846D1*
X35218Y29403D2*
X36397D1*
Y28840D1*
X35218D1*
Y29403D1*
X33646Y28099D2*
Y28190D1*
X33174Y28094D2*
Y28185D1*
X33129Y27557D2*
X33692D1*
Y28736D1*
X33129D1*
Y27557D1*
X34176Y30700D2*
X34085D1*
X34181Y30228D2*
X34090D1*
X34718Y30183D2*
X33539D1*
Y30746D1*
X34718D1*
Y30183D1*
X35852Y32750D2*
X35761D1*
X35857Y32278D2*
X35765D1*
X36393Y32233D2*
X35214D1*
Y32796D1*
X36393D1*
Y32233D1*
X36745Y28099D2*
Y28190D1*
X36273Y28094D2*
Y28185D1*
X36228Y27557D2*
X36791D1*
Y28736D1*
X36228D1*
Y27557D1*
X36029Y28101D2*
Y28192D1*
X35557Y28096D2*
Y28187D1*
X35513Y27559D2*
X36076D1*
Y28738D1*
X35513D1*
Y27559D1*
X35847Y30696D2*
X35756D1*
X35852Y30224D2*
X35761D1*
X36389Y30180D2*
X35210D1*
Y30743D1*
X36389D1*
Y30180D1*
X10132Y30596D2*
Y30687D1*
X9659Y30591D2*
Y30682D1*
X9615Y30054D2*
X10178D1*
Y31233D1*
X9615D1*
Y30054D1*
X8529Y32215D2*
Y32124D1*
X9002Y32220D2*
Y32129D1*
X9046Y32757D2*
X8483D1*
Y31578D1*
X9046D1*
Y32757D1*
X11259Y31181D2*
Y31272D1*
X10787Y31176D2*
Y31267D1*
X10743Y30639D2*
X11306D1*
Y31818D1*
X10743D1*
Y30639D1*
X3237Y29993D2*
X7174D1*
Y33929D1*
X3237D1*
Y29993D1*
Y30327D2*
X-503D1*
Y33595D1*
X3237D1*
Y30327D1*
G36*
Y29933D2*
X3906D1*
Y30642D1*
X3237D1*
Y29933D1*
G37*
G36*
Y33280D2*
X3906D1*
Y33989D1*
X3237D1*
Y33280D1*
G37*
X8443Y32115D2*
D10*
Y32206D1*
X7970Y32109D2*
Y32201D1*
X7926Y31573D2*
X8489D1*
Y32752D1*
X7926D1*
Y31573D1*
X9664Y31873D2*
Y31782D1*
X10136Y31878D2*
Y31787D1*
X10180Y32414D2*
X9617D1*
Y31236D1*
X10180D1*
Y32414D1*
X9099Y32502D2*
Y32411D1*
X9571Y32507D2*
Y32416D1*
X9616Y33044D2*
X9053D1*
Y31865D1*
X9616D1*
Y33044D1*
X10229Y31881D2*
Y31790D1*
X10701Y31886D2*
Y31794D1*
X10746Y32422D2*
X10182D1*
Y31243D1*
X10746D1*
Y32422D1*
D59*
X12778Y32575D3*
X12646Y32152D2*
D10*
X11859D1*
Y31915D1*
X12646D1*
Y32152D1*
X13813Y25648D2*
X18501D1*
Y21585D1*
X13813D1*
Y25648D1*
G36*
X50118Y10829D2*
X53703D1*
Y7245D1*
X50118D1*
Y10829D1*
G37*
X52365Y21787D2*
D12*
X52843D1*
X52281Y21757D2*
X52931D1*
X52204Y21727D2*
X53008D1*
X52135Y21697D2*
X53076D1*
X52074Y21668D2*
X53139D1*
X50151Y21638D2*
X50958D1*
X52020D2*
X53195D1*
X50151Y21608D2*
X50958D1*
X51972D2*
X53244D1*
X50151Y21578D2*
X50958D1*
X51930D2*
X53285D1*
X50151Y21548D2*
X50958D1*
X51892D2*
X53322D1*
X50151Y21518D2*
X50958D1*
X51859D2*
X53358D1*
X50151Y21488D2*
X50958D1*
X51827D2*
X53389D1*
X50151Y21458D2*
X50958D1*
X51797D2*
X53417D1*
X50151Y21428D2*
X50958D1*
X51768D2*
X53444D1*
X50151Y21398D2*
X50958D1*
X51742D2*
X53472D1*
X50151Y21368D2*
X50958D1*
X51720D2*
X53497D1*
X50151Y21338D2*
X50958D1*
X51701D2*
X53518D1*
X50151Y21309D2*
X50958D1*
X51685D2*
X53537D1*
X50151Y21279D2*
X50958D1*
X51669D2*
X53554D1*
X50151Y21249D2*
X50958D1*
X51653D2*
X53572D1*
X50151Y21219D2*
X50958D1*
X51635D2*
X53591D1*
X50151Y21189D2*
X50958D1*
X51617D2*
X53607D1*
X50151Y21159D2*
X50958D1*
X51601D2*
X53619D1*
X50151Y21129D2*
X50958D1*
X51588D2*
X53631D1*
X50151Y21099D2*
X50958D1*
X51573D2*
X53641D1*
X50151Y21069D2*
X50958D1*
X51557D2*
X53651D1*
X50151Y21039D2*
X50958D1*
X52395D2*
X53661D1*
X50151Y21009D2*
X50958D1*
X52848D2*
X53670D1*
X50151Y20979D2*
X50718D1*
X53099D2*
X53676D1*
X50151Y20949D2*
X50491D1*
X53333D2*
X53679D1*
X50151Y20920D2*
X50270D1*
X53561D2*
X53681D1*
X51587Y20890D2*
X52215D1*
X51555Y20860D2*
X52784D1*
X50809Y20830D2*
X50958D1*
X51530D2*
X53025D1*
X50577Y20800D2*
X50958D1*
X51513D2*
X53250D1*
X50360Y20770D2*
X50958D1*
X51504D2*
X53437D1*
X50151Y20740D2*
X50958D1*
X51500D2*
X52520D1*
X52691D2*
X53569D1*
X50151Y20710D2*
X50958D1*
X51498D2*
X52473D1*
X52742D2*
X53661D1*
X50151Y20680D2*
X50958D1*
X51497D2*
X52434D1*
X52782D2*
X53692D1*
X50151Y20650D2*
X50958D1*
X51497D2*
X52404D1*
X52810D2*
X53702D1*
X50151Y20620D2*
X50958D1*
X51497D2*
X52383D1*
X52831D2*
X53708D1*
X50151Y20590D2*
X50958D1*
X51497D2*
X52369D1*
X52848D2*
X53710D1*
X50151Y20561D2*
X50958D1*
X51497D2*
X52356D1*
X52860D2*
X53711D1*
X50151Y20531D2*
X50958D1*
X51497D2*
X52346D1*
X52867D2*
X53711D1*
X50151Y20501D2*
X50958D1*
X51497D2*
X52340D1*
X52871D2*
X53711D1*
X50151Y20471D2*
X50958D1*
X51497D2*
X52337D1*
X52872D2*
X53711D1*
X50151Y20441D2*
X50958D1*
X51497D2*
X52336D1*
X52873D2*
X53711D1*
X50151Y20411D2*
X50958D1*
X51497D2*
X52335D1*
X52873D2*
X53711D1*
X50151Y20381D2*
X50958D1*
X51497D2*
X52335D1*
X52873D2*
X53711D1*
X50151Y20351D2*
X50958D1*
X51497D2*
X52335D1*
X52873D2*
X53711D1*
X50151Y20321D2*
X50958D1*
X51497D2*
X52335D1*
X52873D2*
X53711D1*
X50151Y20291D2*
X50958D1*
X51497D2*
X52335D1*
X52873D2*
X53711D1*
X50151Y20261D2*
X50958D1*
X51497D2*
X52335D1*
X52873D2*
X53711D1*
X50151Y20231D2*
X50958D1*
X51497D2*
X52335D1*
X52873D2*
X53711D1*
X50151Y20201D2*
X50958D1*
X51497D2*
X52335D1*
X52873D2*
X53711D1*
X50151Y20172D2*
X50958D1*
X51497D2*
X52335D1*
X52873D2*
X53711D1*
X50151Y20142D2*
X50958D1*
X51497D2*
X52335D1*
X52873D2*
X53711D1*
X50151Y20112D2*
X50958D1*
X51497D2*
X52335D1*
X52873D2*
X53711D1*
X50151Y20082D2*
X50958D1*
X51497D2*
X52335D1*
X52873D2*
X53711D1*
X50151Y20052D2*
X50958D1*
X51497D2*
X52335D1*
X52873D2*
X53711D1*
X50151Y20022D2*
X50958D1*
X51497D2*
X52335D1*
X52873D2*
X53711D1*
X50151Y19992D2*
X50958D1*
X51497D2*
X52335D1*
X52873D2*
X53711D1*
X50151Y19962D2*
X50958D1*
X51497D2*
X52335D1*
X52873D2*
X53711D1*
X50151Y19932D2*
X50958D1*
X51497D2*
X52335D1*
X52873D2*
X53711D1*
X50151Y19902D2*
X50958D1*
X51497D2*
X52335D1*
X52873D2*
X53711D1*
X50151Y19872D2*
X50958D1*
X51497D2*
X52335D1*
X52873D2*
X53711D1*
X50151Y19842D2*
X50958D1*
X51497D2*
X52335D1*
X52873D2*
X53711D1*
X50151Y19813D2*
X50959D1*
X51497D2*
X52335D1*
X52873D2*
X53711D1*
X50151Y19783D2*
X50960D1*
X51497D2*
X52335D1*
X52873D2*
X53711D1*
X50151Y19753D2*
X50964D1*
X51497D2*
X52335D1*
X52873D2*
X53711D1*
X50151Y19723D2*
X50972D1*
X51496D2*
X52335D1*
X52873D2*
X53711D1*
X50151Y19693D2*
X50983D1*
X51492D2*
X52335D1*
X52873D2*
X53711D1*
X50151Y19663D2*
X50997D1*
X51483D2*
X52335D1*
X52873D2*
X53711D1*
X50151Y19633D2*
X51014D1*
X51470D2*
X52335D1*
X52873D2*
X53711D1*
X50151Y19603D2*
X51034D1*
X51451D2*
X52335D1*
X52873D2*
X53711D1*
X50151Y19573D2*
X51080D1*
X51405D2*
X52335D1*
X52873D2*
X53711D1*
X50151Y19543D2*
X51149D1*
X51337D2*
X52335D1*
X52873D2*
X53711D1*
X50151Y19513D2*
X51242D1*
X51244D2*
X52335D1*
X52873D2*
X53711D1*
X50151Y19483D2*
X52335D1*
X52873D2*
X53711D1*
X50151Y19453D2*
X52335D1*
X52874D2*
X53711D1*
X50151Y19424D2*
X52335D1*
X52876D2*
X53711D1*
X50151Y19394D2*
X51647D1*
X52185D2*
X52335D1*
X52881D2*
X53711D1*
X50151Y19364D2*
X51125D1*
X52960D2*
X53711D1*
X50152Y19334D2*
X50868D1*
X53075D2*
X53711D1*
X50156Y19304D2*
X50647D1*
X53218D2*
X53711D1*
X50167Y19274D2*
X50454D1*
X53374D2*
X53711D1*
X50181Y19244D2*
X50270D1*
X53541D2*
X53711D1*
X51198Y19214D2*
X52275D1*
X53711D2*
D3*
X50955Y19184D2*
X52274D1*
X52873D2*
X52933D1*
X50738Y19154D2*
X52269D1*
X52873D2*
X53121D1*
X50553Y19124D2*
X52258D1*
X52873D2*
X53301D1*
X50412Y19094D2*
X52242D1*
X52873D2*
X53457D1*
X50315Y19065D2*
X52225D1*
X52873D2*
X53573D1*
X50240Y19035D2*
X52209D1*
X52873D2*
X53658D1*
X50260Y19005D2*
X52193D1*
X52873D2*
X53691D1*
X50280Y18975D2*
X52178D1*
X52873D2*
X53702D1*
X50300Y18945D2*
X52162D1*
X52873D2*
X53707D1*
X50320Y18915D2*
X52143D1*
X52873D2*
X53710D1*
X50341Y18885D2*
X52121D1*
X52873D2*
X53711D1*
X50365Y18855D2*
X52098D1*
X52873D2*
X53711D1*
X50392Y18825D2*
X52077D1*
X52873D2*
X53711D1*
X50421Y18795D2*
X52055D1*
X52873D2*
X53711D1*
X50450Y18765D2*
X52029D1*
X52873D2*
X53711D1*
X50480Y18735D2*
X51999D1*
X52873D2*
X53711D1*
X50511Y18705D2*
X51963D1*
X52873D2*
X53711D1*
X50545Y18676D2*
X51924D1*
X52873D2*
X53711D1*
X50583Y18646D2*
X51884D1*
X52873D2*
X53711D1*
X50627Y18616D2*
X51840D1*
X52873D2*
X53711D1*
X50677Y18586D2*
X51790D1*
X52873D2*
X53711D1*
X50734Y18556D2*
X51736D1*
X52873D2*
X53711D1*
X50799Y18526D2*
X51674D1*
X52873D2*
X53711D1*
X50881Y18496D2*
X51594D1*
X52873D2*
X53711D1*
X50987Y18466D2*
X51491D1*
X52873D2*
X53711D1*
X51108Y18436D2*
X51377D1*
X52873D2*
X53711D1*
X52365Y18406D2*
X53711D1*
X52281Y18376D2*
X53711D1*
X52204Y18346D2*
X53711D1*
X52135Y18317D2*
X53711D1*
X52074Y18287D2*
X53711D1*
X50151Y18257D2*
X50958D1*
X52020D2*
X53711D1*
X50151Y18227D2*
X50958D1*
X51972D2*
X53711D1*
X50151Y18197D2*
X50958D1*
X51930D2*
X53711D1*
X50151Y18167D2*
X50958D1*
X51892D2*
X53711D1*
X50151Y18137D2*
X50958D1*
X51859D2*
X53711D1*
X50151Y18107D2*
X50958D1*
X51827D2*
X53711D1*
X50151Y18077D2*
X50958D1*
X51797D2*
X53711D1*
X50151Y18047D2*
X50958D1*
X51768D2*
X53711D1*
X50151Y18017D2*
X50958D1*
X51742D2*
X53711D1*
X50151Y17987D2*
X50958D1*
X51720D2*
X53711D1*
X50151Y17957D2*
X50958D1*
X51701D2*
X53711D1*
X50151Y17928D2*
X50958D1*
X51684D2*
X53711D1*
X50151Y17898D2*
X50958D1*
X51665D2*
X53711D1*
X50151Y17868D2*
X50958D1*
X51646D2*
X53711D1*
X50151Y17838D2*
X50958D1*
X51628D2*
X53711D1*
X50151Y17808D2*
X50958D1*
X51612D2*
X53711D1*
X50151Y17778D2*
X50958D1*
X51599D2*
X53711D1*
X50151Y17748D2*
X50958D1*
X51587D2*
X53711D1*
X50151Y17718D2*
X50957D1*
X51573D2*
X53711D1*
X50151Y17688D2*
X50953D1*
X51557D2*
X51647D1*
X52155D2*
X53711D1*
X50151Y17658D2*
X50930D1*
X52617D2*
X53711D1*
X50151Y17628D2*
X50855D1*
X52823D2*
X53711D1*
X50151Y17598D2*
X50747D1*
X53010D2*
X53711D1*
X50151Y17569D2*
X50613D1*
X53181D2*
X53711D1*
X50151Y17539D2*
X50469D1*
X53336D2*
X53711D1*
X50151Y17509D2*
X50325D1*
X51527D2*
X52544D1*
X53474D2*
X53711D1*
X50151Y17479D2*
X50181D1*
X51517D2*
X52744D1*
X53596D2*
X53711D1*
X50869Y17449D2*
X50958D1*
X51508D2*
X52939D1*
X53711D2*
D3*
X50693Y17419D2*
X50958D1*
X51502D2*
X53120D1*
X50533Y17389D2*
X50958D1*
X51499D2*
X53280D1*
X50395Y17359D2*
X50958D1*
X51498D2*
X52520D1*
X52681D2*
X53416D1*
X50288Y17329D2*
X50958D1*
X51497D2*
X52473D1*
X52742D2*
X53527D1*
X50207Y17299D2*
X50958D1*
X51497D2*
X52434D1*
X52784D2*
X53609D1*
X50173Y17269D2*
X50958D1*
X51497D2*
X52404D1*
X52812D2*
X53671D1*
X50161Y17239D2*
X50958D1*
X51497D2*
X52383D1*
X52832D2*
X53695D1*
X50155Y17209D2*
X50958D1*
X51497D2*
X52369D1*
X52848D2*
X53704D1*
X50152Y17180D2*
X50958D1*
X51497D2*
X52356D1*
X52860D2*
X53708D1*
X50151Y17150D2*
X50958D1*
X51497D2*
X52346D1*
X52867D2*
X53710D1*
X50151Y17120D2*
X50958D1*
X51497D2*
X52340D1*
X52871D2*
X53711D1*
X50151Y17090D2*
X50958D1*
X51497D2*
X52337D1*
X52872D2*
X53711D1*
X50151Y17060D2*
X50958D1*
X51497D2*
X52336D1*
X52873D2*
X53711D1*
X50151Y17030D2*
X50958D1*
X51497D2*
X52335D1*
X52873D2*
X53711D1*
X50151Y17000D2*
X50958D1*
X51497D2*
X52335D1*
X52873D2*
X53711D1*
X50151Y16970D2*
X50958D1*
X51497D2*
X52335D1*
X52873D2*
X53711D1*
X50151Y16940D2*
X50958D1*
X51497D2*
X52335D1*
X52873D2*
X53711D1*
X50151Y16910D2*
X50958D1*
X51497D2*
X52335D1*
X52873D2*
X53711D1*
X50151Y16880D2*
X50958D1*
X51497D2*
X52335D1*
X52873D2*
X53711D1*
X50151Y16850D2*
X50958D1*
X51497D2*
X52335D1*
X52873D2*
X53711D1*
X50151Y16821D2*
X50958D1*
X51497D2*
X52335D1*
X52873D2*
X53711D1*
X50151Y16791D2*
X50958D1*
X51497D2*
X52335D1*
X52873D2*
X53711D1*
X50151Y16761D2*
X50958D1*
X51497D2*
X52335D1*
X52873D2*
X53711D1*
X50151Y16731D2*
X50958D1*
X51497D2*
X52335D1*
X52873D2*
X53711D1*
X50151Y16701D2*
X50958D1*
X51497D2*
X52335D1*
X52873D2*
X53711D1*
X50151Y16671D2*
X50958D1*
X51497D2*
X52335D1*
X52873D2*
X53711D1*
X50151Y16641D2*
X50958D1*
X51497D2*
X52335D1*
X52873D2*
X53711D1*
X50151Y16611D2*
X50958D1*
X51497D2*
X52335D1*
X52873D2*
X53711D1*
X50151Y16581D2*
X50958D1*
X51497D2*
X52335D1*
X52873D2*
X53711D1*
X50151Y16551D2*
X50958D1*
X51497D2*
X52335D1*
X52873D2*
X53711D1*
X50151Y16521D2*
X50958D1*
X51497D2*
X52335D1*
X52873D2*
X53711D1*
X50151Y16491D2*
X50958D1*
X51497D2*
X52335D1*
X52873D2*
X53711D1*
X50151Y16461D2*
X50958D1*
X51497D2*
X52335D1*
X52873D2*
X53711D1*
X50151Y16432D2*
X50959D1*
X51497D2*
X52335D1*
X52873D2*
X53711D1*
X50151Y16402D2*
X50960D1*
X51497D2*
X52335D1*
X52873D2*
X53711D1*
X50151Y16372D2*
X50964D1*
X51497D2*
X52335D1*
X52873D2*
X53711D1*
X50151Y16342D2*
X50972D1*
X51496D2*
X52335D1*
X52873D2*
X53711D1*
X50151Y16312D2*
X50985D1*
X51491D2*
X52335D1*
X52873D2*
X53711D1*
X50151Y16282D2*
X51002D1*
X51479D2*
X52335D1*
X52873D2*
X53711D1*
X50151Y16252D2*
X51025D1*
X51458D2*
X52335D1*
X52873D2*
X53711D1*
X50151Y16222D2*
X51054D1*
X51431D2*
X52335D1*
X52873D2*
X53711D1*
X50151Y16192D2*
X51124D1*
X51361D2*
X52335D1*
X52873D2*
X53711D1*
X50151Y16162D2*
X51237D1*
X51248D2*
X52335D1*
X52873D2*
X53711D1*
X50151Y16132D2*
X52335D1*
X52873D2*
X53711D1*
X50151Y16102D2*
X52335D1*
X52873D2*
X53711D1*
X50151Y16073D2*
X52335D1*
X52874D2*
X53711D1*
X50151Y16043D2*
X51521D1*
X52305D2*
X52335D1*
X52875D2*
X53711D1*
X50151Y16013D2*
X51274D1*
X52890D2*
X53711D1*
X50151Y15983D2*
X51065D1*
X52944D2*
X53711D1*
X50152Y15953D2*
X50894D1*
X53021D2*
X53711D1*
X50156Y15923D2*
X50753D1*
X53113D2*
X53711D1*
X50164Y15893D2*
X50629D1*
X51587D2*
X52215D1*
X53213D2*
X53711D1*
X50176Y15863D2*
X50514D1*
X51336D2*
X52305D1*
X53315D2*
X53711D1*
X50192Y15833D2*
X50405D1*
X51125D2*
X52291D1*
X53417D2*
X53711D1*
X50210Y15803D2*
X50300D1*
X50954D2*
X52281D1*
X52873D2*
X52933D1*
X53513D2*
X53711D1*
X50808Y15773D2*
X52272D1*
X52873D2*
X53039D1*
X53600D2*
X53711D1*
X50679Y15743D2*
X52259D1*
X52873D2*
X53149D1*
X53681D2*
X53711D1*
X50565Y15713D2*
X52242D1*
X52873D2*
X53258D1*
X50469Y15684D2*
X52225D1*
X52873D2*
X53360D1*
X50395Y15654D2*
X52209D1*
X52873D2*
X53451D1*
X50339Y15624D2*
X52193D1*
X52873D2*
X53535D1*
X50312Y15594D2*
X52178D1*
X52873D2*
X53606D1*
X50317Y15564D2*
X52162D1*
X52873D2*
X53666D1*
X50328Y15534D2*
X52143D1*
X52873D2*
X53693D1*
X50344Y15504D2*
X52121D1*
X52873D2*
X53703D1*
X50367Y15474D2*
X52097D1*
X52873D2*
X53708D1*
X50393Y15444D2*
X52072D1*
X52873D2*
X53710D1*
X50421Y15414D2*
X52043D1*
X52873D2*
X53711D1*
X50450Y15384D2*
X52011D1*
X52873D2*
X53711D1*
X50480Y15354D2*
X51978D1*
X52873D2*
X53711D1*
X50511Y15325D2*
X51947D1*
X52873D2*
X53711D1*
X50546Y15295D2*
X51915D1*
X52873D2*
X53711D1*
X50588Y15265D2*
X51880D1*
X52873D2*
X53711D1*
X50637Y15235D2*
X51838D1*
X52873D2*
X53711D1*
X50689Y15205D2*
X51788D1*
X52873D2*
X53711D1*
X50745Y15175D2*
X51730D1*
X52873D2*
X53711D1*
X50813Y15145D2*
X51660D1*
X52873D2*
X53711D1*
X50906Y15115D2*
X51568D1*
X52873D2*
X53711D1*
X51028Y15085D2*
X51450D1*
X52873D2*
X53711D1*
X51168Y15055D2*
X51317D1*
X52873D2*
X53711D1*
X52873Y15025D2*
X53711D1*
X52873Y14995D2*
X53711D1*
X52873Y14965D2*
X53711D1*
X52873Y14936D2*
X53711D1*
X52873Y14906D2*
X53711D1*
X52873Y14876D2*
X53711D1*
X50151Y14846D2*
X50958D1*
X52873D2*
X53711D1*
X50151Y14816D2*
X50958D1*
X52873D2*
X53711D1*
X50151Y14786D2*
X50958D1*
X52873D2*
X53711D1*
X50151Y14756D2*
X50958D1*
X52873D2*
X53711D1*
X50151Y14726D2*
X50958D1*
X52873D2*
X53711D1*
X50151Y14696D2*
X50958D1*
X52873D2*
X53711D1*
X50151Y14666D2*
X50958D1*
X52873D2*
X53711D1*
X50151Y14636D2*
X50958D1*
X52873D2*
X53711D1*
X50151Y14606D2*
X50956D1*
X52875D2*
X53711D1*
X50151Y14577D2*
X50950D1*
X52879D2*
X53711D1*
X50151Y14547D2*
X50923D1*
X52901D2*
X53711D1*
X50151Y14517D2*
X50866D1*
X52958D2*
X53711D1*
X50151Y14487D2*
X50794D1*
X53032D2*
X53711D1*
X50151Y14457D2*
X50714D1*
X51497D2*
X52335D1*
X53114D2*
X53711D1*
X50151Y14427D2*
X50633D1*
X51497D2*
X52335D1*
X53193D2*
X53711D1*
X50151Y14397D2*
X50557D1*
X51497D2*
X52335D1*
X53267D2*
X53711D1*
X50151Y14367D2*
X50488D1*
X50929D2*
X50958D1*
X51497D2*
X52335D1*
X52873D2*
D3*
X53336D2*
X53711D1*
X50151Y14337D2*
X50422D1*
X50840D2*
X50958D1*
X51497D2*
X52335D1*
X52873D2*
X52993D1*
X53403D2*
X53711D1*
X50151Y14307D2*
X50358D1*
X50755D2*
X50958D1*
X51497D2*
X52335D1*
X52873D2*
X53068D1*
X53466D2*
X53711D1*
X50151Y14277D2*
X50294D1*
X50677D2*
X50958D1*
X51497D2*
X52335D1*
X52873D2*
X53140D1*
X53525D2*
X53711D1*
X50151Y14247D2*
X50235D1*
X50603D2*
X50958D1*
X51497D2*
X52335D1*
X52873D2*
X53212D1*
X53578D2*
X53711D1*
X50151Y14217D2*
X50181D1*
X50531D2*
X50958D1*
X51497D2*
X52335D1*
X52873D2*
X53282D1*
X53630D2*
X53711D1*
X50462Y14188D2*
X50958D1*
X51497D2*
X52335D1*
X52873D2*
X53350D1*
X53681D2*
X53711D1*
X50400Y14158D2*
X50958D1*
X51497D2*
X52335D1*
X52873D2*
X53416D1*
X50345Y14128D2*
X50958D1*
X51497D2*
X52335D1*
X52873D2*
X53474D1*
X50292Y14098D2*
X50958D1*
X51497D2*
X52335D1*
X52873D2*
X53524D1*
X50243Y14068D2*
X50958D1*
X51497D2*
X52335D1*
X52873D2*
X53573D1*
X50203Y14038D2*
X50958D1*
X51497D2*
X52335D1*
X52873D2*
X53620D1*
X50172Y14008D2*
X50958D1*
X51497D2*
X52335D1*
X52873D2*
X53659D1*
X50161Y13978D2*
X50958D1*
X51497D2*
X52335D1*
X52873D2*
X53690D1*
X50155Y13948D2*
X50958D1*
X51497D2*
X52335D1*
X52873D2*
X53701D1*
X50152Y13918D2*
X50958D1*
X51497D2*
X52335D1*
X52873D2*
X53707D1*
X50151Y13888D2*
X50958D1*
X51497D2*
X52335D1*
X52873D2*
X53709D1*
X50151Y13858D2*
X50958D1*
X51497D2*
X52335D1*
X52873D2*
X53710D1*
X50151Y13829D2*
X50958D1*
X51497D2*
X52335D1*
X52873D2*
X53711D1*
X50151Y13799D2*
X50958D1*
X51497D2*
X52335D1*
X52873D2*
X53711D1*
X50151Y13769D2*
X50958D1*
X51497D2*
X52335D1*
X52873D2*
X53711D1*
X50151Y13739D2*
X50958D1*
X51497D2*
X52335D1*
X52873D2*
X53711D1*
X50151Y13709D2*
X50958D1*
X51497D2*
X52335D1*
X52873D2*
X53711D1*
X50151Y13679D2*
X50958D1*
X51497D2*
X52335D1*
X52873D2*
X53711D1*
X50151Y13649D2*
X50958D1*
X51497D2*
X52335D1*
X52873D2*
X53711D1*
X50151Y13619D2*
X50958D1*
X51497D2*
X52335D1*
X52873D2*
X53711D1*
X50151Y13589D2*
X50958D1*
X51497D2*
X52335D1*
X52873D2*
X53711D1*
X50151Y13559D2*
X50958D1*
X51497D2*
X52335D1*
X52873D2*
X53711D1*
X50151Y13529D2*
X50958D1*
X51497D2*
X52335D1*
X52873D2*
X53711D1*
X50151Y13499D2*
X50958D1*
X51497D2*
X52335D1*
X52873D2*
X53711D1*
X50151Y13469D2*
X50958D1*
X51497D2*
X52335D1*
X52873D2*
X53711D1*
X50151Y13440D2*
X50958D1*
X51497D2*
X52335D1*
X52873D2*
X53711D1*
X50151Y13410D2*
X50958D1*
X51497D2*
X52335D1*
X52873D2*
X53711D1*
X50151Y13380D2*
X50958D1*
X51497D2*
X52335D1*
X52873D2*
X53711D1*
X50151Y13350D2*
X50958D1*
X51497D2*
X52335D1*
X52873D2*
X53711D1*
X50151Y13320D2*
X50959D1*
X51497D2*
X52335D1*
X52873D2*
X53711D1*
X50151Y13290D2*
X50960D1*
X51497D2*
X52335D1*
X52873D2*
X53711D1*
X50151Y13260D2*
X50963D1*
X51497D2*
X52335D1*
X52873D2*
X53711D1*
X50151Y13230D2*
X50971D1*
X51497D2*
X51856D1*
X51976D2*
X52335D1*
X52872D2*
X53711D1*
X50151Y13200D2*
X50979D1*
X51497D2*
X51527D1*
X52275D2*
X52335D1*
X52868D2*
X53711D1*
X50151Y13170D2*
X50988D1*
X52861D2*
X53710D1*
X50151Y13140D2*
X50998D1*
X52853D2*
X53706D1*
X50152Y13110D2*
X51006D1*
X52847D2*
X53699D1*
X50156Y13081D2*
X51010D1*
X52840D2*
X53691D1*
X50163Y13051D2*
X51001D1*
X51587D2*
X52215D1*
X52828D2*
X53685D1*
X50171Y13021D2*
X50974D1*
X51545D2*
X52270D1*
X52813D2*
X53678D1*
X50177Y12991D2*
X50937D1*
X51515D2*
X52311D1*
X52872D2*
X53670D1*
X50183Y12961D2*
X50890D1*
X51505D2*
X52324D1*
X52928D2*
X53662D1*
X50192Y12931D2*
X50841D1*
X51500D2*
X52330D1*
X52980D2*
X53655D1*
X50200Y12901D2*
X50795D1*
X51498D2*
X52333D1*
X53027D2*
X53648D1*
X50207Y12871D2*
X50752D1*
X51078D2*
X51108D1*
X51497D2*
X52334D1*
X52754D2*
D3*
X53070D2*
X53640D1*
X50213Y12841D2*
X50709D1*
X51023D2*
X51128D1*
X51497D2*
X52335D1*
X52727D2*
X52813D1*
X53111D2*
X53631D1*
X50223Y12811D2*
X50666D1*
X50972D2*
X51149D1*
X51497D2*
X52335D1*
X52702D2*
X52858D1*
X53152D2*
X53621D1*
X50235Y12781D2*
X50624D1*
X50925D2*
X51173D1*
X51497D2*
X52335D1*
X52677D2*
X52905D1*
X53191D2*
X53611D1*
X50249Y12751D2*
X50587D1*
X50881D2*
X51200D1*
X51497D2*
X52335D1*
X52651D2*
X52948D1*
X53227D2*
X53601D1*
X50263Y12721D2*
X50556D1*
X50840D2*
X51230D1*
X51497D2*
X52335D1*
X52625D2*
X52987D1*
X53260D2*
X53592D1*
X50277Y12692D2*
X50527D1*
X50798D2*
X51263D1*
X51497D2*
X52335D1*
X52595D2*
X53025D1*
X53291D2*
X53580D1*
X50289Y12662D2*
X50495D1*
X50756D2*
X51300D1*
X51497D2*
X52335D1*
X52559D2*
X53064D1*
X53322D2*
X53567D1*
X50299Y12632D2*
X50463D1*
X50717D2*
X51340D1*
X51495D2*
X52335D1*
X52519D2*
X53102D1*
X53352D2*
X53553D1*
X50311Y12602D2*
X50436D1*
X50683D2*
X51384D1*
X51489D2*
X52336D1*
X52476D2*
X53138D1*
X53382D2*
X53539D1*
X50325Y12572D2*
X50412D1*
X50651D2*
X51438D1*
X51466D2*
X52341D1*
X52431D2*
X53170D1*
X53412D2*
X53525D1*
X50342Y12542D2*
X50386D1*
X50620D2*
X52351D1*
X52384D2*
X53202D1*
X53442D2*
X53512D1*
X50360Y12512D2*
D3*
X50591D2*
X53232D1*
X53472D2*
X53502D1*
X50564Y12482D2*
X53261D1*
X50537Y12452D2*
X53287D1*
X50508Y12422D2*
X53309D1*
X50479Y12392D2*
X53326D1*
X50450Y12362D2*
X53337D1*
X50475Y12333D2*
X53344D1*
X50498Y12303D2*
X53337D1*
X50520Y12273D2*
X53325D1*
X50544Y12243D2*
X53308D1*
X50571Y12213D2*
X51802D1*
X52024D2*
X53286D1*
X50599Y12183D2*
X51697D1*
X52146D2*
X53260D1*
X50626Y12153D2*
X51607D1*
X52246D2*
X53231D1*
X50652Y12123D2*
X51536D1*
X52322D2*
X53202D1*
X50682Y12093D2*
X51480D1*
X52380D2*
X53171D1*
X50715Y12063D2*
X51432D1*
X51826D2*
X52006D1*
X52429D2*
X53138D1*
X50751Y12033D2*
X51390D1*
X51733D2*
X52112D1*
X52471D2*
X53100D1*
X50790Y12003D2*
X51353D1*
X51656D2*
X52198D1*
X52508D2*
X53062D1*
X50829Y11973D2*
X51320D1*
X51594D2*
X52264D1*
X52542D2*
X53023D1*
X50870Y11944D2*
X51290D1*
X51545D2*
X52315D1*
X52572D2*
X52982D1*
X50914Y11914D2*
X51263D1*
X51505D2*
X52356D1*
X52599D2*
X52938D1*
X50961Y11884D2*
X51240D1*
X51470D2*
X52391D1*
X52622D2*
X52891D1*
X51009Y11854D2*
X51218D1*
X51439D2*
X52423D1*
X52644D2*
X52843D1*
X51058Y11824D2*
X51193D1*
X51409D2*
X52453D1*
X52668D2*
X52797D1*
X51108Y11794D2*
X51168D1*
X51384D2*
X52478D1*
X52694D2*
X52754D1*
X51364Y11764D2*
X52497D1*
X51357Y11734D2*
X52505D1*
X51401Y11704D2*
X52458D1*
X51473Y11674D2*
X52382D1*
X51580Y11644D2*
X52277D1*
X51706Y11614D2*
X52155D1*
X52365Y21787D2*
X52281Y21757D1*
X52204Y21727D1*
X52135Y21697D1*
X52074Y21668D1*
X52020Y21638D1*
X51972Y21608D1*
X51930Y21578D1*
X51892Y21548D1*
X51859Y21518D1*
X51827Y21488D1*
X51797Y21458D1*
X51768Y21428D1*
X51742Y21398D1*
X51720Y21368D1*
X51701Y21338D1*
X51685Y21309D1*
X51669Y21279D1*
X51653Y21249D1*
X51635Y21219D1*
X51617Y21189D1*
X51601Y21159D1*
X51588Y21129D1*
X51573Y21099D1*
X51557Y21069D1*
X52843Y21787D2*
X52931Y21757D1*
X53008Y21727D1*
X53076Y21697D1*
X53139Y21668D1*
X53195Y21638D1*
X53244Y21608D1*
X53285Y21578D1*
X53322Y21548D1*
X53358Y21518D1*
X53389Y21488D1*
X53417Y21458D1*
X53444Y21428D1*
X53472Y21398D1*
X53497Y21368D1*
X53518Y21338D1*
X53537Y21309D1*
X53554Y21279D1*
X53572Y21249D1*
X53591Y21219D1*
X53607Y21189D1*
X53619Y21159D1*
X53631Y21129D1*
X53641Y21099D1*
X53651Y21069D1*
X53661Y21039D1*
X53670Y21009D1*
X53676Y20979D1*
X53679Y20949D1*
X53681Y20920D1*
X50151Y21638D2*
Y21608D1*
Y21578D1*
Y21548D1*
Y21518D1*
Y21488D1*
Y21458D1*
Y21428D1*
Y21398D1*
Y21368D1*
Y21338D1*
Y21309D1*
Y21279D1*
Y21249D1*
Y21219D1*
Y21189D1*
Y21159D1*
Y21129D1*
Y21099D1*
Y21069D1*
Y21039D1*
Y21009D1*
Y20979D1*
Y20949D1*
Y20920D1*
X50958Y21638D2*
Y21608D1*
Y21578D1*
Y21548D1*
Y21518D1*
Y21488D1*
Y21458D1*
Y21428D1*
Y21398D1*
Y21368D1*
Y21338D1*
Y21309D1*
Y21279D1*
Y21249D1*
Y21219D1*
Y21189D1*
Y21159D1*
Y21129D1*
Y21099D1*
Y21069D1*
Y21039D1*
Y21009D1*
X50718Y20979D1*
X50491Y20949D1*
X50270Y20920D1*
X52365Y21069D2*
X52395Y21039D1*
X52574D2*
X52848Y21009D1*
X53099Y20979D1*
X53333Y20949D1*
X53561Y20920D1*
X51587Y20890D2*
X51555Y20860D1*
X51530Y20830D1*
X51513Y20800D1*
X51504Y20770D1*
X51500Y20740D1*
X51498Y20710D1*
X51497Y20680D1*
Y20650D1*
Y20620D1*
Y20590D1*
Y20561D1*
Y20531D1*
Y20501D1*
Y20471D1*
Y20441D1*
Y20411D1*
Y20381D1*
Y20351D1*
Y20321D1*
Y20291D1*
Y20261D1*
Y20231D1*
Y20201D1*
Y20172D1*
Y20142D1*
Y20112D1*
Y20082D1*
Y20052D1*
Y20022D1*
Y19992D1*
Y19962D1*
Y19932D1*
Y19902D1*
Y19872D1*
Y19842D1*
Y19813D1*
Y19783D1*
Y19753D1*
X51496Y19723D1*
X51492Y19693D1*
X51483Y19663D1*
X51470Y19633D1*
X51451Y19603D1*
X51405Y19573D1*
X51337Y19543D1*
X51244Y19513D1*
X51138Y19483D1*
X52215Y20890D2*
Y20860D1*
X52784D2*
X53025Y20830D1*
X53250Y20800D1*
X53437Y20770D1*
X53569Y20740D1*
X53661Y20710D1*
X53692Y20680D1*
X53702Y20650D1*
X53708Y20620D1*
X53710Y20590D1*
X53711Y20561D1*
Y20531D1*
Y20501D1*
Y20471D1*
Y20441D1*
Y20411D1*
Y20381D1*
Y20351D1*
Y20321D1*
Y20291D1*
Y20261D1*
Y20231D1*
Y20201D1*
Y20172D1*
Y20142D1*
Y20112D1*
Y20082D1*
Y20052D1*
Y20022D1*
Y19992D1*
Y19962D1*
Y19932D1*
Y19902D1*
Y19872D1*
Y19842D1*
Y19813D1*
Y19783D1*
Y19753D1*
Y19723D1*
Y19693D1*
Y19663D1*
Y19633D1*
Y19603D1*
Y19573D1*
Y19543D1*
Y19513D1*
Y19483D1*
Y19453D1*
Y19424D1*
Y19394D1*
Y19364D1*
Y19334D1*
Y19304D1*
Y19274D1*
Y19244D1*
Y19214D1*
X50809Y20830D2*
X50577Y20800D1*
X50360Y20770D1*
X50151Y20740D1*
Y20710D1*
Y20680D1*
Y20650D1*
Y20620D1*
Y20590D1*
Y20561D1*
Y20531D1*
Y20501D1*
Y20471D1*
Y20441D1*
Y20411D1*
Y20381D1*
Y20351D1*
Y20321D1*
Y20291D1*
Y20261D1*
Y20231D1*
Y20201D1*
Y20172D1*
Y20142D1*
Y20112D1*
Y20082D1*
Y20052D1*
Y20022D1*
Y19992D1*
Y19962D1*
Y19932D1*
Y19902D1*
Y19872D1*
Y19842D1*
Y19813D1*
Y19783D1*
Y19753D1*
Y19723D1*
Y19693D1*
Y19663D1*
Y19633D1*
Y19603D1*
Y19573D1*
Y19543D1*
Y19513D1*
Y19483D1*
Y19453D1*
Y19424D1*
Y19394D1*
Y19364D1*
X50152Y19334D1*
X50156Y19304D1*
X50167Y19274D1*
X50181Y19244D1*
X50958Y20830D2*
Y20800D1*
Y20770D1*
Y20740D1*
Y20710D1*
Y20680D1*
Y20650D1*
Y20620D1*
Y20590D1*
Y20561D1*
Y20531D1*
Y20501D1*
Y20471D1*
Y20441D1*
Y20411D1*
Y20381D1*
Y20351D1*
Y20321D1*
Y20291D1*
Y20261D1*
Y20231D1*
Y20201D1*
Y20172D1*
Y20142D1*
Y20112D1*
Y20082D1*
Y20052D1*
Y20022D1*
Y19992D1*
Y19962D1*
Y19932D1*
Y19902D1*
Y19872D1*
Y19842D1*
X50959Y19813D1*
X50960Y19783D1*
X50964Y19753D1*
X50972Y19723D1*
X50983Y19693D1*
X50997Y19663D1*
X51014Y19633D1*
X51034Y19603D1*
X51080Y19573D1*
X51149Y19543D1*
X51242Y19513D1*
X51347Y19483D1*
X52574Y20770D2*
X52520Y20740D1*
X52473Y20710D1*
X52434Y20680D1*
X52404Y20650D1*
X52383Y20620D1*
X52369Y20590D1*
X52356Y20561D1*
X52346Y20531D1*
X52340Y20501D1*
X52337Y20471D1*
X52336Y20441D1*
X52335Y20411D1*
Y20381D1*
Y20351D1*
Y20321D1*
Y20291D1*
Y20261D1*
Y20231D1*
Y20201D1*
Y20172D1*
Y20142D1*
Y20112D1*
Y20082D1*
Y20052D1*
Y20022D1*
Y19992D1*
Y19962D1*
Y19932D1*
Y19902D1*
Y19872D1*
Y19842D1*
Y19813D1*
Y19783D1*
Y19753D1*
Y19723D1*
Y19693D1*
Y19663D1*
Y19633D1*
Y19603D1*
Y19573D1*
Y19543D1*
Y19513D1*
Y19483D1*
Y19453D1*
Y19424D1*
Y19394D1*
X52634Y20770D2*
X52691Y20740D1*
X52742Y20710D1*
X52782Y20680D1*
X52810Y20650D1*
X52831Y20620D1*
X52848Y20590D1*
X52860Y20561D1*
X52867Y20531D1*
X52871Y20501D1*
X52872Y20471D1*
X52873Y20441D1*
Y20411D1*
Y20381D1*
Y20351D1*
Y20321D1*
Y20291D1*
Y20261D1*
Y20231D1*
Y20201D1*
Y20172D1*
Y20142D1*
Y20112D1*
Y20082D1*
Y20052D1*
Y20022D1*
Y19992D1*
Y19962D1*
Y19932D1*
Y19902D1*
Y19872D1*
Y19842D1*
Y19813D1*
Y19783D1*
Y19753D1*
Y19723D1*
Y19693D1*
Y19663D1*
Y19633D1*
Y19603D1*
Y19573D1*
Y19543D1*
Y19513D1*
Y19483D1*
X52874Y19453D1*
X52876Y19424D1*
X52881Y19394D1*
X52960Y19364D1*
X53075Y19334D1*
X53218Y19304D1*
X53374Y19274D1*
X53541Y19244D1*
X53711Y19214D1*
X51677Y19424D2*
X51647Y19394D1*
X52155Y19424D2*
X52185Y19394D1*
X51407D2*
X51125Y19364D1*
X50868Y19334D1*
X50647Y19304D1*
X50454Y19274D1*
X50270Y19244D1*
X51198Y19214D2*
X50955Y19184D1*
X50738Y19154D1*
X50553Y19124D1*
X50412Y19094D1*
X50315Y19065D1*
X50240Y19035D1*
X50260Y19005D1*
X50280Y18975D1*
X50300Y18945D1*
X50320Y18915D1*
X50341Y18885D1*
X50365Y18855D1*
X50392Y18825D1*
X50421Y18795D1*
X50450Y18765D1*
X50480Y18735D1*
X50511Y18705D1*
X50545Y18676D1*
X50583Y18646D1*
X50627Y18616D1*
X50677Y18586D1*
X50734Y18556D1*
X50799Y18526D1*
X50881Y18496D1*
X50987Y18466D1*
X51108Y18436D1*
X52275Y19214D2*
X52274Y19184D1*
X52269Y19154D1*
X52258Y19124D1*
X52242Y19094D1*
X52225Y19065D1*
X52209Y19035D1*
X52193Y19005D1*
X52178Y18975D1*
X52162Y18945D1*
X52143Y18915D1*
X52121Y18885D1*
X52098Y18855D1*
X52077Y18825D1*
X52055Y18795D1*
X52029Y18765D1*
X51999Y18735D1*
X51963Y18705D1*
X51924Y18676D1*
X51884Y18646D1*
X51840Y18616D1*
X51790Y18586D1*
X51736Y18556D1*
X51674Y18526D1*
X51594Y18496D1*
X51491Y18466D1*
X51377Y18436D1*
X52873Y19184D2*
Y19154D1*
Y19124D1*
Y19094D1*
Y19065D1*
Y19035D1*
Y19005D1*
Y18975D1*
Y18945D1*
Y18915D1*
Y18885D1*
Y18855D1*
Y18825D1*
Y18795D1*
Y18765D1*
Y18735D1*
Y18705D1*
Y18676D1*
Y18646D1*
Y18616D1*
Y18586D1*
Y18556D1*
Y18526D1*
Y18496D1*
Y18466D1*
Y18436D1*
Y18406D1*
X52933Y19184D2*
X53121Y19154D1*
X53301Y19124D1*
X53457Y19094D1*
X53573Y19065D1*
X53658Y19035D1*
X53691Y19005D1*
X53702Y18975D1*
X53707Y18945D1*
X53710Y18915D1*
X53711Y18885D1*
Y18855D1*
Y18825D1*
Y18795D1*
Y18765D1*
Y18735D1*
Y18705D1*
Y18676D1*
Y18646D1*
Y18616D1*
Y18586D1*
Y18556D1*
Y18526D1*
Y18496D1*
Y18466D1*
Y18436D1*
Y18406D1*
Y18376D1*
Y18346D1*
Y18317D1*
Y18287D1*
Y18257D1*
Y18227D1*
Y18197D1*
Y18167D1*
Y18137D1*
Y18107D1*
Y18077D1*
Y18047D1*
Y18017D1*
Y17987D1*
Y17957D1*
Y17928D1*
Y17898D1*
Y17868D1*
Y17838D1*
Y17808D1*
Y17778D1*
Y17748D1*
Y17718D1*
Y17688D1*
Y17658D1*
Y17628D1*
Y17598D1*
Y17569D1*
Y17539D1*
Y17509D1*
Y17479D1*
Y17449D1*
X52365Y18406D2*
X52281Y18376D1*
X52204Y18346D1*
X52135Y18317D1*
X52074Y18287D1*
X52020Y18257D1*
X51972Y18227D1*
X51930Y18197D1*
X51892Y18167D1*
X51859Y18137D1*
X51827Y18107D1*
X51797Y18077D1*
X51768Y18047D1*
X51742Y18017D1*
X51720Y17987D1*
X51701Y17957D1*
X51684Y17928D1*
X51665Y17898D1*
X51646Y17868D1*
X51628Y17838D1*
X51612Y17808D1*
X51599Y17778D1*
X51587Y17748D1*
X51573Y17718D1*
X51557Y17688D1*
X50151Y18257D2*
Y18227D1*
Y18197D1*
Y18167D1*
Y18137D1*
Y18107D1*
Y18077D1*
Y18047D1*
Y18017D1*
Y17987D1*
Y17957D1*
Y17928D1*
Y17898D1*
Y17868D1*
Y17838D1*
Y17808D1*
Y17778D1*
Y17748D1*
Y17718D1*
Y17688D1*
Y17658D1*
Y17628D1*
Y17598D1*
Y17569D1*
Y17539D1*
Y17509D1*
Y17479D1*
X50958Y18257D2*
Y18227D1*
Y18197D1*
Y18167D1*
Y18137D1*
Y18107D1*
Y18077D1*
Y18047D1*
Y18017D1*
Y17987D1*
Y17957D1*
Y17928D1*
Y17898D1*
Y17868D1*
Y17838D1*
Y17808D1*
Y17778D1*
Y17748D1*
X50957Y17718D1*
X50953Y17688D1*
X50930Y17658D1*
X50855Y17628D1*
X50747Y17598D1*
X50613Y17569D1*
X50469Y17539D1*
X50325Y17509D1*
X50181Y17479D1*
X51677Y17718D2*
X51647Y17688D1*
X52125Y17718D2*
X52155Y17688D1*
X52395D2*
X52617Y17658D1*
X52823Y17628D1*
X53010Y17598D1*
X53181Y17569D1*
X53336Y17539D1*
X53474Y17509D1*
X53596Y17479D1*
X53711Y17449D1*
X51527Y17509D2*
X51517Y17479D1*
X51508Y17449D1*
X51502Y17419D1*
X51499Y17389D1*
X51498Y17359D1*
X51497Y17329D1*
Y17299D1*
Y17269D1*
Y17239D1*
Y17209D1*
Y17180D1*
Y17150D1*
Y17120D1*
Y17090D1*
Y17060D1*
Y17030D1*
Y17000D1*
Y16970D1*
Y16940D1*
Y16910D1*
Y16880D1*
Y16850D1*
Y16821D1*
Y16791D1*
Y16761D1*
Y16731D1*
Y16701D1*
Y16671D1*
Y16641D1*
Y16611D1*
Y16581D1*
Y16551D1*
Y16521D1*
Y16491D1*
Y16461D1*
Y16432D1*
Y16402D1*
Y16372D1*
X51496Y16342D1*
X51491Y16312D1*
X51479Y16282D1*
X51458Y16252D1*
X51431Y16222D1*
X51361Y16192D1*
X51248Y16162D1*
X51108Y16132D1*
X52544Y17509D2*
X52744Y17479D1*
X52939Y17449D1*
X53120Y17419D1*
X53280Y17389D1*
X53416Y17359D1*
X53527Y17329D1*
X53609Y17299D1*
X53671Y17269D1*
X53695Y17239D1*
X53704Y17209D1*
X53708Y17180D1*
X53710Y17150D1*
X53711Y17120D1*
Y17090D1*
Y17060D1*
Y17030D1*
Y17000D1*
Y16970D1*
Y16940D1*
Y16910D1*
Y16880D1*
Y16850D1*
Y16821D1*
Y16791D1*
Y16761D1*
Y16731D1*
Y16701D1*
Y16671D1*
Y16641D1*
Y16611D1*
Y16581D1*
Y16551D1*
Y16521D1*
Y16491D1*
Y16461D1*
Y16432D1*
Y16402D1*
Y16372D1*
Y16342D1*
Y16312D1*
Y16282D1*
Y16252D1*
Y16222D1*
Y16192D1*
Y16162D1*
Y16132D1*
Y16102D1*
Y16073D1*
Y16043D1*
Y16013D1*
Y15983D1*
Y15953D1*
Y15923D1*
Y15893D1*
Y15863D1*
Y15833D1*
Y15803D1*
Y15773D1*
Y15743D1*
X50869Y17449D2*
X50693Y17419D1*
X50533Y17389D1*
X50395Y17359D1*
X50288Y17329D1*
X50207Y17299D1*
X50173Y17269D1*
X50161Y17239D1*
X50155Y17209D1*
X50152Y17180D1*
X50151Y17150D1*
Y17120D1*
Y17090D1*
Y17060D1*
Y17030D1*
Y17000D1*
Y16970D1*
Y16940D1*
Y16910D1*
Y16880D1*
Y16850D1*
Y16821D1*
Y16791D1*
Y16761D1*
Y16731D1*
Y16701D1*
Y16671D1*
Y16641D1*
Y16611D1*
Y16581D1*
Y16551D1*
Y16521D1*
Y16491D1*
Y16461D1*
Y16432D1*
Y16402D1*
Y16372D1*
Y16342D1*
Y16312D1*
Y16282D1*
Y16252D1*
Y16222D1*
Y16192D1*
Y16162D1*
Y16132D1*
Y16102D1*
Y16073D1*
Y16043D1*
Y16013D1*
Y15983D1*
X50152Y15953D1*
X50156Y15923D1*
X50164Y15893D1*
X50176Y15863D1*
X50192Y15833D1*
X50210Y15803D1*
X50958Y17449D2*
Y17419D1*
Y17389D1*
Y17359D1*
Y17329D1*
Y17299D1*
Y17269D1*
Y17239D1*
Y17209D1*
Y17180D1*
Y17150D1*
Y17120D1*
Y17090D1*
Y17060D1*
Y17030D1*
Y17000D1*
Y16970D1*
Y16940D1*
Y16910D1*
Y16880D1*
Y16850D1*
Y16821D1*
Y16791D1*
Y16761D1*
Y16731D1*
Y16701D1*
Y16671D1*
Y16641D1*
Y16611D1*
Y16581D1*
Y16551D1*
Y16521D1*
Y16491D1*
Y16461D1*
X50959Y16432D1*
X50960Y16402D1*
X50964Y16372D1*
X50972Y16342D1*
X50985Y16312D1*
X51002Y16282D1*
X51025Y16252D1*
X51054Y16222D1*
X51124Y16192D1*
X51237Y16162D1*
X51377Y16132D1*
X52574Y17389D2*
X52520Y17359D1*
X52473Y17329D1*
X52434Y17299D1*
X52404Y17269D1*
X52383Y17239D1*
X52369Y17209D1*
X52356Y17180D1*
X52346Y17150D1*
X52340Y17120D1*
X52337Y17090D1*
X52336Y17060D1*
X52335Y17030D1*
Y17000D1*
Y16970D1*
Y16940D1*
Y16910D1*
Y16880D1*
Y16850D1*
Y16821D1*
Y16791D1*
Y16761D1*
Y16731D1*
Y16701D1*
Y16671D1*
Y16641D1*
Y16611D1*
Y16581D1*
Y16551D1*
Y16521D1*
Y16491D1*
Y16461D1*
Y16432D1*
Y16402D1*
Y16372D1*
Y16342D1*
Y16312D1*
Y16282D1*
Y16252D1*
Y16222D1*
Y16192D1*
Y16162D1*
Y16132D1*
Y16102D1*
Y16073D1*
Y16043D1*
X52604Y17389D2*
X52681Y17359D1*
X52742Y17329D1*
X52784Y17299D1*
X52812Y17269D1*
X52832Y17239D1*
X52848Y17209D1*
X52860Y17180D1*
X52867Y17150D1*
X52871Y17120D1*
X52872Y17090D1*
X52873Y17060D1*
Y17030D1*
Y17000D1*
Y16970D1*
Y16940D1*
Y16910D1*
Y16880D1*
Y16850D1*
Y16821D1*
Y16791D1*
Y16761D1*
Y16731D1*
Y16701D1*
Y16671D1*
Y16641D1*
Y16611D1*
Y16581D1*
Y16551D1*
Y16521D1*
Y16491D1*
Y16461D1*
Y16432D1*
Y16402D1*
Y16372D1*
Y16342D1*
Y16312D1*
Y16282D1*
Y16252D1*
Y16222D1*
Y16192D1*
Y16162D1*
Y16132D1*
Y16102D1*
X52874Y16073D1*
X52875Y16043D1*
X52890Y16013D1*
X52944Y15983D1*
X53021Y15953D1*
X53113Y15923D1*
X53213Y15893D1*
X53315Y15863D1*
X53417Y15833D1*
X53513Y15803D1*
X53600Y15773D1*
X53681Y15743D1*
X51796Y16073D2*
X51521Y16043D1*
X51274Y16013D1*
X51065Y15983D1*
X50894Y15953D1*
X50753Y15923D1*
X50629Y15893D1*
X50514Y15863D1*
X50405Y15833D1*
X50300Y15803D1*
X52275Y16073D2*
X52305Y16043D1*
X51587Y15893D2*
X51336Y15863D1*
X51125Y15833D1*
X50954Y15803D1*
X50808Y15773D1*
X50679Y15743D1*
X50565Y15713D1*
X50469Y15684D1*
X50395Y15654D1*
X50339Y15624D1*
X50312Y15594D1*
X50317Y15564D1*
X50328Y15534D1*
X50344Y15504D1*
X50367Y15474D1*
X50393Y15444D1*
X50421Y15414D1*
X50450Y15384D1*
X50480Y15354D1*
X50511Y15325D1*
X50546Y15295D1*
X50588Y15265D1*
X50637Y15235D1*
X50689Y15205D1*
X50745Y15175D1*
X50813Y15145D1*
X50906Y15115D1*
X51028Y15085D1*
X51168Y15055D1*
X52215Y15893D2*
X52305Y15863D1*
X52291Y15833D1*
X52281Y15803D1*
X52272Y15773D1*
X52259Y15743D1*
X52242Y15713D1*
X52225Y15684D1*
X52209Y15654D1*
X52193Y15624D1*
X52178Y15594D1*
X52162Y15564D1*
X52143Y15534D1*
X52121Y15504D1*
X52097Y15474D1*
X52072Y15444D1*
X52043Y15414D1*
X52011Y15384D1*
X51978Y15354D1*
X51947Y15325D1*
X51915Y15295D1*
X51880Y15265D1*
X51838Y15235D1*
X51788Y15205D1*
X51730Y15175D1*
X51660Y15145D1*
X51568Y15115D1*
X51450Y15085D1*
X51317Y15055D1*
X52873Y15803D2*
Y15773D1*
Y15743D1*
Y15713D1*
Y15684D1*
Y15654D1*
Y15624D1*
Y15594D1*
Y15564D1*
Y15534D1*
Y15504D1*
Y15474D1*
Y15444D1*
Y15414D1*
Y15384D1*
Y15354D1*
Y15325D1*
Y15295D1*
Y15265D1*
Y15235D1*
Y15205D1*
Y15175D1*
Y15145D1*
Y15115D1*
Y15085D1*
Y15055D1*
Y15025D1*
Y14995D1*
Y14965D1*
Y14936D1*
Y14906D1*
Y14876D1*
Y14846D1*
Y14816D1*
Y14786D1*
Y14756D1*
Y14726D1*
Y14696D1*
Y14666D1*
Y14636D1*
X52875Y14606D1*
X52879Y14577D1*
X52901Y14547D1*
X52958Y14517D1*
X53032Y14487D1*
X53114Y14457D1*
X53193Y14427D1*
X53267Y14397D1*
X53336Y14367D1*
X53403Y14337D1*
X53466Y14307D1*
X53525Y14277D1*
X53578Y14247D1*
X53630Y14217D1*
X53681Y14188D1*
X52933Y15803D2*
X53039Y15773D1*
X53149Y15743D1*
X53258Y15713D1*
X53360Y15684D1*
X53451Y15654D1*
X53535Y15624D1*
X53606Y15594D1*
X53666Y15564D1*
X53693Y15534D1*
X53703Y15504D1*
X53708Y15474D1*
X53710Y15444D1*
X53711Y15414D1*
Y15384D1*
Y15354D1*
Y15325D1*
Y15295D1*
Y15265D1*
Y15235D1*
Y15205D1*
Y15175D1*
Y15145D1*
Y15115D1*
Y15085D1*
Y15055D1*
Y15025D1*
Y14995D1*
Y14965D1*
Y14936D1*
Y14906D1*
Y14876D1*
Y14846D1*
Y14816D1*
Y14786D1*
Y14756D1*
Y14726D1*
Y14696D1*
Y14666D1*
Y14636D1*
Y14606D1*
Y14577D1*
Y14547D1*
Y14517D1*
Y14487D1*
Y14457D1*
Y14427D1*
Y14397D1*
Y14367D1*
Y14337D1*
Y14307D1*
Y14277D1*
Y14247D1*
Y14217D1*
Y14188D1*
X50151Y14846D2*
Y14816D1*
Y14786D1*
Y14756D1*
Y14726D1*
Y14696D1*
Y14666D1*
Y14636D1*
Y14606D1*
Y14577D1*
Y14547D1*
Y14517D1*
Y14487D1*
Y14457D1*
Y14427D1*
Y14397D1*
Y14367D1*
Y14337D1*
Y14307D1*
Y14277D1*
Y14247D1*
Y14217D1*
X50958Y14846D2*
Y14816D1*
Y14786D1*
Y14756D1*
Y14726D1*
Y14696D1*
Y14666D1*
Y14636D1*
X50956Y14606D1*
X50950Y14577D1*
X50923Y14547D1*
X50866Y14517D1*
X50794Y14487D1*
X50714Y14457D1*
X50633Y14427D1*
X50557Y14397D1*
X50488Y14367D1*
X50422Y14337D1*
X50358Y14307D1*
X50294Y14277D1*
X50235Y14247D1*
X50181Y14217D1*
X51497Y14457D2*
Y14427D1*
Y14397D1*
Y14367D1*
Y14337D1*
Y14307D1*
Y14277D1*
Y14247D1*
Y14217D1*
Y14188D1*
Y14158D1*
Y14128D1*
Y14098D1*
Y14068D1*
Y14038D1*
Y14008D1*
Y13978D1*
Y13948D1*
Y13918D1*
Y13888D1*
Y13858D1*
Y13829D1*
Y13799D1*
Y13769D1*
Y13739D1*
Y13709D1*
Y13679D1*
Y13649D1*
Y13619D1*
Y13589D1*
Y13559D1*
Y13529D1*
Y13499D1*
Y13469D1*
Y13440D1*
Y13410D1*
Y13380D1*
Y13350D1*
Y13320D1*
Y13290D1*
Y13260D1*
Y13230D1*
Y13200D1*
X52335Y14457D2*
Y14427D1*
Y14397D1*
Y14367D1*
Y14337D1*
Y14307D1*
Y14277D1*
Y14247D1*
Y14217D1*
Y14188D1*
Y14158D1*
Y14128D1*
Y14098D1*
Y14068D1*
Y14038D1*
Y14008D1*
Y13978D1*
Y13948D1*
Y13918D1*
Y13888D1*
Y13858D1*
Y13829D1*
Y13799D1*
Y13769D1*
Y13739D1*
Y13709D1*
Y13679D1*
Y13649D1*
Y13619D1*
Y13589D1*
Y13559D1*
Y13529D1*
Y13499D1*
Y13469D1*
Y13440D1*
Y13410D1*
Y13380D1*
Y13350D1*
Y13320D1*
Y13290D1*
Y13260D1*
Y13230D1*
Y13200D1*
X50929Y14367D2*
X50840Y14337D1*
X50755Y14307D1*
X50677Y14277D1*
X50603Y14247D1*
X50531Y14217D1*
X50462Y14188D1*
X50400Y14158D1*
X50345Y14128D1*
X50292Y14098D1*
X50243Y14068D1*
X50203Y14038D1*
X50172Y14008D1*
X50161Y13978D1*
X50155Y13948D1*
X50152Y13918D1*
X50151Y13888D1*
Y13858D1*
Y13829D1*
Y13799D1*
Y13769D1*
Y13739D1*
Y13709D1*
Y13679D1*
Y13649D1*
Y13619D1*
Y13589D1*
Y13559D1*
Y13529D1*
Y13499D1*
Y13469D1*
Y13440D1*
Y13410D1*
Y13380D1*
Y13350D1*
Y13320D1*
Y13290D1*
Y13260D1*
Y13230D1*
Y13200D1*
Y13170D1*
Y13140D1*
X50152Y13110D1*
X50156Y13081D1*
X50163Y13051D1*
X50171Y13021D1*
X50177Y12991D1*
X50183Y12961D1*
X50192Y12931D1*
X50200Y12901D1*
X50207Y12871D1*
X50213Y12841D1*
X50223Y12811D1*
X50235Y12781D1*
X50249Y12751D1*
X50263Y12721D1*
X50277Y12692D1*
X50289Y12662D1*
X50299Y12632D1*
X50311Y12602D1*
X50325Y12572D1*
X50342Y12542D1*
X50360Y12512D1*
X50958Y14367D2*
Y14337D1*
Y14307D1*
Y14277D1*
Y14247D1*
Y14217D1*
Y14188D1*
Y14158D1*
Y14128D1*
Y14098D1*
Y14068D1*
Y14038D1*
Y14008D1*
Y13978D1*
Y13948D1*
Y13918D1*
Y13888D1*
Y13858D1*
Y13829D1*
Y13799D1*
Y13769D1*
Y13739D1*
Y13709D1*
Y13679D1*
Y13649D1*
Y13619D1*
Y13589D1*
Y13559D1*
Y13529D1*
Y13499D1*
Y13469D1*
Y13440D1*
Y13410D1*
Y13380D1*
Y13350D1*
X50959Y13320D1*
X50960Y13290D1*
X50963Y13260D1*
X50971Y13230D1*
X50979Y13200D1*
X50988Y13170D1*
X50998Y13140D1*
X51006Y13110D1*
X51010Y13081D1*
X51001Y13051D1*
X50974Y13021D1*
X50937Y12991D1*
X50890Y12961D1*
X50841Y12931D1*
X50795Y12901D1*
X50752Y12871D1*
X50709Y12841D1*
X50666Y12811D1*
X50624Y12781D1*
X50587Y12751D1*
X50556Y12721D1*
X50527Y12692D1*
X50495Y12662D1*
X50463Y12632D1*
X50436Y12602D1*
X50412Y12572D1*
X50386Y12542D1*
X50360Y12512D1*
X52873Y14367D2*
Y14337D1*
Y14307D1*
Y14277D1*
Y14247D1*
Y14217D1*
Y14188D1*
Y14158D1*
Y14128D1*
Y14098D1*
Y14068D1*
Y14038D1*
Y14008D1*
Y13978D1*
Y13948D1*
Y13918D1*
Y13888D1*
Y13858D1*
Y13829D1*
Y13799D1*
Y13769D1*
Y13739D1*
Y13709D1*
Y13679D1*
Y13649D1*
Y13619D1*
Y13589D1*
Y13559D1*
Y13529D1*
Y13499D1*
Y13469D1*
Y13440D1*
Y13410D1*
Y13380D1*
Y13350D1*
Y13320D1*
Y13290D1*
Y13260D1*
X52872Y13230D1*
X52868Y13200D1*
X52861Y13170D1*
X52853Y13140D1*
X52847Y13110D1*
X52840Y13081D1*
X52828Y13051D1*
X52813Y13021D1*
X52872Y12991D1*
X52928Y12961D1*
X52980Y12931D1*
X53027Y12901D1*
X53070Y12871D1*
X53111Y12841D1*
X53152Y12811D1*
X53191Y12781D1*
X53227Y12751D1*
X53260Y12721D1*
X53291Y12692D1*
X53322Y12662D1*
X53352Y12632D1*
X53382Y12602D1*
X53412Y12572D1*
X53442Y12542D1*
X53472Y12512D1*
X52993Y14337D2*
X53068Y14307D1*
X53140Y14277D1*
X53212Y14247D1*
X53282Y14217D1*
X53350Y14188D1*
X53416Y14158D1*
X53474Y14128D1*
X53524Y14098D1*
X53573Y14068D1*
X53620Y14038D1*
X53659Y14008D1*
X53690Y13978D1*
X53701Y13948D1*
X53707Y13918D1*
X53709Y13888D1*
X53710Y13858D1*
X53711Y13829D1*
Y13799D1*
Y13769D1*
Y13739D1*
Y13709D1*
Y13679D1*
Y13649D1*
Y13619D1*
Y13589D1*
Y13559D1*
Y13529D1*
Y13499D1*
Y13469D1*
Y13440D1*
Y13410D1*
Y13380D1*
Y13350D1*
Y13320D1*
Y13290D1*
Y13260D1*
Y13230D1*
Y13200D1*
X53710Y13170D1*
X53706Y13140D1*
X53699Y13110D1*
X53691Y13081D1*
X53685Y13051D1*
X53678Y13021D1*
X53670Y12991D1*
X53662Y12961D1*
X53655Y12931D1*
X53648Y12901D1*
X53640Y12871D1*
X53631Y12841D1*
X53621Y12811D1*
X53611Y12781D1*
X53601Y12751D1*
X53592Y12721D1*
X53580Y12692D1*
X53567Y12662D1*
X53553Y12632D1*
X53539Y12602D1*
X53525Y12572D1*
X53512Y12542D1*
X53502Y12512D1*
X52185Y13260D2*
X51856Y13230D1*
X51527Y13200D1*
X51677Y13260D2*
X51976Y13230D1*
X52275Y13200D1*
X51587Y13051D2*
X51545Y13021D1*
X51515Y12991D1*
X51505Y12961D1*
X51500Y12931D1*
X51498Y12901D1*
X51497Y12871D1*
Y12841D1*
Y12811D1*
Y12781D1*
Y12751D1*
Y12721D1*
Y12692D1*
Y12662D1*
X51495Y12632D1*
X51489Y12602D1*
X51466Y12572D1*
X51437Y12542D1*
X52215Y13051D2*
X52270Y13021D1*
X52311Y12991D1*
X52324Y12961D1*
X52330Y12931D1*
X52333Y12901D1*
X52334Y12871D1*
X52335Y12841D1*
Y12811D1*
Y12781D1*
Y12751D1*
Y12721D1*
Y12692D1*
Y12662D1*
Y12632D1*
X52336Y12602D1*
X52341Y12572D1*
X52351Y12542D1*
X52365Y12512D1*
X51078Y12871D2*
X51023Y12841D1*
X50972Y12811D1*
X50925Y12781D1*
X50881Y12751D1*
X50840Y12721D1*
X50798Y12692D1*
X50756Y12662D1*
X50717Y12632D1*
X50683Y12602D1*
X50651Y12572D1*
X50620Y12542D1*
X50591Y12512D1*
X50564Y12482D1*
X50537Y12452D1*
X50508Y12422D1*
X50479Y12392D1*
X50450Y12362D1*
X50475Y12333D1*
X50498Y12303D1*
X50520Y12273D1*
X50544Y12243D1*
X50571Y12213D1*
X50599Y12183D1*
X50626Y12153D1*
X50652Y12123D1*
X50682Y12093D1*
X50715Y12063D1*
X50751Y12033D1*
X50790Y12003D1*
X50829Y11973D1*
X50870Y11944D1*
X50914Y11914D1*
X50961Y11884D1*
X51009Y11854D1*
X51058Y11824D1*
X51108Y11794D1*
Y12871D2*
X51128Y12841D1*
X51149Y12811D1*
X51173Y12781D1*
X51200Y12751D1*
X51230Y12721D1*
X51263Y12692D1*
X51300Y12662D1*
X51340Y12632D1*
X51384Y12602D1*
X51438Y12572D1*
X51497Y12542D1*
X52754Y12871D2*
X52727Y12841D1*
X52702Y12811D1*
X52677Y12781D1*
X52651Y12751D1*
X52625Y12721D1*
X52595Y12692D1*
X52559Y12662D1*
X52519Y12632D1*
X52476Y12602D1*
X52431Y12572D1*
X52384Y12542D1*
X52335Y12512D1*
X52813Y12841D2*
X52858Y12811D1*
X52905Y12781D1*
X52948Y12751D1*
X52987Y12721D1*
X53025Y12692D1*
X53064Y12662D1*
X53102Y12632D1*
X53138Y12602D1*
X53170Y12572D1*
X53202Y12542D1*
X53232Y12512D1*
X53261Y12482D1*
X53287Y12452D1*
X53309Y12422D1*
X53326Y12392D1*
X53337Y12362D1*
X53344Y12333D1*
X53337Y12303D1*
X53325Y12273D1*
X53308Y12243D1*
X53286Y12213D1*
X53260Y12183D1*
X53231Y12153D1*
X53202Y12123D1*
X53171Y12093D1*
X53138Y12063D1*
X53100Y12033D1*
X53062Y12003D1*
X53023Y11973D1*
X52982Y11944D1*
X52938Y11914D1*
X52891Y11884D1*
X52843Y11854D1*
X52797Y11824D1*
X52754Y11794D1*
X51916Y12243D2*
X51802Y12213D1*
X51697Y12183D1*
X51607Y12153D1*
X51536Y12123D1*
X51480Y12093D1*
X51432Y12063D1*
X51390Y12033D1*
X51353Y12003D1*
X51320Y11973D1*
X51290Y11944D1*
X51263Y11914D1*
X51240Y11884D1*
X51218Y11854D1*
X51193Y11824D1*
X51168Y11794D1*
X51886Y12243D2*
X52024Y12213D1*
X52146Y12183D1*
X52246Y12153D1*
X52322Y12123D1*
X52380Y12093D1*
X52429Y12063D1*
X52471Y12033D1*
X52508Y12003D1*
X52542Y11973D1*
X52572Y11944D1*
X52599Y11914D1*
X52622Y11884D1*
X52644Y11854D1*
X52668Y11824D1*
X52694Y11794D1*
X51826Y12063D2*
X51733Y12033D1*
X51656Y12003D1*
X51594Y11973D1*
X51545Y11944D1*
X51505Y11914D1*
X51470Y11884D1*
X51439Y11854D1*
X51409Y11824D1*
X51384Y11794D1*
X51364Y11764D1*
X51357Y11734D1*
X51401Y11704D1*
X51473Y11674D1*
X51580Y11644D1*
X51706Y11614D1*
X52006Y12063D2*
X52112Y12033D1*
X52198Y12003D1*
X52264Y11973D1*
X52315Y11944D1*
X52356Y11914D1*
X52391Y11884D1*
X52423Y11854D1*
X52453Y11824D1*
X52478Y11794D1*
X52497Y11764D1*
X52505Y11734D1*
X52458Y11704D1*
X52382Y11674D1*
X52277Y11644D1*
X52155Y11614D1*
X12752Y20902D2*
D124*
X12714Y20883D1*
X12675Y20844D1*
X12656Y20806D1*
Y20730D1*
X12675Y20691D1*
X12714Y20653D1*
X12752Y20634D1*
X12809Y20615D1*
X12905D1*
X12962Y20634D1*
X13001Y20653D1*
X13039Y20691D1*
X13058Y20730D1*
Y20806D1*
X13039Y20844D1*
X13001Y20883D1*
X12962Y20902D1*
X12733Y21025D2*
X12714Y21064D1*
X12657Y21121D1*
X13058D1*
X12657Y21360D2*
X12676Y21302D1*
X12733Y21264D1*
X12829Y21245D1*
X12886D1*
X12982Y21264D1*
X13039Y21302D1*
X13058Y21360D1*
Y21398D1*
X13039Y21455D1*
X12982Y21493D1*
X12886Y21513D1*
X12829D1*
X12733Y21493D1*
X12676Y21455D1*
X12657Y21398D1*
Y21360D1*
X12733Y21493D2*
X12982Y21264D1*
X21038Y15502D2*
X21000Y15483D1*
X20962Y15445D1*
X20943Y15407D1*
Y15330D1*
X20962Y15292D1*
X21000Y15254D1*
X21038Y15234D1*
X21096Y15215D1*
X21192D1*
X21249Y15234D1*
X21287Y15254D1*
X21325Y15292D1*
X21345Y15330D1*
Y15407D1*
X21325Y15445D1*
X21287Y15483D1*
X21249Y15502D1*
X21020Y15626D2*
X21000Y15664D1*
X20943Y15722D1*
X21345D1*
X21020Y15845D2*
X21000Y15884D1*
X20943Y15941D1*
X21345D1*
X22360Y19127D2*
X22322Y19108D1*
X22284Y19069D1*
X22265Y19031D1*
Y18955D1*
X22284Y18916D1*
X22322Y18878D1*
X22360Y18859D1*
X22418Y18840D1*
X22513D1*
X22571Y18859D1*
X22609Y18878D1*
X22647Y18916D1*
X22666Y18955D1*
Y19031D1*
X22647Y19069D1*
X22609Y19108D1*
X22571Y19127D1*
X22341Y19250D2*
X22322Y19289D1*
X22265Y19346D1*
X22666D1*
X22360Y19489D2*
X22341D1*
X22303Y19508D1*
X22284Y19527D1*
X22265Y19565D1*
Y19642D1*
X22284Y19680D1*
X22303Y19699D1*
X22341Y19718D1*
X22380D1*
X22418Y19699D1*
X22475Y19661D1*
X22666Y19470D1*
Y19737D1*
X21856Y15374D2*
X21818Y15355D1*
X21779Y15317D1*
X21760Y15279D1*
Y15202D1*
X21779Y15164D1*
X21818Y15126D1*
X21856Y15107D1*
X21913Y15087D1*
X22009D1*
X22066Y15107D1*
X22105Y15126D1*
X22143Y15164D1*
X22162Y15202D1*
Y15279D1*
X22143Y15317D1*
X22105Y15355D1*
X22066Y15374D1*
X21837Y15498D2*
X21818Y15536D1*
X21761Y15594D1*
X22162D1*
X21761Y15947D2*
Y15756D1*
X21933Y15737D1*
X21914Y15756D1*
X21894Y15813D1*
Y15870D1*
X21914Y15928D1*
X21952Y15966D1*
X22009Y15985D1*
X22047D1*
X22105Y15966D1*
X22143Y15928D1*
X22162Y15870D1*
Y15813D1*
X22143Y15756D1*
X22124Y15737D1*
X22086Y15717D1*
X24921Y19129D2*
X24902Y19167D1*
X24863Y19206D1*
X24825Y19225D1*
X24749D1*
X24710Y19206D1*
X24672Y19167D1*
X24653Y19129D1*
X24634Y19072D1*
Y18976D1*
X24653Y18919D1*
X24672Y18880D1*
X24710Y18842D1*
X24749Y18823D1*
X24825D1*
X24863Y18842D1*
X24902Y18880D1*
X24921Y18919D1*
X25044Y19148D2*
X25083Y19167D1*
X25140Y19224D1*
Y18823D1*
X25493Y19167D2*
X25474Y19205D1*
X25417Y19224D1*
X25379D1*
X25321Y19205D1*
X25283Y19148D1*
X25264Y19052D1*
Y18957D1*
X25283Y18880D1*
X25321Y18842D1*
X25379Y18823D1*
X25398D1*
X25455Y18842D1*
X25493Y18880D1*
X25512Y18938D1*
Y18957D1*
X25493Y19014D1*
X25455Y19052D1*
X25398Y19071D1*
X25379D1*
X25321Y19052D1*
X25283Y19014D1*
X25264Y18957D1*
X29400Y17317D2*
X29362Y17298D1*
X29324Y17260D1*
X29305Y17221D1*
Y17145D1*
X29324Y17107D1*
X29362Y17069D1*
X29400Y17049D1*
X29458Y17030D1*
X29553D1*
X29611Y17049D1*
X29649Y17069D1*
X29687Y17107D1*
X29706Y17145D1*
Y17221D1*
X29687Y17260D1*
X29649Y17298D1*
X29611Y17317D1*
X29381Y17441D2*
X29362Y17479D1*
X29305Y17536D1*
X29706D1*
X29305Y17755D2*
X29324Y17698D1*
X29362Y17679D1*
X29400D1*
X29439Y17698D1*
X29458Y17736D1*
X29477Y17813D1*
X29496Y17870D1*
X29534Y17908D1*
X29572Y17927D1*
X29630D1*
X29668Y17908D1*
X29687Y17889D1*
X29706Y17832D1*
Y17755D1*
X29687Y17698D1*
X29668Y17679D1*
X29630Y17660D1*
X29572D1*
X29534Y17679D1*
X29496Y17717D1*
X29477Y17774D1*
X29458Y17851D1*
X29439Y17889D1*
X29400Y17908D1*
X29362D1*
X29324Y17889D1*
X29305Y17832D1*
Y17755D1*
X30044Y17307D2*
X30006Y17288D1*
X29968Y17250D1*
X29949Y17212D1*
Y17135D1*
X29968Y17097D1*
X30006Y17059D1*
X30044Y17039D1*
X30102Y17020D1*
X30198D1*
X30255Y17039D1*
X30293Y17059D1*
X30331Y17097D1*
X30351Y17135D1*
Y17212D1*
X30331Y17250D1*
X30293Y17288D1*
X30255Y17307D1*
X30026Y17431D2*
X30006Y17469D1*
X29949Y17527D1*
X30351D1*
X30083Y17899D2*
X30140Y17880D1*
X30179Y17842D1*
X30198Y17784D1*
Y17765D1*
X30179Y17708D1*
X30140Y17670D1*
X30083Y17650D1*
X30064D1*
X30006Y17670D1*
X29968Y17708D1*
X29949Y17765D1*
Y17784D1*
X29968Y17842D1*
X30006Y17880D1*
X30083Y17899D1*
X30179D1*
X30274Y17880D1*
X30332Y17842D1*
X30351Y17784D1*
Y17746D1*
X30332Y17689D1*
X30293Y17670D1*
X37879Y9604D2*
X37841Y9585D1*
X37802Y9547D1*
X37783Y9509D1*
Y9432D1*
X37802Y9394D1*
X37841Y9356D1*
X37879Y9336D1*
X37936Y9317D1*
X38032D1*
X38089Y9336D1*
X38128Y9356D1*
X38166Y9394D1*
X38185Y9432D1*
Y9509D1*
X38166Y9547D1*
X38128Y9585D1*
X38089Y9604D1*
X37879Y9747D2*
X37860D1*
X37822Y9766D1*
X37803Y9785D1*
X37784Y9824D1*
Y9900D1*
X37803Y9938D1*
X37822Y9957D1*
X37860Y9977D1*
X37898D1*
X37937Y9957D1*
X37994Y9919D1*
X38185Y9728D1*
Y9996D1*
X37860Y10119D2*
X37841Y10158D1*
X37784Y10215D1*
X38185D1*
X31675Y12997D2*
X31637Y12978D1*
X31599Y12940D1*
X31580Y12902D1*
Y12825D1*
X31599Y12787D1*
X31637Y12749D1*
X31675Y12729D1*
X31733Y12710D1*
X31829D1*
X31886Y12729D1*
X31924Y12749D1*
X31962Y12787D1*
X31982Y12825D1*
Y12902D1*
X31962Y12940D1*
X31924Y12978D1*
X31886Y12997D1*
X31676Y13140D2*
X31657D1*
X31618Y13159D1*
X31599Y13178D1*
X31580Y13217D1*
Y13293D1*
X31599Y13331D1*
X31618Y13350D1*
X31657Y13369D1*
X31695D1*
X31733Y13350D1*
X31790Y13312D1*
X31982Y13121D1*
Y13389D1*
X31676Y13531D2*
X31657D1*
X31618Y13550D1*
X31599Y13570D1*
X31580Y13608D1*
Y13684D1*
X31599Y13722D1*
X31618Y13742D1*
X31657Y13761D1*
X31695D1*
X31733Y13742D1*
X31790Y13703D1*
X31982Y13512D1*
Y13780D1*
X30999Y13578D2*
X30961Y13559D1*
X30922Y13521D1*
X30903Y13483D1*
Y13406D1*
X30922Y13368D1*
X30961Y13330D1*
X30999Y13310D1*
X31056Y13291D1*
X31152D1*
X31209Y13310D1*
X31248Y13330D1*
X31286Y13368D1*
X31305Y13406D1*
Y13483D1*
X31286Y13521D1*
X31248Y13559D1*
X31209Y13578D1*
X30999Y13721D2*
X30980D1*
X30942Y13740D1*
X30923Y13759D1*
X30904Y13798D1*
Y13874D1*
X30923Y13912D1*
X30942Y13931D1*
X30980Y13951D1*
X31018D1*
X31057Y13931D1*
X31114Y13893D1*
X31305Y13702D1*
Y13970D1*
Y14285D2*
X30904D1*
X31171Y14093D1*
Y14380D1*
X17975Y22516D2*
X17937Y22497D1*
X17899Y22459D1*
X17880Y22421D1*
Y22344D1*
X17899Y22306D1*
X17937Y22268D1*
X17975Y22248D1*
X18033Y22229D1*
X18129D1*
X18186Y22248D1*
X18224Y22268D1*
X18262Y22306D1*
X18282Y22344D1*
Y22421D1*
X18262Y22459D1*
X18224Y22497D1*
X18186Y22516D1*
X17976Y22659D2*
X17957D1*
X17918Y22678D1*
X17899Y22697D1*
X17880Y22736D1*
Y22812D1*
X17899Y22850D1*
X17918Y22869D1*
X17957Y22889D1*
X17995D1*
X18033Y22869D1*
X18090Y22831D1*
X18282Y22640D1*
Y22908D1*
X17880Y23261D2*
Y23070D1*
X18052Y23051D1*
X18033Y23070D1*
X18014Y23127D1*
Y23184D1*
X18033Y23242D1*
X18071Y23280D1*
X18129Y23299D1*
X18167D1*
X18224Y23280D1*
X18263Y23242D1*
X18282Y23184D1*
Y23127D1*
X18263Y23070D1*
X18243Y23051D1*
X18205Y23031D1*
X30327Y13578D2*
X30289Y13559D1*
X30250Y13520D1*
X30231Y13482D1*
Y13406D1*
X30250Y13367D1*
X30289Y13329D1*
X30327Y13310D1*
X30384Y13291D1*
X30480D1*
X30537Y13310D1*
X30576Y13329D1*
X30614Y13367D1*
X30633Y13406D1*
Y13482D1*
X30614Y13520D1*
X30576Y13559D1*
X30537Y13578D1*
X30327Y13721D2*
X30308D1*
X30270Y13740D1*
X30251Y13759D1*
X30232Y13797D1*
Y13874D1*
X30251Y13912D1*
X30270Y13931D1*
X30308Y13950D1*
X30346D1*
X30385Y13931D1*
X30442Y13893D1*
X30633Y13701D1*
Y13969D1*
X30365Y14342D2*
X30423Y14322D1*
X30461Y14284D1*
X30480Y14227D1*
Y14208D1*
X30461Y14150D1*
X30423Y14112D1*
X30365Y14093D1*
X30346D1*
X30289Y14112D1*
X30251Y14150D1*
X30232Y14208D1*
Y14227D1*
X30251Y14284D1*
X30289Y14322D1*
X30365Y14342D1*
X30461D1*
X30557Y14322D1*
X30614Y14284D1*
X30633Y14227D1*
Y14189D1*
X30614Y14131D1*
X30576Y14112D1*
X18595Y20454D2*
X18557Y20435D1*
X18518Y20397D1*
X18499Y20359D1*
Y20282D1*
X18518Y20244D1*
X18557Y20206D1*
X18595Y20186D1*
X18652Y20167D1*
X18748D1*
X18805Y20186D1*
X18844Y20206D1*
X18882Y20244D1*
X18901Y20282D1*
Y20359D1*
X18882Y20397D1*
X18844Y20435D1*
X18805Y20454D1*
X18500Y20616D2*
Y20826D1*
X18653Y20712D1*
Y20769D1*
X18672Y20807D1*
X18691Y20826D1*
X18748Y20846D1*
X18786D1*
X18844Y20826D1*
X18882Y20788D1*
X18901Y20731D1*
Y20673D1*
X18882Y20616D1*
X18863Y20597D1*
X18825Y20578D1*
X18500Y21084D2*
X18519Y21027D1*
X18576Y20988D1*
X18672Y20969D1*
X18729D1*
X18825Y20988D1*
X18882Y21027D1*
X18901Y21084D1*
Y21122D1*
X18882Y21180D1*
X18825Y21218D1*
X18729Y21237D1*
X18672D1*
X18576Y21218D1*
X18519Y21180D1*
X18500Y21122D1*
Y21084D1*
X18576Y21218D2*
X18825Y20988D1*
X38892Y13388D2*
X38854Y13369D1*
X38815Y13331D1*
X38796Y13293D1*
Y13216D1*
X38815Y13178D1*
X38854Y13140D1*
X38892Y13120D1*
X38949Y13101D1*
X39045D1*
X39102Y13120D1*
X39141Y13140D1*
X39179Y13178D1*
X39198Y13216D1*
Y13293D1*
X39179Y13331D1*
X39141Y13369D1*
X39102Y13388D1*
X38797Y13550D2*
Y13760D1*
X38950Y13646D1*
Y13703D1*
X38969Y13741D1*
X38988Y13760D1*
X39045Y13780D1*
X39083D1*
X39141Y13760D1*
X39179Y13722D1*
X39198Y13665D1*
Y13607D1*
X39179Y13550D1*
X39160Y13531D1*
X39122Y13512D1*
X38873Y13903D2*
X38854Y13942D1*
X38797Y13999D1*
X39198D1*
X38244Y17752D2*
X38205Y17733D1*
X38167Y17694D1*
X38148Y17656D1*
Y17580D1*
X38167Y17541D1*
X38205Y17503D1*
X38244Y17484D1*
X38301Y17465D1*
X38397D1*
X38454Y17484D1*
X38492Y17503D1*
X38530Y17541D1*
X38550Y17580D1*
Y17656D1*
X38530Y17694D1*
X38492Y17733D1*
X38454Y17752D1*
X38148Y17914D2*
Y18124D1*
X38301Y18009D1*
Y18067D1*
X38320Y18105D1*
X38339Y18124D1*
X38397Y18143D1*
X38435D1*
X38492Y18124D1*
X38531Y18086D1*
X38550Y18028D1*
Y17971D1*
X38531Y17914D1*
X38511Y17895D1*
X38473Y17875D1*
X38244Y18286D2*
X38225D1*
X38186Y18305D1*
X38167Y18324D1*
X38148Y18363D1*
Y18439D1*
X38167Y18477D1*
X38186Y18496D1*
X38225Y18516D1*
X38263D1*
X38301Y18496D1*
X38358Y18458D1*
X38550Y18267D1*
Y18535D1*
X20776Y11194D2*
X20738Y11175D1*
X20700Y11136D1*
X20681Y11098D1*
Y11022D1*
X20700Y10983D1*
X20738Y10945D1*
X20776Y10926D1*
X20834Y10907D1*
X20930D1*
X20987Y10926D1*
X21025Y10945D1*
X21063Y10983D1*
X21083Y11022D1*
Y11098D1*
X21063Y11136D1*
X21025Y11175D1*
X20987Y11194D1*
X20681Y11356D2*
Y11566D1*
X20834Y11451D1*
Y11509D1*
X20853Y11547D1*
X20872Y11566D1*
X20930Y11585D1*
X20968D1*
X21025Y11566D1*
X21064Y11528D1*
X21083Y11470D1*
Y11413D1*
X21064Y11356D1*
X21044Y11337D1*
X21006Y11317D1*
X20681Y11747D2*
Y11957D1*
X20834Y11843D1*
Y11900D1*
X20853Y11938D1*
X20872Y11957D1*
X20930Y11977D1*
X20968D1*
X21025Y11957D1*
X21064Y11919D1*
X21083Y11862D1*
Y11804D1*
X21064Y11747D1*
X21044Y11728D1*
X21006Y11709D1*
X13382Y12029D2*
X13363Y12067D1*
X13325Y12106D1*
X13287Y12125D1*
X13210D1*
X13172Y12106D1*
X13134Y12067D1*
X13114Y12029D1*
X13095Y11972D1*
Y11876D1*
X13114Y11819D1*
X13134Y11780D1*
X13172Y11742D1*
X13210Y11723D1*
X13287D1*
X13325Y11742D1*
X13363Y11780D1*
X13382Y11819D1*
X13544Y12124D2*
X13754D1*
X13640Y11971D1*
X13697D1*
X13735Y11952D1*
X13754Y11933D1*
X13774Y11876D1*
Y11838D1*
X13754Y11780D1*
X13716Y11742D1*
X13659Y11723D1*
X13601D1*
X13544Y11742D1*
X13525Y11761D1*
X13506Y11799D1*
X14089Y11723D2*
Y12124D1*
X13897Y11857D1*
X14184D1*
X13359Y13474D2*
X13340Y13512D1*
X13302Y13550D1*
X13264Y13569D1*
X13187D1*
X13149Y13550D1*
X13111Y13512D1*
X13091Y13474D1*
X13072Y13416D1*
Y13320D1*
X13091Y13263D1*
X13111Y13225D1*
X13149Y13187D1*
X13187Y13167D1*
X13264D1*
X13302Y13187D1*
X13340Y13225D1*
X13359Y13263D1*
X13521Y13569D2*
X13731D1*
X13617Y13416D1*
X13674D1*
X13712Y13397D1*
X13731Y13378D1*
X13751Y13320D1*
Y13282D1*
X13731Y13225D1*
X13693Y13186D1*
X13636Y13167D1*
X13578D1*
X13521Y13186D1*
X13502Y13206D1*
X13483Y13244D1*
X14103Y13569D2*
X13912D1*
X13893Y13397D1*
X13912Y13416D1*
X13970Y13435D1*
X14027D1*
X14084Y13416D1*
X14123Y13378D1*
X14142Y13320D1*
Y13282D1*
X14123Y13225D1*
X14084Y13186D1*
X14027Y13167D1*
X13970D1*
X13912Y13186D1*
X13893Y13206D1*
X13874Y13244D1*
X13792Y4421D2*
X13754Y4402D1*
X13716Y4363D1*
X13697Y4325D1*
Y4249D1*
X13716Y4210D1*
X13754Y4172D1*
X13792Y4153D1*
X13849Y4134D1*
X13945D1*
X14002Y4153D1*
X14041Y4172D1*
X14079Y4210D1*
X14098Y4249D1*
Y4325D1*
X14079Y4363D1*
X14041Y4402D1*
X14002Y4421D1*
X13697Y4582D2*
Y4793D1*
X13850Y4678D1*
Y4735D1*
X13869Y4774D1*
X13888Y4793D1*
X13945Y4812D1*
X13983D1*
X14041Y4793D1*
X14079Y4754D1*
X14098Y4697D1*
Y4640D1*
X14079Y4582D1*
X14060Y4563D1*
X14022Y4544D1*
X13754Y5165D2*
X13716Y5146D1*
X13697Y5088D1*
Y5050D1*
X13716Y4993D1*
X13773Y4955D1*
X13869Y4935D1*
X13964D1*
X14041Y4955D1*
X14079Y4993D1*
X14098Y5050D1*
Y5069D1*
X14079Y5127D1*
X14041Y5165D1*
X13983Y5184D1*
X13964D1*
X13907Y5165D1*
X13869Y5127D1*
X13850Y5069D1*
Y5050D1*
X13869Y4993D1*
X13907Y4955D1*
X13964Y4935D1*
X13389Y12768D2*
X13370Y12806D1*
X13332Y12845D1*
X13294Y12864D1*
X13217D1*
X13179Y12845D1*
X13141Y12806D1*
X13121Y12768D1*
X13102Y12711D1*
Y12615D1*
X13121Y12558D1*
X13141Y12519D1*
X13179Y12481D1*
X13217Y12462D1*
X13294D1*
X13332Y12481D1*
X13370Y12519D1*
X13389Y12558D1*
X13551Y12863D2*
X13761D1*
X13647Y12710D1*
X13704D1*
X13742Y12691D1*
X13761Y12672D1*
X13781Y12615D1*
Y12577D1*
X13761Y12519D1*
X13723Y12481D1*
X13666Y12462D1*
X13608D1*
X13551Y12481D1*
X13532Y12500D1*
X13513Y12538D1*
X14000Y12863D2*
X13943Y12844D1*
X13923Y12806D1*
Y12768D1*
X13943Y12730D1*
X13981Y12710D1*
X14057Y12691D1*
X14115Y12672D1*
X14153Y12634D1*
X14172Y12596D1*
Y12538D1*
X14153Y12500D1*
X14134Y12481D1*
X14076Y12462D1*
X14000D1*
X13943Y12481D1*
X13923Y12500D1*
X13904Y12538D1*
Y12596D1*
X13923Y12634D1*
X13962Y12672D1*
X14019Y12691D1*
X14095Y12710D1*
X14134Y12730D1*
X14153Y12768D1*
Y12806D1*
X14134Y12844D1*
X14076Y12863D1*
X14000D1*
X29559Y10758D2*
X29520Y10738D1*
X29482Y10700D1*
X29463Y10662D1*
Y10586D1*
X29482Y10547D1*
X29520Y10509D1*
X29559Y10490D1*
X29616Y10471D1*
X29712D1*
X29769Y10490D1*
X29807Y10509D1*
X29845Y10547D1*
X29865Y10586D1*
Y10662D1*
X29845Y10700D1*
X29807Y10738D1*
X29769Y10758D1*
X29865Y11072D2*
X29463D1*
X29731Y10881D1*
Y11168D1*
X29463Y11406D2*
X29482Y11349D1*
X29540Y11311D1*
X29635Y11291D1*
X29693D1*
X29788Y11311D1*
X29846Y11349D1*
X29865Y11406D1*
Y11444D1*
X29846Y11502D1*
X29788Y11540D1*
X29693Y11559D1*
X29635D1*
X29540Y11540D1*
X29482Y11502D1*
X29463Y11444D1*
Y11406D1*
X29540Y11540D2*
X29788Y11311D1*
X40366Y13257D2*
X40328Y13238D1*
X40289Y13199D1*
X40270Y13161D1*
Y13085D1*
X40289Y13046D1*
X40328Y13008D1*
X40366Y12989D1*
X40423Y12970D1*
X40519D1*
X40576Y12989D1*
X40615Y13008D1*
X40653Y13046D1*
X40672Y13085D1*
Y13161D1*
X40653Y13199D1*
X40615Y13238D1*
X40576Y13257D1*
X40672Y13572D2*
X40271D1*
X40538Y13380D1*
Y13667D1*
X40347Y13791D2*
X40328Y13829D1*
X40271Y13886D1*
X40672D1*
X40217Y9370D2*
X40619D1*
Y9504D1*
X40599Y9562D1*
X40561Y9600D1*
X40523Y9619D1*
X40466Y9638D1*
X40370D1*
X40312Y9619D1*
X40274Y9600D1*
X40236Y9562D1*
X40217Y9504D1*
Y9370D1*
X40294Y9762D2*
X40274Y9800D1*
X40217Y9858D1*
X40619D1*
X32229Y12619D2*
X32631D1*
Y12753D1*
X32611Y12811D1*
X32573Y12849D1*
X32535Y12868D1*
X32478Y12887D1*
X32382D1*
X32324Y12868D1*
X32286Y12849D1*
X32248Y12811D1*
X32229Y12753D1*
Y12619D1*
X32325Y13030D2*
X32306D1*
X32267Y13049D1*
X32248Y13068D1*
X32229Y13107D1*
Y13183D1*
X32248Y13221D1*
X32267Y13240D1*
X32306Y13259D1*
X32344D1*
X32382Y13240D1*
X32439Y13202D1*
X32631Y13011D1*
Y13279D1*
X40759Y9371D2*
X41161D1*
Y9505D1*
X41141Y9563D1*
X41103Y9601D1*
X41065Y9620D1*
X41008Y9639D1*
X40912D1*
X40854Y9620D1*
X40816Y9601D1*
X40778Y9563D1*
X40759Y9505D1*
Y9371D1*
Y9801D2*
Y10011D1*
X40912Y9897D1*
Y9954D1*
X40931Y9992D1*
X40950Y10011D1*
X41008Y10031D1*
X41046D1*
X41103Y10011D1*
X41142Y9973D1*
X41161Y9916D1*
Y9858D1*
X41142Y9801D1*
X41122Y9782D1*
X41084Y9763D1*
X24099Y15304D2*
Y14902D1*
X24509Y15208D2*
X24490Y15246D1*
X24452Y15285D1*
X24414Y15304D1*
X24337D1*
X24299Y15285D1*
X24261Y15246D1*
X24242Y15208D1*
X24223Y15151D1*
Y15055D1*
X24242Y14998D1*
X24261Y14959D1*
X24299Y14921D1*
X24337Y14902D1*
X24414D1*
X24452Y14921D1*
X24490Y14959D1*
X24509Y14998D1*
X24633Y15227D2*
X24671Y15246D1*
X24729Y15303D1*
Y14902D1*
X12448Y19477D2*
Y19171D1*
X12429Y19114D1*
X12410Y19095D1*
X12372Y19075D1*
X12333D1*
X12295Y19095D1*
X12276Y19114D1*
X12257Y19171D1*
Y19209D1*
X12610Y19477D2*
X12820D1*
X12706Y19324D1*
X12763D1*
X12801Y19305D1*
X12820Y19286D1*
X12839Y19228D1*
Y19190D1*
X12820Y19133D1*
X12782Y19094D1*
X12725Y19075D1*
X12667D1*
X12610Y19094D1*
X12591Y19114D1*
X12572Y19152D1*
X12300Y17384D2*
Y17078D1*
X12281Y17020D1*
X12262Y17001D1*
X12224Y16982D1*
X12186D1*
X12147Y17001D1*
X12128Y17020D1*
X12109Y17078D1*
Y17116D1*
X12424Y17307D2*
X12462Y17326D1*
X12520Y17383D1*
Y16982D1*
X12739Y17383D2*
X12682Y17364D1*
X12662Y17326D1*
Y17288D1*
X12682Y17250D1*
X12720Y17230D1*
X12796Y17211D1*
X12854Y17192D1*
X12892Y17154D1*
X12911Y17116D1*
Y17058D1*
X12892Y17020D1*
X12873Y17001D1*
X12815Y16982D1*
X12739D1*
X12682Y17001D1*
X12662Y17020D1*
X12643Y17058D1*
Y17116D1*
X12662Y17154D1*
X12701Y17192D1*
X12758Y17211D1*
X12834Y17230D1*
X12873Y17250D1*
X12892Y17288D1*
Y17326D1*
X12873Y17364D1*
X12815Y17383D1*
X12739D1*
X23564Y13506D2*
Y13200D1*
X23545Y13142D1*
X23526Y13123D1*
X23488Y13104D1*
X23449D1*
X23411Y13123D1*
X23392Y13142D1*
X23373Y13200D1*
Y13238D1*
X23688Y13429D2*
X23726Y13448D1*
X23784Y13505D1*
Y13104D1*
X24156Y13372D2*
X24137Y13314D1*
X24099Y13276D1*
X24041Y13257D1*
X24022D1*
X23965Y13276D1*
X23927Y13314D1*
X23907Y13372D1*
Y13391D1*
X23927Y13448D1*
X23965Y13486D1*
X24022Y13505D1*
X24041D1*
X24099Y13486D1*
X24137Y13448D1*
X24156Y13372D1*
Y13276D1*
X24137Y13180D1*
X24099Y13123D1*
X24041Y13104D1*
X24003D1*
X23946Y13123D1*
X23927Y13161D1*
X12218Y18404D2*
Y18098D1*
X12199Y18040D1*
X12179Y18021D1*
X12141Y18002D1*
X12103D1*
X12065Y18021D1*
X12046Y18040D1*
X12026Y18098D1*
Y18136D1*
X12361Y18308D2*
Y18327D1*
X12380Y18365D1*
X12399Y18384D1*
X12437Y18403D1*
X12514D1*
X12552Y18384D1*
X12571Y18365D1*
X12590Y18327D1*
Y18289D1*
X12571Y18250D1*
X12533Y18193D1*
X12341Y18002D1*
X12609D1*
X12848Y18403D2*
X12790Y18384D1*
X12752Y18327D1*
X12733Y18231D1*
Y18174D1*
X12752Y18078D1*
X12790Y18021D1*
X12848Y18002D1*
X12886D1*
X12943Y18021D1*
X12981Y18078D1*
X13001Y18174D1*
Y18231D1*
X12981Y18327D1*
X12943Y18384D1*
X12886Y18403D1*
X12848D1*
X12981Y18327D2*
X12752Y18078D1*
X19999Y8601D2*
Y8295D1*
X19980Y8237D1*
X19960Y8218D1*
X19922Y8199D1*
X19884D1*
X19846Y8218D1*
X19827Y8237D1*
X19807Y8295D1*
Y8333D1*
X20142Y8505D2*
Y8524D1*
X20161Y8562D1*
X20180Y8581D1*
X20218Y8600D1*
X20295D1*
X20333Y8581D1*
X20352Y8562D1*
X20371Y8524D1*
Y8486D1*
X20352Y8447D1*
X20314Y8390D1*
X20122Y8199D1*
X20390D1*
X20705D2*
Y8600D1*
X20514Y8333D1*
X20801D1*
X12135Y11712D2*
Y11406D1*
X12116Y11349D1*
X12096Y11330D1*
X12058Y11310D1*
X12020D1*
X11982Y11330D1*
X11963Y11349D1*
X11943Y11406D1*
Y11444D1*
X12278Y11616D2*
Y11635D1*
X12297Y11674D1*
X12316Y11693D1*
X12354Y11712D1*
X12431D1*
X12469Y11693D1*
X12488Y11674D1*
X12507Y11635D1*
Y11597D1*
X12488Y11559D1*
X12450Y11502D1*
X12258Y11310D1*
X12526D1*
X12879Y11655D2*
X12860Y11693D1*
X12803Y11712D1*
X12765D1*
X12707Y11693D1*
X12669Y11635D1*
X12650Y11540D1*
Y11444D1*
X12669Y11368D1*
X12707Y11329D1*
X12765Y11310D1*
X12784D1*
X12841Y11329D1*
X12879Y11368D1*
X12898Y11425D1*
Y11444D1*
X12879Y11502D1*
X12841Y11540D1*
X12784Y11559D1*
X12765D1*
X12707Y11540D1*
X12669Y11502D1*
X12650Y11444D1*
X23601Y29723D2*
Y29417D1*
X23582Y29360D1*
X23563Y29341D1*
X23525Y29321D1*
X23486D1*
X23448Y29341D1*
X23429Y29360D1*
X23410Y29417D1*
Y29455D1*
X23744Y29627D2*
Y29646D1*
X23763Y29685D1*
X23782Y29704D1*
X23821Y29723D1*
X23897D1*
X23935Y29704D1*
X23954Y29685D1*
X23974Y29646D1*
Y29608D1*
X23954Y29570D1*
X23916Y29513D1*
X23725Y29321D1*
X23993D1*
X24212Y29723D2*
X24155Y29704D1*
X24135Y29666D1*
Y29627D1*
X24155Y29589D1*
X24193Y29570D1*
X24269Y29551D1*
X24327Y29532D1*
X24365Y29493D1*
X24384Y29455D1*
Y29398D1*
X24365Y29360D1*
X24346Y29340D1*
X24288Y29321D1*
X24212D1*
X24155Y29340D1*
X24135Y29360D1*
X24116Y29398D1*
Y29455D1*
X24135Y29493D1*
X24174Y29532D1*
X24231Y29551D1*
X24307Y29570D1*
X24346Y29589D1*
X24365Y29627D1*
Y29666D1*
X24346Y29704D1*
X24288Y29723D1*
X24212D1*
X45610Y29778D2*
Y29472D1*
X45591Y29415D1*
X45571Y29396D1*
X45533Y29376D1*
X45495D1*
X45457Y29396D1*
X45438Y29415D1*
X45418Y29472D1*
Y29510D1*
X45753Y29682D2*
Y29701D1*
X45772Y29740D1*
X45791Y29759D1*
X45829Y29778D1*
X45906D1*
X45944Y29759D1*
X45963Y29740D1*
X45982Y29701D1*
Y29663D1*
X45963Y29625D1*
X45925Y29568D1*
X45733Y29376D1*
X46001D1*
X46374Y29644D2*
X46354Y29587D1*
X46316Y29548D1*
X46259Y29529D1*
X46240D1*
X46182Y29548D1*
X46144Y29587D1*
X46125Y29644D1*
Y29663D1*
X46144Y29721D1*
X46182Y29759D1*
X46240Y29778D1*
X46259D1*
X46316Y29759D1*
X46354Y29721D1*
X46374Y29644D1*
Y29548D1*
X46354Y29453D1*
X46316Y29395D1*
X46259Y29376D1*
X46221D1*
X46163Y29395D1*
X46144Y29434D1*
X27360Y16789D2*
X27666D1*
X27724Y16770D1*
X27743Y16751D1*
X27762Y16713D1*
Y16674D1*
X27743Y16636D1*
X27724Y16617D1*
X27666Y16598D1*
X27628D1*
X27361Y16951D2*
Y17161D1*
X27514Y17047D1*
Y17104D1*
X27533Y17142D1*
X27552Y17161D1*
X27609Y17181D1*
X27647D1*
X27705Y17161D1*
X27743Y17123D1*
X27762Y17066D1*
Y17008D1*
X27743Y16951D1*
X27724Y16932D1*
X27686Y16913D1*
X27361Y17419D2*
X27380Y17362D1*
X27437Y17323D1*
X27533Y17304D1*
X27590D1*
X27686Y17323D1*
X27743Y17362D1*
X27762Y17419D1*
Y17457D1*
X27743Y17515D1*
X27686Y17553D1*
X27590Y17572D1*
X27533D1*
X27437Y17553D1*
X27380Y17515D1*
X27361Y17457D1*
Y17419D1*
X27437Y17553D2*
X27686Y17323D1*
X28363Y16813D2*
X28669D1*
X28726Y16794D1*
X28745Y16774D1*
X28764Y16736D1*
Y16698D1*
X28745Y16660D1*
X28726Y16641D1*
X28669Y16621D1*
X28630D1*
X28363Y16975D2*
Y17185D1*
X28516Y17070D1*
Y17128D1*
X28535Y17166D1*
X28554Y17185D1*
X28611Y17204D1*
X28650D1*
X28707Y17185D1*
X28745Y17147D1*
X28764Y17089D1*
Y17032D1*
X28745Y16975D1*
X28726Y16956D1*
X28688Y16936D1*
X28439Y17328D2*
X28420Y17366D1*
X28363Y17424D1*
X28764D1*
X19409Y33254D2*
Y32948D1*
X19389Y32891D1*
X19370Y32872D1*
X19332Y32852D1*
X19294D1*
X19256Y32872D1*
X19237Y32891D1*
X19217Y32948D1*
Y32986D1*
X19570Y33254D2*
X19781D1*
X19666Y33101D1*
X19723D1*
X19762Y33082D1*
X19781Y33063D1*
X19800Y33005D1*
Y32967D1*
X19781Y32910D1*
X19742Y32871D1*
X19685Y32852D1*
X19628D1*
X19570Y32871D1*
X19551Y32891D1*
X19532Y32929D1*
X19943Y33158D2*
Y33177D1*
X19962Y33216D1*
X19981Y33235D1*
X20019Y33254D1*
X20096D1*
X20134Y33235D1*
X20153Y33216D1*
X20172Y33177D1*
Y33139D1*
X20153Y33101D1*
X20115Y33044D1*
X19923Y32852D1*
X20191D1*
X49767Y33225D2*
Y32919D1*
X49748Y32861D1*
X49728Y32842D1*
X49690Y32823D1*
X49652D1*
X49614Y32842D1*
X49595Y32861D1*
X49575Y32919D1*
Y32957D1*
X49929Y33224D2*
X50139D1*
X50024Y33071D1*
X50082D1*
X50120Y33052D1*
X50139Y33033D1*
X50158Y32976D1*
Y32938D1*
X50139Y32880D1*
X50101Y32842D1*
X50043Y32823D1*
X49986D1*
X49929Y32842D1*
X49910Y32861D1*
X49890Y32899D1*
X50320Y33224D2*
X50530D1*
X50416Y33071D1*
X50473D1*
X50511Y33052D1*
X50530Y33033D1*
X50550Y32976D1*
Y32938D1*
X50530Y32880D1*
X50492Y32842D1*
X50435Y32823D1*
X50377D1*
X50320Y32842D1*
X50301Y32861D1*
X50282Y32899D1*
X40952Y13020D2*
X41354D1*
Y13250D1*
X41029Y13373D2*
X41009Y13412D1*
X40952Y13469D1*
X41354D1*
X20036Y17818D2*
X20208D1*
X20266Y17838D1*
X20285Y17857D1*
X20304Y17895D1*
Y17933D1*
X20285Y17971D1*
X20266Y17991D1*
X20208Y18010D1*
X20036D1*
Y17608D1*
X20170Y17818D2*
X20304Y17608D1*
X20677Y17876D2*
X20657Y17818D1*
X20619Y17780D1*
X20562Y17761D1*
X20543D1*
X20485Y17780D1*
X20447Y17818D1*
X20428Y17876D1*
Y17895D1*
X20447Y17952D1*
X20485Y17990D1*
X20543Y18009D1*
X20562D1*
X20619Y17990D1*
X20657Y17952D1*
X20677Y17876D1*
Y17780D1*
X20657Y17684D1*
X20619Y17627D1*
X20562Y17608D1*
X20524D1*
X20466Y17627D1*
X20447Y17665D1*
X36991Y9327D2*
Y9499D1*
X36971Y9556D1*
X36952Y9576D1*
X36914Y9595D1*
X36876D1*
X36838Y9576D1*
X36818Y9556D1*
X36799Y9499D1*
Y9327D1*
X37201D1*
X36991Y9461D2*
X37201Y9595D1*
X36876Y9718D2*
X36857Y9757D1*
X36800Y9814D1*
X37201D1*
X36800Y9976D2*
Y10186D1*
X36953Y10071D1*
Y10129D1*
X36972Y10167D1*
X36991Y10186D1*
X37048Y10205D1*
X37086D1*
X37144Y10186D1*
X37182Y10148D1*
X37201Y10090D1*
Y10033D1*
X37182Y9976D1*
X37163Y9957D1*
X37125Y9938D1*
X43181Y9250D2*
Y9422D1*
X43161Y9480D1*
X43142Y9499D1*
X43104Y9518D1*
X43066D1*
X43028Y9499D1*
X43008Y9480D1*
X42989Y9422D1*
Y9250D1*
X43391D1*
X43181Y9384D2*
X43391Y9518D1*
X43066Y9642D2*
X43047Y9680D1*
X42989Y9738D1*
X43391D1*
Y10053D2*
X42989D1*
X43257Y9861D1*
Y10148D1*
X31989Y9326D2*
Y9498D1*
X31970Y9555D1*
X31951Y9575D1*
X31913Y9594D1*
X31874D1*
X31836Y9575D1*
X31817Y9555D1*
X31798Y9498D1*
Y9326D1*
X32200D1*
X31989Y9460D2*
X32200Y9594D1*
X31875Y9717D2*
X31855Y9756D1*
X31798Y9813D1*
X32200D1*
X31798Y10166D2*
Y9975D1*
X31970Y9956D1*
X31951Y9975D1*
X31932Y10033D1*
Y10090D1*
X31951Y10147D1*
X31989Y10186D1*
X32047Y10205D1*
X32085D1*
X32142Y10186D1*
X32181Y10147D1*
X32200Y10090D1*
Y10033D1*
X32181Y9975D1*
X32161Y9956D1*
X32123Y9937D1*
X33006Y9319D2*
Y9491D1*
X32986Y9549D1*
X32967Y9568D1*
X32929Y9587D1*
X32891D1*
X32853Y9568D1*
X32833Y9549D1*
X32814Y9491D1*
Y9319D1*
X33216D1*
X33006Y9453D2*
X33216Y9587D1*
X32891Y9711D2*
X32872Y9749D1*
X32815Y9806D1*
X33216D1*
X32872Y10159D2*
X32834Y10140D1*
X32815Y10083D1*
Y10045D1*
X32834Y9987D1*
X32891Y9949D1*
X32987Y9930D1*
X33082D1*
X33159Y9949D1*
X33197Y9987D1*
X33216Y10045D1*
Y10064D1*
X33197Y10121D1*
X33159Y10159D1*
X33101Y10178D1*
X33082D1*
X33025Y10159D1*
X32987Y10121D1*
X32968Y10064D1*
Y10045D1*
X32987Y9987D1*
X33025Y9949D1*
X33082Y9930D1*
X33989Y9309D2*
Y9481D1*
X33970Y9539D1*
X33951Y9558D1*
X33913Y9577D1*
X33874D1*
X33836Y9558D1*
X33817Y9539D1*
X33798Y9481D1*
Y9309D1*
X34200D1*
X33989Y9443D2*
X34200Y9577D1*
X33875Y9701D2*
X33855Y9739D1*
X33798Y9797D1*
X34200D1*
Y9997D2*
X33798Y10188D1*
Y9920D1*
X39070Y9315D2*
Y9487D1*
X39051Y9544D1*
X39032Y9564D1*
X38994Y9583D1*
X38955D1*
X38917Y9564D1*
X38898Y9544D1*
X38879Y9487D1*
Y9315D1*
X39281D1*
X39070Y9449D2*
X39281Y9583D1*
X38956Y9706D2*
X38936Y9745D1*
X38879Y9802D1*
X39281D1*
X38879Y10021D2*
X38898Y9964D1*
X38936Y9945D1*
X38975D1*
X39013Y9964D1*
X39032Y10002D1*
X39051Y10079D1*
X39070Y10136D1*
X39109Y10174D1*
X39147Y10193D1*
X39204D1*
X39242Y10174D1*
X39262Y10155D1*
X39281Y10098D1*
Y10021D1*
X39262Y9964D1*
X39242Y9945D1*
X39204Y9926D1*
X39147D1*
X39109Y9945D1*
X39070Y9983D1*
X39051Y10040D1*
X39032Y10117D1*
X39013Y10155D1*
X38975Y10174D1*
X38936D1*
X38898Y10155D1*
X38879Y10098D1*
Y10021D1*
X34973Y9309D2*
Y9481D1*
X34953Y9539D1*
X34934Y9558D1*
X34896Y9577D1*
X34858D1*
X34820Y9558D1*
X34800Y9539D1*
X34781Y9481D1*
Y9309D1*
X35183D1*
X34973Y9443D2*
X35183Y9577D1*
X34877Y9720D2*
X34858D1*
X34820Y9739D1*
X34801Y9758D1*
X34782Y9797D1*
Y9873D1*
X34801Y9911D1*
X34820Y9930D1*
X34858Y9950D1*
X34896D1*
X34935Y9930D1*
X34992Y9892D1*
X35183Y9701D1*
Y9969D1*
X34858Y10092D2*
X34839Y10131D1*
X34782Y10188D1*
X35183D1*
X35956Y9286D2*
Y9458D1*
X35937Y9515D1*
X35918Y9535D1*
X35880Y9554D1*
X35841D1*
X35803Y9535D1*
X35784Y9515D1*
X35765Y9458D1*
Y9286D1*
X36167D1*
X35956Y9420D2*
X36167Y9554D1*
X35861Y9697D2*
X35842D1*
X35803Y9716D1*
X35784Y9735D1*
X35765Y9773D1*
Y9850D1*
X35784Y9888D1*
X35803Y9907D1*
X35842Y9926D1*
X35880D1*
X35918Y9907D1*
X35975Y9869D1*
X36167Y9677D1*
Y9945D1*
X35861Y10088D2*
X35842D1*
X35803Y10107D1*
X35784Y10126D1*
X35765Y10165D1*
Y10241D1*
X35784Y10279D1*
X35803Y10298D1*
X35842Y10318D1*
X35880D1*
X35918Y10298D1*
X35975Y10260D1*
X36167Y10069D1*
Y10337D1*
X43024Y18599D2*
X43196D1*
X43253Y18618D1*
X43273Y18637D1*
X43292Y18676D1*
Y18714D1*
X43273Y18752D1*
X43253Y18771D1*
X43196Y18790D1*
X43024D1*
Y18389D1*
X43158Y18599D2*
X43292Y18389D1*
X43435Y18695D2*
Y18714D1*
X43454Y18752D1*
X43473Y18771D1*
X43511Y18790D1*
X43588D1*
X43626Y18771D1*
X43645Y18752D1*
X43664Y18714D1*
Y18676D1*
X43645Y18637D1*
X43607Y18580D1*
X43415Y18389D1*
X43683D1*
X44036Y18733D2*
X44017Y18771D1*
X43960Y18790D1*
X43922D1*
X43864Y18771D1*
X43826Y18714D1*
X43807Y18618D1*
Y18523D1*
X43826Y18446D1*
X43864Y18408D1*
X43922Y18389D1*
X43941D1*
X43998Y18408D1*
X44036Y18446D1*
X44055Y18504D1*
Y18523D1*
X44036Y18580D1*
X43998Y18618D1*
X43941Y18637D1*
X43922D1*
X43864Y18618D1*
X43826Y18580D1*
X43807Y18523D1*
X43053Y16255D2*
X43225D1*
X43282Y16274D1*
X43302Y16293D1*
X43321Y16331D1*
Y16370D1*
X43302Y16408D1*
X43282Y16427D1*
X43225Y16446D1*
X43053D1*
Y16044D1*
X43187Y16255D2*
X43321Y16044D1*
X43464Y16350D2*
Y16369D1*
X43483Y16408D1*
X43502Y16427D1*
X43540Y16446D1*
X43617D1*
X43655Y16427D1*
X43674Y16408D1*
X43693Y16369D1*
Y16331D1*
X43674Y16293D1*
X43636Y16236D1*
X43444Y16044D1*
X43712D1*
X43912D2*
X44104Y16446D1*
X43836D1*
X37127Y16086D2*
Y16258D1*
X37108Y16316D1*
X37089Y16335D1*
X37051Y16354D1*
X37012D1*
X36974Y16335D1*
X36955Y16316D1*
X36936Y16258D1*
Y16086D1*
X37338D1*
X37127Y16220D2*
X37338Y16354D1*
X37032Y16497D2*
X37013D1*
X36974Y16516D1*
X36955Y16535D1*
X36936Y16574D1*
Y16650D1*
X36955Y16688D1*
X36974Y16707D1*
X37013Y16727D1*
X37051D1*
X37089Y16707D1*
X37146Y16669D1*
X37338Y16478D1*
Y16746D1*
X37070Y17118D2*
X37127Y17099D1*
X37166Y17061D1*
X37185Y17003D1*
Y16984D1*
X37166Y16927D1*
X37127Y16889D1*
X37070Y16869D1*
X37051D1*
X36993Y16889D1*
X36955Y16927D1*
X36936Y16984D1*
Y17003D1*
X36955Y17061D1*
X36993Y17099D1*
X37070Y17118D1*
X37166D1*
X37261Y17099D1*
X37319Y17061D1*
X37338Y17003D1*
Y16965D1*
X37319Y16908D1*
X37280Y16889D1*
X37636Y16120D2*
Y16292D1*
X37617Y16350D1*
X37598Y16369D1*
X37560Y16388D1*
X37521D1*
X37483Y16369D1*
X37464Y16350D1*
X37445Y16292D1*
Y16120D1*
X37847D1*
X37636Y16254D2*
X37847Y16388D1*
X37445Y16550D2*
Y16760D1*
X37598Y16646D1*
Y16703D1*
X37617Y16741D1*
X37636Y16760D1*
X37694Y16780D1*
X37732D1*
X37789Y16760D1*
X37828Y16722D1*
X37847Y16665D1*
Y16607D1*
X37828Y16550D1*
X37808Y16531D1*
X37770Y16512D1*
X37445Y17018D2*
X37464Y16961D1*
X37522Y16922D1*
X37617Y16903D1*
X37675D1*
X37770Y16922D1*
X37828Y16961D1*
X37847Y17018D1*
Y17056D1*
X37828Y17114D1*
X37770Y17152D1*
X37675Y17171D1*
X37617D1*
X37522Y17152D1*
X37464Y17114D1*
X37445Y17056D1*
Y17018D1*
X37522Y17152D2*
X37770Y16922D1*
X13105Y14028D2*
X13277D1*
X13334Y14047D1*
X13354Y14066D1*
X13373Y14104D1*
Y14143D1*
X13354Y14181D1*
X13334Y14200D1*
X13277Y14219D1*
X13105D1*
Y13817D1*
X13239Y14028D2*
X13373Y13817D1*
X13535Y14219D2*
X13745D1*
X13630Y14066D1*
X13688D1*
X13726Y14047D1*
X13745Y14028D1*
X13764Y13970D1*
Y13932D1*
X13745Y13875D1*
X13707Y13836D1*
X13649Y13817D1*
X13592D1*
X13535Y13836D1*
X13516Y13856D1*
X13496Y13894D1*
X14117Y14219D2*
X13926D1*
X13907Y14047D1*
X13926Y14066D1*
X13983Y14085D1*
X14041D1*
X14098Y14066D1*
X14136Y14028D1*
X14155Y13970D1*
Y13932D1*
X14136Y13875D1*
X14098Y13836D1*
X14041Y13817D1*
X13983D1*
X13926Y13836D1*
X13907Y13856D1*
X13888Y13894D1*
X12892Y4143D2*
Y4315D1*
X12873Y4372D1*
X12854Y4392D1*
X12816Y4411D1*
X12777D1*
X12739Y4392D1*
X12720Y4372D1*
X12701Y4315D1*
Y4143D1*
X13103D1*
X12892Y4277D2*
X13103Y4411D1*
X12701Y4573D2*
Y4783D1*
X12854Y4668D1*
Y4726D1*
X12873Y4764D1*
X12892Y4783D1*
X12950Y4802D1*
X12988D1*
X13045Y4783D1*
X13084Y4745D1*
X13103Y4687D1*
Y4630D1*
X13084Y4573D1*
X13064Y4554D1*
X13026Y4534D1*
X12758Y5155D2*
X12720Y5136D1*
X12701Y5079D1*
Y5041D1*
X12720Y4983D1*
X12778Y4945D1*
X12873Y4926D1*
X12969D1*
X13045Y4945D1*
X13084Y4983D1*
X13103Y5041D1*
Y5060D1*
X13084Y5117D1*
X13045Y5155D1*
X12988Y5174D1*
X12969D1*
X12911Y5155D1*
X12873Y5117D1*
X12854Y5060D1*
Y5041D1*
X12873Y4983D1*
X12911Y4945D1*
X12969Y4926D1*
X21487Y11665D2*
Y11837D1*
X21467Y11894D1*
X21448Y11914D1*
X21410Y11933D1*
X21372D1*
X21334Y11914D1*
X21314Y11894D1*
X21295Y11837D1*
Y11665D1*
X21697D1*
X21487Y11799D2*
X21697Y11933D1*
X21296Y12095D2*
Y12305D1*
X21449Y12190D1*
Y12248D1*
X21468Y12286D1*
X21487Y12305D1*
X21544Y12324D1*
X21582D1*
X21640Y12305D1*
X21678Y12267D1*
X21697Y12209D1*
Y12152D1*
X21678Y12095D1*
X21659Y12076D1*
X21621Y12056D1*
X21697Y12524D2*
X21296Y12716D1*
Y12448D1*
X22167Y12123D2*
Y12295D1*
X22147Y12353D1*
X22128Y12372D1*
X22090Y12391D1*
X22052D1*
X22014Y12372D1*
X21994Y12353D1*
X21975Y12295D1*
Y12123D1*
X22377D1*
X22167Y12257D2*
X22377Y12391D1*
X21976Y12553D2*
Y12763D1*
X22129Y12649D1*
Y12706D1*
X22148Y12744D1*
X22167Y12763D1*
X22224Y12783D1*
X22262D1*
X22320Y12763D1*
X22358Y12725D1*
X22377Y12668D1*
Y12610D1*
X22358Y12553D1*
X22339Y12534D1*
X22301Y12515D1*
X21976Y13002D2*
X21995Y12944D1*
X22033Y12925D1*
X22071D1*
X22109Y12944D1*
X22129Y12983D1*
X22148Y13059D1*
X22167Y13116D1*
X22205Y13155D1*
X22243Y13174D1*
X22301D1*
X22339Y13155D1*
X22358Y13136D1*
X22377Y13078D1*
Y13002D1*
X22358Y12944D1*
X22339Y12925D1*
X22301Y12906D1*
X22243D1*
X22205Y12925D1*
X22167Y12964D1*
X22148Y13021D1*
X22129Y13097D1*
X22109Y13136D1*
X22071Y13155D1*
X22033D1*
X21995Y13136D1*
X21976Y13078D1*
Y13002D1*
X39775Y9361D2*
Y9533D1*
X39756Y9591D1*
X39737Y9610D1*
X39699Y9629D1*
X39660D1*
X39622Y9610D1*
X39603Y9591D1*
X39584Y9533D1*
Y9361D1*
X39986D1*
X39775Y9495D2*
X39986Y9629D1*
Y9944D2*
X39584D1*
X39852Y9753D1*
Y10040D1*
X39584Y10278D2*
X39603Y10221D1*
X39661Y10182D1*
X39756Y10163D1*
X39814D1*
X39909Y10182D1*
X39967Y10221D1*
X39986Y10278D1*
Y10316D1*
X39967Y10374D1*
X39909Y10412D1*
X39814Y10431D1*
X39756D1*
X39661Y10412D1*
X39603Y10374D1*
X39584Y10316D1*
Y10278D1*
X39661Y10412D2*
X39909Y10182D1*
X39717Y13033D2*
Y13205D1*
X39698Y13263D1*
X39679Y13282D1*
X39641Y13301D1*
X39602D1*
X39564Y13282D1*
X39545Y13263D1*
X39526Y13205D1*
Y13033D1*
X39928D1*
X39717Y13167D2*
X39928Y13301D1*
Y13616D2*
X39526D1*
X39794Y13425D1*
Y13712D1*
X39660Y14084D2*
X39717Y14065D1*
X39756Y14027D1*
X39775Y13969D1*
Y13950D1*
X39756Y13893D1*
X39717Y13855D1*
X39660Y13835D1*
X39641D1*
X39583Y13855D1*
X39545Y13893D1*
X39526Y13950D1*
Y13969D1*
X39545Y14027D1*
X39583Y14065D1*
X39660Y14084D1*
X39756D1*
X39851Y14065D1*
X39909Y14027D1*
X39928Y13969D1*
Y13931D1*
X39909Y13874D1*
X39870Y13855D1*
X34722Y15479D2*
Y15193D1*
X34741Y15135D1*
X34779Y15097D1*
X34837Y15078D1*
X34875D1*
X34932Y15097D1*
X34971Y15135D1*
X34990Y15193D1*
Y15479D1*
X35113Y15403D2*
X35152Y15422D1*
X35209Y15479D1*
Y15078D1*
X29188Y12608D2*
Y12321D1*
X29207Y12263D1*
X29245Y12225D1*
X29303Y12206D1*
X29341D1*
X29398Y12225D1*
X29437Y12263D1*
X29456Y12321D1*
Y12608D1*
X29599Y12512D2*
Y12531D1*
X29618Y12569D1*
X29637Y12588D1*
X29675Y12607D1*
X29752D1*
X29790Y12588D1*
X29809Y12569D1*
X29828Y12531D1*
Y12493D1*
X29809Y12454D1*
X29771Y12397D1*
X29579Y12206D1*
X29847D1*
X15379Y22335D2*
Y22048D1*
X15398Y21990D1*
X15436Y21952D1*
X15494Y21933D1*
X15532D1*
X15589Y21952D1*
X15628Y21990D1*
X15647Y22048D1*
Y22335D1*
X15962Y21933D2*
Y22334D1*
X15770Y22067D1*
X16057D1*
X19924Y20445D2*
Y20158D1*
X19943Y20101D1*
X19981Y20063D1*
X20039Y20043D1*
X20077D1*
X20134Y20063D1*
X20173Y20101D1*
X20192Y20158D1*
Y20445D1*
X20545Y20388D2*
X20526Y20426D1*
X20468Y20445D1*
X20430D1*
X20373Y20426D1*
X20334Y20368D1*
X20315Y20273D1*
Y20177D1*
X20334Y20101D1*
X20373Y20062D1*
X20430Y20043D1*
X20449D1*
X20506Y20062D1*
X20545Y20101D1*
X20564Y20158D1*
Y20177D1*
X20545Y20235D1*
X20506Y20273D1*
X20449Y20292D1*
X20430D1*
X20373Y20273D1*
X20334Y20235D1*
X20315Y20177D1*
X19240Y10549D2*
Y10262D1*
X19259Y10205D1*
X19298Y10167D1*
X19355Y10147D1*
X19393D1*
X19451Y10167D1*
X19489Y10205D1*
X19508Y10262D1*
Y10549D1*
X19708Y10147D2*
X19900Y10549D1*
X19632D1*
X24542Y9356D2*
Y9070D1*
X24561Y9012D1*
X24600Y8974D1*
X24657Y8955D1*
X24695D1*
X24753Y8974D1*
X24791Y9012D1*
X24810Y9070D1*
Y9356D1*
X25029D2*
X24972Y9337D1*
X24953Y9299D1*
Y9261D1*
X24972Y9222D1*
X25010Y9203D1*
X25087Y9184D1*
X25144Y9165D1*
X25182Y9127D1*
X25201Y9089D1*
Y9031D1*
X25182Y8993D1*
X25163Y8974D1*
X25106Y8955D1*
X25029D1*
X24972Y8974D1*
X24953Y8993D1*
X24934Y9031D1*
Y9089D1*
X24953Y9127D1*
X24991Y9165D1*
X25048Y9184D1*
X25125Y9203D1*
X25163Y9222D1*
X25182Y9261D1*
Y9299D1*
X25163Y9337D1*
X25106Y9356D1*
X25029D1*
X14871Y9123D2*
Y8836D1*
X14890Y8778D1*
X14929Y8740D1*
X14986Y8721D1*
X15024D1*
X15082Y8740D1*
X15120Y8778D1*
X15139Y8836D1*
Y9123D1*
X15512Y8989D2*
X15492Y8931D1*
X15454Y8893D1*
X15397Y8874D1*
X15378D1*
X15320Y8893D1*
X15282Y8931D1*
X15263Y8989D1*
Y9008D1*
X15282Y9065D1*
X15320Y9103D1*
X15378Y9122D1*
X15397D1*
X15454Y9103D1*
X15492Y9065D1*
X15512Y8989D1*
Y8893D1*
X15492Y8797D1*
X15454Y8740D1*
X15397Y8721D1*
X15359D1*
X15301Y8740D1*
X15282Y8778D1*
X10122Y19551D2*
Y19264D1*
X10141Y19206D1*
X10180Y19168D1*
X10237Y19149D1*
X10275D1*
X10333Y19168D1*
X10371Y19206D1*
X10390Y19264D1*
Y19551D1*
X10514Y19474D2*
X10552Y19493D1*
X10610Y19550D1*
Y19149D1*
X10848Y19550D2*
X10791Y19531D1*
X10752Y19474D1*
X10733Y19378D1*
Y19321D1*
X10752Y19225D1*
X10791Y19168D1*
X10848Y19149D1*
X10886D1*
X10944Y19168D1*
X10982Y19225D1*
X11001Y19321D1*
Y19378D1*
X10982Y19474D1*
X10944Y19531D1*
X10886Y19550D1*
X10848D1*
X10982Y19474D2*
X10752Y19225D1*
X41442Y18865D2*
X41844Y19133D1*
X41442D2*
X41844Y18865D1*
X41519Y19256D2*
X41499Y19295D1*
X41442Y19352D1*
X41844D1*
X11795Y10554D2*
X12063Y10152D1*
Y10554D2*
X11795Y10152D1*
X12225Y10553D2*
X12435D1*
X12320Y10400D1*
X12378D1*
X12416Y10381D1*
X12435Y10362D1*
X12454Y10305D1*
Y10267D1*
X12435Y10209D1*
X12397Y10171D1*
X12339Y10152D1*
X12282D1*
X12225Y10171D1*
X12206Y10190D1*
X12186Y10228D1*
X25402Y24470D2*
X25364Y24451D1*
X25326Y24412D1*
X25307Y24374D1*
Y24298D1*
X25326Y24259D1*
X25364Y24221D1*
X25402Y24202D1*
X25460Y24183D1*
X25556D1*
X25613Y24202D1*
X25651Y24221D1*
X25689Y24259D1*
X25709Y24298D1*
Y24374D1*
X25689Y24412D1*
X25651Y24451D1*
X25613Y24470D1*
X25384Y24593D2*
X25364Y24632D1*
X25307Y24689D1*
X25709D1*
X25775Y24813D2*
Y25176D1*
X25384Y25300D2*
X25364Y25338D1*
X25307Y25396D1*
X25709D1*
X30808Y24376D2*
X30770Y24357D1*
X30732Y24319D1*
X30713Y24281D1*
Y24204D1*
X30732Y24166D1*
X30770Y24128D1*
X30808Y24108D1*
X30866Y24089D1*
X30962D1*
X31019Y24108D1*
X31057Y24128D1*
X31095Y24166D1*
X31115Y24204D1*
Y24281D1*
X31095Y24319D1*
X31057Y24357D1*
X31019Y24376D1*
X30809Y24519D2*
X30790D1*
X30751Y24538D1*
X30732Y24557D1*
X30713Y24596D1*
Y24672D1*
X30732Y24710D1*
X30751Y24729D1*
X30790Y24749D1*
X30828D1*
X30866Y24729D1*
X30923Y24691D1*
X31115Y24500D1*
Y24768D1*
X31181Y24891D2*
Y25255D1*
X30790Y25378D2*
X30770Y25417D1*
X30713Y25474D1*
X31115D1*
X23075Y25100D2*
X23037Y25081D1*
X22998Y25043D1*
X22979Y25005D1*
Y24928D1*
X22998Y24890D1*
X23037Y24852D1*
X23075Y24832D1*
X23132Y24813D1*
X23228D1*
X23285Y24832D1*
X23324Y24852D1*
X23362Y24890D1*
X23381Y24928D1*
Y25005D1*
X23362Y25043D1*
X23324Y25081D1*
X23285Y25100D1*
X22980Y25262D2*
Y25472D1*
X23133Y25358D1*
Y25415D1*
X23152Y25453D1*
X23171Y25472D1*
X23228Y25492D1*
X23266D1*
X23324Y25472D1*
X23362Y25434D1*
X23381Y25377D1*
Y25319D1*
X23362Y25262D1*
X23343Y25243D1*
X23305Y25224D1*
X23448Y25615D2*
Y25979D1*
X23056Y26102D2*
X23037Y26141D1*
X22980Y26198D1*
X23381D1*
X33041Y25101D2*
X33003Y25082D1*
X32965Y25043D1*
X32946Y25005D1*
Y24929D1*
X32965Y24890D1*
X33003Y24852D1*
X33041Y24833D1*
X33099Y24814D1*
X33195D1*
X33252Y24833D1*
X33290Y24852D1*
X33328Y24890D1*
X33348Y24929D1*
Y25005D1*
X33328Y25043D1*
X33290Y25082D1*
X33252Y25101D1*
X33348Y25416D2*
X32946D1*
X33214Y25224D1*
Y25511D1*
X33414Y25635D2*
Y25998D1*
X33023Y26122D2*
X33003Y26160D1*
X32946Y26218D1*
X33348D1*
X30793Y30877D2*
X30774Y30915D1*
X30736Y30954D1*
X30698Y30973D1*
X30621D1*
X30583Y30954D1*
X30545Y30915D1*
X30525Y30877D1*
X30506Y30820D1*
Y30724D1*
X30525Y30667D1*
X30545Y30628D1*
X30583Y30590D1*
X30621Y30571D1*
X30698D1*
X30736Y30590D1*
X30774Y30628D1*
X30793Y30667D1*
X31146Y30972D2*
X30955D1*
X30936Y30800D1*
X30955Y30819D1*
X31013Y30839D1*
X31070D1*
X31127Y30819D1*
X31166Y30781D1*
X31185Y30724D1*
Y30686D1*
X31166Y30628D1*
X31127Y30590D1*
X31070Y30571D1*
X31013D1*
X30955Y30590D1*
X30936Y30609D1*
X30917Y30647D1*
X31308Y30504D2*
X31672D1*
X31795Y30896D2*
X31834Y30915D1*
X31891Y30972D1*
Y30571D1*
X23305Y28210D2*
X23286Y28248D1*
X23247Y28287D1*
X23209Y28306D1*
X23133D1*
X23094Y28287D1*
X23056Y28248D1*
X23037Y28210D1*
X23018Y28153D1*
Y28057D1*
X23037Y28000D1*
X23056Y27961D1*
X23094Y27923D1*
X23133Y27904D1*
X23209D1*
X23247Y27923D1*
X23286Y27961D1*
X23305Y28000D1*
X23658Y28248D2*
X23639Y28286D1*
X23581Y28305D1*
X23543D1*
X23486Y28286D1*
X23447Y28229D1*
X23428Y28133D1*
Y28038D1*
X23447Y27961D1*
X23486Y27923D1*
X23543Y27904D1*
X23562D1*
X23619Y27923D1*
X23658Y27961D1*
X23677Y28019D1*
Y28038D1*
X23658Y28095D1*
X23619Y28133D1*
X23562Y28152D1*
X23543D1*
X23486Y28133D1*
X23447Y28095D1*
X23428Y28038D1*
X23800Y27837D2*
X24164D1*
X24287Y28229D2*
X24326Y28248D1*
X24383Y28305D1*
Y27904D1*
X26793Y25350D2*
X26755Y25331D1*
X26716Y25293D1*
X26697Y25255D1*
Y25178D1*
X26716Y25140D1*
X26755Y25102D1*
X26793Y25082D1*
X26850Y25063D1*
X26946D1*
X27003Y25082D1*
X27042Y25102D1*
X27080Y25140D1*
X27099Y25178D1*
Y25255D1*
X27080Y25293D1*
X27042Y25331D1*
X27003Y25350D1*
X27099Y25550D2*
X26698Y25742D1*
Y25474D1*
X27166Y25865D2*
Y26229D1*
X26774Y26352D2*
X26755Y26391D1*
X26698Y26448D1*
X27099D1*
X29252Y25394D2*
X29214Y25375D1*
X29176Y25337D1*
X29157Y25299D1*
Y25222D1*
X29176Y25184D1*
X29214Y25146D1*
X29252Y25126D1*
X29310Y25107D1*
X29406D1*
X29463Y25126D1*
X29501Y25146D1*
X29539Y25184D1*
X29559Y25222D1*
Y25299D1*
X29539Y25337D1*
X29501Y25375D1*
X29463Y25394D1*
X29157Y25613D2*
X29176Y25556D1*
X29214Y25537D1*
X29253D1*
X29291Y25556D1*
X29310Y25594D1*
X29329Y25671D1*
X29348Y25728D1*
X29387Y25766D1*
X29425Y25785D1*
X29482D1*
X29520Y25766D1*
X29540Y25747D1*
X29559Y25690D1*
Y25613D1*
X29540Y25556D1*
X29520Y25537D1*
X29482Y25518D1*
X29425D1*
X29387Y25537D1*
X29348Y25575D1*
X29329Y25632D1*
X29310Y25709D1*
X29291Y25747D1*
X29253Y25766D1*
X29214D1*
X29176Y25747D1*
X29157Y25690D1*
Y25613D1*
X29625Y25909D2*
Y26272D1*
X29234Y26396D2*
X29214Y26434D1*
X29157Y26492D1*
X29559D1*
X27529Y26942D2*
X27491Y26923D1*
X27452Y26885D1*
X27433Y26847D1*
Y26770D1*
X27452Y26732D1*
X27491Y26694D1*
X27529Y26674D1*
X27586Y26655D1*
X27682D1*
X27739Y26674D1*
X27778Y26694D1*
X27816Y26732D1*
X27835Y26770D1*
Y26847D1*
X27816Y26885D1*
X27778Y26923D1*
X27739Y26942D1*
X27567Y27314D2*
X27625Y27295D1*
X27663Y27257D1*
X27682Y27200D1*
Y27180D1*
X27663Y27123D1*
X27625Y27085D1*
X27567Y27066D1*
X27548D1*
X27491Y27085D1*
X27453Y27123D1*
X27434Y27180D1*
Y27200D1*
X27453Y27257D1*
X27491Y27295D1*
X27567Y27314D1*
X27663D1*
X27759Y27295D1*
X27816Y27257D1*
X27835Y27200D1*
Y27161D1*
X27816Y27104D1*
X27778Y27085D1*
X27902Y27438D2*
Y27801D1*
X27510Y27925D2*
X27491Y27963D1*
X27434Y28021D1*
X27835D1*
X30255Y22894D2*
X30217Y22875D1*
X30178Y22837D1*
X30159Y22799D1*
Y22722D1*
X30178Y22684D1*
X30217Y22646D1*
X30255Y22626D1*
X30312Y22607D1*
X30408D1*
X30465Y22626D1*
X30503Y22646D1*
X30541Y22684D1*
X30561Y22722D1*
Y22799D1*
X30541Y22837D1*
X30503Y22875D1*
X30465Y22894D1*
X30236Y23018D2*
X30217Y23056D1*
X30159Y23114D1*
X30561D1*
X30159Y23276D2*
Y23486D1*
X30312Y23371D1*
Y23429D1*
X30331Y23467D1*
X30350Y23486D1*
X30408Y23505D1*
X30446D1*
X30503Y23486D1*
X30542Y23448D1*
X30561Y23390D1*
Y23333D1*
X30542Y23276D1*
X30522Y23257D1*
X30484Y23237D1*
X30627Y23629D2*
Y23992D1*
X30236Y24116D2*
X30217Y24154D1*
X30159Y24212D1*
X30561D1*
X25732Y20672D2*
X25694Y20653D1*
X25655Y20615D1*
X25636Y20577D1*
Y20500D1*
X25655Y20462D1*
X25694Y20424D1*
X25732Y20404D1*
X25789Y20385D1*
X25885D1*
X25942Y20404D1*
X25981Y20424D1*
X26019Y20462D1*
X26038Y20500D1*
Y20577D1*
X26019Y20615D1*
X25981Y20653D1*
X25942Y20672D1*
X25713Y20796D2*
X25694Y20834D1*
X25637Y20892D1*
X26038D1*
Y21206D2*
X25637D1*
X25904Y21015D1*
Y21302D1*
X26104Y21425D2*
Y21789D1*
X25713Y21912D2*
X25694Y21951D1*
X25637Y22008D1*
X26038D1*
X27285Y22799D2*
Y22397D1*
X27696Y22704D2*
X27677Y22742D1*
X27638Y22780D1*
X27600Y22799D1*
X27524D1*
X27485Y22780D1*
X27447Y22742D1*
X27428Y22704D1*
X27409Y22646D1*
Y22550D1*
X27428Y22493D1*
X27447Y22455D1*
X27485Y22417D1*
X27524Y22397D1*
X27600D1*
X27638Y22417D1*
X27677Y22455D1*
X27696Y22493D1*
X27839Y22703D2*
Y22722D1*
X27858Y22761D1*
X27877Y22780D1*
X27915Y22799D1*
X27992D1*
X28030Y22780D1*
X28049Y22761D1*
X28068Y22722D1*
Y22684D1*
X28049Y22646D1*
X28011Y22589D1*
X27819Y22397D1*
X28087D1*
X28211Y22331D2*
X28574D1*
X28698Y22722D2*
X28736Y22742D1*
X28794Y22799D1*
Y22397D1*
X27695Y20864D2*
Y20558D1*
X27676Y20500D1*
X27656Y20481D1*
X27618Y20462D1*
X27580D1*
X27542Y20481D1*
X27523Y20500D1*
X27503Y20558D1*
Y20596D1*
X27818Y20787D2*
X27857Y20806D1*
X27914Y20863D1*
Y20462D1*
X28038Y20396D2*
X28401D1*
X28525Y20787D2*
X28563Y20806D1*
X28621Y20863D1*
Y20462D1*
X23141Y23190D2*
Y23362D1*
X23122Y23419D1*
X23103Y23439D1*
X23065Y23458D1*
X23026D1*
X22988Y23439D1*
X22969Y23419D1*
X22950Y23362D1*
Y23190D1*
X23352D1*
X23141Y23324D2*
X23352Y23458D1*
X23027Y23581D2*
X23007Y23620D1*
X22950Y23677D1*
X23352D1*
X23418Y23801D2*
Y24164D1*
X23027Y24288D2*
X23007Y24326D1*
X22950Y24384D1*
X23352D1*
X33168Y23150D2*
Y23322D1*
X33149Y23380D1*
X33130Y23399D1*
X33091Y23418D1*
X33053D1*
X33015Y23399D1*
X32996Y23380D1*
X32977Y23322D1*
Y23150D1*
X33378D1*
X33168Y23284D2*
X33378Y23418D1*
X33072Y23561D2*
X33053D1*
X33015Y23580D1*
X32996Y23599D1*
X32977Y23638D1*
Y23714D1*
X32996Y23752D1*
X33015Y23771D1*
X33053Y23791D1*
X33091D1*
X33130Y23771D1*
X33187Y23733D1*
X33378Y23542D1*
Y23810D1*
X33445Y23933D2*
Y24297D1*
X33053Y24420D2*
X33034Y24459D1*
X32977Y24516D1*
X33378D1*
X23037Y27514D2*
X23209D1*
X23266Y27533D1*
X23285Y27552D1*
X23304Y27590D1*
Y27629D1*
X23285Y27667D1*
X23266Y27686D1*
X23209Y27705D1*
X23037D1*
Y27303D1*
X23171Y27514D2*
X23304Y27303D1*
X23466Y27705D2*
X23676D1*
X23562Y27552D1*
X23619D1*
X23657Y27533D1*
X23676Y27514D1*
X23696Y27456D1*
Y27418D1*
X23676Y27361D1*
X23638Y27322D1*
X23581Y27303D1*
X23524D1*
X23466Y27322D1*
X23447Y27342D1*
X23428Y27380D1*
X23819Y27237D2*
X24183D1*
X24306Y27628D2*
X24345Y27648D1*
X24402Y27705D1*
Y27303D1*
X30525Y30254D2*
X30697D1*
X30754Y30274D1*
X30774Y30293D1*
X30793Y30331D1*
Y30369D1*
X30774Y30407D1*
X30754Y30427D1*
X30697Y30446D1*
X30525D1*
Y30044D1*
X30659Y30254D2*
X30793Y30044D1*
X31108D2*
Y30445D1*
X30916Y30178D1*
X31203D1*
X31327Y29978D2*
X31690D1*
X31814Y30369D2*
X31852Y30388D1*
X31909Y30445D1*
Y30044D1*
X26144Y25294D2*
Y25466D1*
X26125Y25524D1*
X26106Y25543D1*
X26068Y25562D1*
X26029D1*
X25991Y25543D1*
X25972Y25524D1*
X25953Y25466D1*
Y25294D1*
X26355D1*
X26144Y25428D2*
X26355Y25562D1*
X25953Y25915D2*
Y25724D1*
X26125Y25705D1*
X26106Y25724D1*
X26087Y25782D1*
Y25839D1*
X26106Y25896D1*
X26144Y25935D1*
X26202Y25954D1*
X26240D1*
X26297Y25935D1*
X26336Y25896D1*
X26355Y25839D1*
Y25782D1*
X26336Y25724D1*
X26316Y25705D1*
X26278Y25686D1*
X26421Y26077D2*
Y26440D1*
X26030Y26564D2*
X26010Y26602D1*
X25953Y26660D1*
X26355D1*
X30258Y28166D2*
Y28338D1*
X30239Y28396D1*
X30220Y28415D1*
X30182Y28434D1*
X30143D1*
X30105Y28415D1*
X30086Y28396D1*
X30067Y28338D1*
Y28166D1*
X30469D1*
X30258Y28300D2*
X30469Y28434D1*
X30124Y28787D2*
X30086Y28768D1*
X30067Y28711D1*
Y28673D1*
X30086Y28615D1*
X30144Y28577D1*
X30239Y28558D1*
X30335D1*
X30411Y28577D1*
X30450Y28615D1*
X30469Y28673D1*
Y28692D1*
X30450Y28749D1*
X30411Y28787D1*
X30354Y28806D1*
X30335D1*
X30277Y28787D1*
X30239Y28749D1*
X30220Y28692D1*
Y28673D1*
X30239Y28615D1*
X30277Y28577D1*
X30335Y28558D1*
X30535Y28930D2*
Y29293D1*
X30144Y29417D2*
X30124Y29455D1*
X30067Y29513D1*
X30469D1*
X23018Y26903D2*
X23190D1*
X23247Y26922D1*
X23267Y26941D1*
X23286Y26979D1*
Y27018D1*
X23267Y27056D1*
X23247Y27075D1*
X23190Y27094D1*
X23018D1*
Y26692D1*
X23152Y26903D2*
X23286Y26692D1*
X23486D2*
X23677Y27094D1*
X23409D1*
X23801Y26626D2*
X24164D1*
X24288Y27017D2*
X24326Y27037D1*
X24384Y27094D1*
Y26692D1*
X30542Y29725D2*
X30714D1*
X30771Y29744D1*
X30791Y29763D1*
X30810Y29801D1*
Y29840D1*
X30791Y29878D1*
X30771Y29897D1*
X30714Y29916D1*
X30542D1*
Y29514D1*
X30676Y29725D2*
X30810Y29514D1*
X31029Y29916D2*
X30972Y29897D1*
X30952Y29859D1*
Y29820D1*
X30972Y29782D1*
X31010Y29763D1*
X31086Y29744D1*
X31144Y29725D1*
X31182Y29686D1*
X31201Y29648D1*
Y29591D1*
X31182Y29553D1*
X31163Y29533D1*
X31105Y29514D1*
X31029D1*
X30972Y29533D1*
X30952Y29553D1*
X30933Y29591D1*
Y29648D1*
X30952Y29686D1*
X30991Y29725D1*
X31048Y29744D1*
X31124Y29763D1*
X31163Y29782D1*
X31182Y29820D1*
Y29859D1*
X31163Y29897D1*
X31105Y29916D1*
X31029D1*
X31324Y29448D2*
X31688D1*
X31811Y29839D2*
X31850Y29859D1*
X31907Y29916D1*
Y29514D1*
X28468Y26639D2*
Y26811D1*
X28448Y26869D1*
X28429Y26888D1*
X28391Y26907D1*
X28353D1*
X28315Y26888D1*
X28295Y26869D1*
X28276Y26811D1*
Y26639D1*
X28678D1*
X28468Y26773D2*
X28678Y26907D1*
X28372Y27050D2*
X28353D1*
X28315Y27069D1*
X28296Y27088D1*
X28277Y27126D1*
Y27203D1*
X28296Y27241D1*
X28315Y27260D1*
X28353Y27279D1*
X28391D1*
X28430Y27260D1*
X28487Y27222D1*
X28678Y27030D1*
Y27298D1*
X28277Y27460D2*
Y27670D1*
X28430Y27556D1*
Y27613D1*
X28449Y27651D1*
X28468Y27670D1*
X28525Y27690D1*
X28563D1*
X28621Y27670D1*
X28659Y27632D1*
X28678Y27575D1*
Y27517D1*
X28659Y27460D1*
X28640Y27441D1*
X28602Y27422D1*
X28745Y27813D2*
Y28177D1*
X28353Y28300D2*
X28334Y28339D1*
X28277Y28396D1*
X28678D1*
X30158Y18533D2*
Y18705D1*
X30139Y18762D1*
X30120Y18782D1*
X30082Y18801D1*
X30043D1*
X30005Y18782D1*
X29986Y18762D1*
X29967Y18705D1*
Y18533D1*
X30369D1*
X30158Y18667D2*
X30369Y18801D1*
X30063Y18944D2*
X30044D1*
X30005Y18963D1*
X29986Y18982D1*
X29967Y19020D1*
Y19097D1*
X29986Y19135D1*
X30005Y19154D1*
X30044Y19173D1*
X30082D1*
X30120Y19154D1*
X30177Y19116D1*
X30369Y18924D1*
Y19192D1*
Y19507D2*
X29967D1*
X30235Y19316D1*
Y19603D1*
X30435Y19726D2*
Y20090D1*
X30044Y20213D2*
X30024Y20252D1*
X29967Y20309D1*
X30369D1*
X31475Y20382D2*
Y20554D1*
X31456Y20611D1*
X31437Y20631D1*
X31399Y20650D1*
X31360D1*
X31322Y20631D1*
X31303Y20611D1*
X31284Y20554D1*
Y20382D1*
X31686D1*
X31475Y20516D2*
X31686Y20650D1*
X31380Y20793D2*
X31361D1*
X31322Y20812D1*
X31303Y20831D1*
X31284Y20869D1*
Y20946D1*
X31303Y20984D1*
X31322Y21003D1*
X31361Y21022D1*
X31399D1*
X31437Y21003D1*
X31494Y20965D1*
X31686Y20773D1*
Y21041D1*
X31284Y21394D2*
Y21203D1*
X31456Y21184D1*
X31437Y21203D1*
X31418Y21261D1*
Y21318D1*
X31437Y21375D1*
X31475Y21413D1*
X31533Y21433D1*
X31571D1*
X31628Y21413D1*
X31667Y21375D1*
X31686Y21318D1*
Y21261D1*
X31667Y21203D1*
X31647Y21184D1*
X31609Y21165D1*
X31752Y21556D2*
Y21919D1*
X31361Y22043D2*
X31341Y22081D1*
X31284Y22139D1*
X31686D1*
X24765Y20493D2*
Y20665D1*
X24746Y20723D1*
X24727Y20742D1*
X24689Y20761D1*
X24650D1*
X24612Y20742D1*
X24593Y20723D1*
X24574Y20665D1*
Y20493D1*
X24976D1*
X24765Y20627D2*
X24976Y20761D1*
X24670Y20904D2*
X24651D1*
X24612Y20923D1*
X24593Y20942D1*
X24574Y20981D1*
Y21057D1*
X24593Y21095D1*
X24612Y21114D1*
X24651Y21134D1*
X24689D1*
X24727Y21114D1*
X24784Y21076D1*
X24976Y20885D1*
Y21153D1*
X24574Y21372D2*
X24593Y21315D1*
X24631Y21295D1*
X24670D1*
X24708Y21315D1*
X24727Y21353D1*
X24746Y21429D1*
X24765Y21487D1*
X24804Y21525D1*
X24842Y21544D1*
X24899D1*
X24937Y21525D1*
X24957Y21506D1*
X24976Y21448D1*
Y21372D1*
X24957Y21315D1*
X24937Y21295D1*
X24899Y21276D1*
X24842D1*
X24804Y21295D1*
X24765Y21334D1*
X24746Y21391D1*
X24727Y21467D1*
X24708Y21506D1*
X24670Y21525D1*
X24631D1*
X24593Y21506D1*
X24574Y21448D1*
Y21372D1*
X25042Y21667D2*
Y22031D1*
X24651Y22154D2*
X24631Y22193D1*
X24574Y22250D1*
X24976D1*
X29656Y18514D2*
Y18686D1*
X29636Y18744D1*
X29617Y18763D1*
X29579Y18782D1*
X29541D1*
X29503Y18763D1*
X29484Y18744D1*
X29465Y18686D1*
X29464Y18514D1*
X29866D1*
X29656Y18648D2*
X29866Y18782D1*
Y19097D2*
X29465D1*
X29732Y18906D1*
Y19193D1*
X29541Y19316D2*
X29522Y19355D1*
X29465Y19412D1*
X29866D1*
X29933Y19536D2*
Y19899D1*
X29541Y20023D2*
X29522Y20061D1*
X29465Y20119D1*
X29866D1*
X38831Y24594D2*
X38793Y24575D1*
X38754Y24536D1*
X38735Y24498D1*
Y24422D1*
X38754Y24383D1*
X38793Y24345D1*
X38831Y24326D1*
X38888Y24307D1*
X38984D1*
X39041Y24326D1*
X39080Y24345D1*
X39118Y24383D1*
X39137Y24422D1*
Y24498D1*
X39118Y24536D1*
X39080Y24575D1*
X39041Y24594D1*
X38812Y24717D2*
X38793Y24756D1*
X38736Y24813D1*
X39137D1*
X39204Y24937D2*
Y25300D1*
X38831Y25443D2*
X38812D1*
X38774Y25462D1*
X38755Y25481D1*
X38736Y25519D1*
Y25596D1*
X38755Y25634D1*
X38774Y25653D1*
X38812Y25672D1*
X38850D1*
X38889Y25653D1*
X38946Y25615D1*
X39137Y25423D1*
Y25691D1*
X44929Y24613D2*
X44891Y24594D1*
X44853Y24555D1*
X44834Y24517D1*
Y24441D1*
X44853Y24402D1*
X44891Y24364D1*
X44929Y24345D1*
X44987Y24326D1*
X45083D1*
X45140Y24345D1*
X45178Y24364D1*
X45216Y24402D1*
X45236Y24441D1*
Y24517D1*
X45216Y24555D1*
X45178Y24594D1*
X45140Y24613D1*
X44930Y24756D2*
X44911D1*
X44872Y24775D1*
X44853Y24794D1*
X44834Y24832D1*
Y24909D1*
X44853Y24947D1*
X44872Y24966D1*
X44911Y24985D1*
X44949D1*
X44987Y24966D1*
X45044Y24928D1*
X45236Y24736D1*
Y25004D1*
X45302Y25128D2*
Y25491D1*
X44930Y25634D2*
X44911D1*
X44872Y25653D1*
X44853Y25672D1*
X44834Y25711D1*
Y25787D1*
X44853Y25825D1*
X44872Y25844D1*
X44911Y25864D1*
X44949D1*
X44987Y25844D1*
X45044Y25806D1*
X45236Y25615D1*
Y25883D1*
X36669Y24995D2*
X36631Y24976D1*
X36593Y24937D1*
X36574Y24899D1*
Y24823D1*
X36593Y24784D1*
X36631Y24746D1*
X36669Y24727D1*
X36727Y24708D1*
X36823D1*
X36880Y24727D1*
X36918Y24746D1*
X36956Y24784D1*
X36976Y24823D1*
Y24899D1*
X36956Y24937D1*
X36918Y24976D1*
X36880Y24995D1*
X36574Y25157D2*
Y25367D1*
X36727Y25252D1*
Y25310D1*
X36746Y25348D1*
X36765Y25367D1*
X36823Y25386D1*
X36861D1*
X36918Y25367D1*
X36957Y25329D1*
X36976Y25271D1*
Y25214D1*
X36957Y25157D1*
X36937Y25138D1*
X36899Y25118D1*
X37042Y25510D2*
Y25873D1*
X36670Y26016D2*
X36651D1*
X36612Y26035D1*
X36593Y26054D1*
X36574Y26092D1*
Y26169D1*
X36593Y26207D1*
X36612Y26226D1*
X36651Y26245D1*
X36689D1*
X36727Y26226D1*
X36784Y26188D1*
X36976Y25996D1*
Y26264D1*
X47146Y24976D2*
X47108Y24957D1*
X47069Y24919D1*
X47050Y24881D1*
Y24804D1*
X47069Y24766D1*
X47108Y24728D1*
X47146Y24708D1*
X47203Y24689D1*
X47299D1*
X47356Y24708D1*
X47394Y24728D1*
X47433Y24766D1*
X47452Y24804D1*
Y24881D1*
X47433Y24919D1*
X47394Y24957D1*
X47356Y24976D1*
X47452Y25291D2*
X47050D1*
X47318Y25100D1*
Y25387D1*
X47518Y25510D2*
Y25874D1*
X47146Y26017D2*
X47127D1*
X47089Y26036D1*
X47069Y26055D1*
X47050Y26093D1*
Y26170D1*
X47069Y26208D1*
X47089Y26227D1*
X47127Y26246D1*
X47165D1*
X47203Y26227D1*
X47261Y26189D1*
X47452Y25997D1*
Y26265D1*
X46284Y28288D2*
X46265Y28326D1*
X46226Y28364D1*
X46188Y28383D1*
X46112D1*
X46073Y28364D1*
X46035Y28326D1*
X46016Y28288D1*
X45997Y28230D1*
Y28135D1*
X46016Y28078D1*
X46035Y28039D1*
X46073Y28001D1*
X46112Y27982D1*
X46188D1*
X46226Y28001D1*
X46265Y28039D1*
X46284Y28078D1*
X46637Y28383D2*
X46446D1*
X46427Y28211D1*
X46446Y28230D1*
X46503Y28249D1*
X46560D1*
X46618Y28230D1*
X46656Y28192D1*
X46675Y28135D1*
Y28097D1*
X46656Y28039D1*
X46618Y28001D1*
X46560Y27982D1*
X46503D1*
X46446Y28001D1*
X46427Y28020D1*
X46407Y28058D1*
X46799Y27915D2*
X47162D1*
X47305Y28288D2*
Y28307D1*
X47324Y28345D1*
X47343Y28364D1*
X47381Y28383D1*
X47458D1*
X47496Y28364D1*
X47515Y28345D1*
X47534Y28307D1*
Y28269D1*
X47515Y28230D1*
X47477Y28173D1*
X47286Y27982D1*
X47553D1*
X38575Y30509D2*
X38556Y30547D1*
X38517Y30585D1*
X38479Y30604D1*
X38403D1*
X38364Y30585D1*
X38326Y30547D1*
X38307Y30509D1*
X38288Y30451D1*
Y30355D1*
X38307Y30298D1*
X38326Y30260D1*
X38364Y30222D1*
X38403Y30202D1*
X38479D1*
X38517Y30222D1*
X38556Y30260D1*
X38575Y30298D1*
X38928Y30547D2*
X38909Y30585D1*
X38851Y30604D1*
X38813D1*
X38756Y30585D1*
X38717Y30527D1*
X38698Y30432D1*
Y30336D1*
X38717Y30260D1*
X38756Y30221D1*
X38813Y30202D1*
X38832D1*
X38889Y30221D1*
X38928Y30260D1*
X38947Y30317D1*
Y30336D1*
X38928Y30394D1*
X38889Y30432D1*
X38832Y30451D1*
X38813D1*
X38756Y30432D1*
X38717Y30394D1*
X38698Y30336D1*
X39070Y30136D2*
X39434D1*
X39577Y30508D2*
Y30527D1*
X39596Y30566D1*
X39615Y30585D1*
X39653Y30604D1*
X39730D1*
X39768Y30585D1*
X39787Y30566D1*
X39806Y30527D1*
Y30489D1*
X39787Y30451D1*
X39749Y30394D1*
X39557Y30202D1*
X39825D1*
X40803Y25235D2*
X40765Y25216D1*
X40727Y25178D1*
X40708Y25140D1*
Y25063D1*
X40727Y25025D1*
X40765Y24987D1*
X40803Y24967D1*
X40861Y24948D1*
X40957D1*
X41014Y24967D1*
X41052Y24987D1*
X41090Y25025D1*
X41110Y25063D1*
Y25140D1*
X41090Y25178D1*
X41052Y25216D1*
X41014Y25235D1*
X41110Y25435D2*
X40708Y25627D1*
Y25359D1*
X41176Y25750D2*
Y26114D1*
X40804Y26257D2*
X40785D1*
X40746Y26276D1*
X40727Y26295D1*
X40708Y26333D1*
Y26410D1*
X40727Y26448D1*
X40746Y26467D1*
X40785Y26486D1*
X40823D1*
X40861Y26467D1*
X40918Y26429D1*
X41110Y26237D1*
Y26505D1*
X43282Y25259D2*
X43244Y25240D1*
X43206Y25202D1*
X43187Y25164D1*
Y25087D1*
X43206Y25049D1*
X43244Y25011D1*
X43282Y24991D1*
X43340Y24972D1*
X43436D1*
X43493Y24991D1*
X43531Y25011D1*
X43569Y25049D1*
X43589Y25087D1*
Y25164D1*
X43569Y25202D1*
X43531Y25240D1*
X43493Y25259D1*
X43187Y25478D2*
X43206Y25421D1*
X43244Y25402D1*
X43283D1*
X43321Y25421D1*
X43340Y25459D1*
X43359Y25536D1*
X43378Y25593D1*
X43417Y25631D1*
X43455Y25650D1*
X43512D1*
X43550Y25631D1*
X43570Y25612D1*
X43589Y25555D1*
Y25478D1*
X43570Y25421D1*
X43550Y25402D1*
X43512Y25383D1*
X43455D1*
X43417Y25402D1*
X43378Y25440D1*
X43359Y25497D1*
X43340Y25574D1*
X43321Y25612D1*
X43283Y25631D1*
X43244D1*
X43206Y25612D1*
X43187Y25555D1*
Y25478D1*
X43655Y25774D2*
Y26137D1*
X43283Y26280D2*
X43264D1*
X43225Y26299D1*
X43206Y26318D1*
X43187Y26357D1*
Y26433D1*
X43206Y26471D1*
X43225Y26490D1*
X43264Y26510D1*
X43302D1*
X43340Y26490D1*
X43397Y26452D1*
X43589Y26261D1*
Y26529D1*
X41605Y26875D2*
X41567Y26856D1*
X41528Y26817D1*
X41509Y26779D1*
Y26703D1*
X41528Y26664D1*
X41567Y26626D1*
X41605Y26607D1*
X41662Y26588D1*
X41758D1*
X41815Y26607D1*
X41853Y26626D1*
X41892Y26664D1*
X41911Y26703D1*
Y26779D1*
X41892Y26817D1*
X41853Y26856D1*
X41815Y26875D1*
X41643Y27247D2*
X41701Y27228D1*
X41739Y27189D1*
X41758Y27132D1*
Y27113D1*
X41739Y27056D1*
X41701Y27017D1*
X41643Y26998D1*
X41624D1*
X41567Y27017D1*
X41529Y27056D1*
X41509Y27113D1*
Y27132D1*
X41529Y27189D1*
X41567Y27228D1*
X41643Y27247D1*
X41739D1*
X41834Y27228D1*
X41892Y27189D1*
X41911Y27132D1*
Y27094D1*
X41892Y27037D1*
X41853Y27017D1*
X41977Y27370D2*
Y27734D1*
X41605Y27877D2*
X41586D1*
X41548Y27896D1*
X41529Y27915D1*
X41509Y27953D1*
Y28030D1*
X41529Y28068D1*
X41548Y28087D1*
X41586Y28106D1*
X41624D1*
X41662Y28087D1*
X41720Y28049D1*
X41911Y27857D1*
Y28125D1*
X44326Y22662D2*
X44288Y22643D1*
X44250Y22605D1*
X44231Y22567D1*
Y22490D1*
X44250Y22452D1*
X44288Y22414D1*
X44326Y22394D1*
X44383Y22375D1*
X44479D1*
X44536Y22394D1*
X44575Y22414D1*
X44613Y22452D1*
X44632Y22490D1*
Y22567D1*
X44613Y22605D1*
X44575Y22643D1*
X44536Y22662D1*
X44307Y22786D2*
X44288Y22824D1*
X44231Y22882D1*
X44632D1*
X44231Y23044D2*
Y23254D1*
X44384Y23139D1*
Y23197D1*
X44403Y23235D1*
X44422Y23254D1*
X44479Y23273D1*
X44517D1*
X44575Y23254D1*
X44613Y23216D1*
X44632Y23158D1*
Y23101D1*
X44613Y23044D1*
X44594Y23025D1*
X44556Y23005D1*
X44699Y23397D2*
Y23760D1*
X44326Y23903D2*
X44307D1*
X44269Y23922D1*
X44250Y23941D1*
X44231Y23980D1*
Y24056D1*
X44250Y24094D1*
X44269Y24113D1*
X44307Y24133D1*
X44345D1*
X44384Y24113D1*
X44441Y24075D1*
X44632Y23884D1*
Y24152D1*
X39656Y20587D2*
X39618Y20568D1*
X39579Y20529D1*
X39560Y20491D1*
Y20415D1*
X39579Y20376D1*
X39618Y20338D1*
X39656Y20319D1*
X39713Y20300D1*
X39809D1*
X39866Y20319D1*
X39905Y20338D1*
X39943Y20376D1*
X39962Y20415D1*
Y20491D1*
X39943Y20529D1*
X39905Y20568D1*
X39866Y20587D1*
X39637Y20710D2*
X39618Y20749D1*
X39561Y20806D1*
X39962D1*
Y21121D2*
X39561D1*
X39828Y20930D1*
Y21217D1*
X40028Y21340D2*
Y21704D1*
X39656Y21847D2*
X39637D1*
X39599Y21866D1*
X39580Y21885D1*
X39561Y21923D1*
Y22000D1*
X39580Y22038D1*
X39599Y22057D1*
X39637Y22076D1*
X39675D1*
X39714Y22057D1*
X39771Y22019D1*
X39962Y21827D1*
Y22095D1*
X41286Y22824D2*
Y22422D1*
X41697Y22729D2*
X41678Y22767D1*
X41639Y22805D1*
X41601Y22824D1*
X41525D1*
X41486Y22805D1*
X41448Y22767D1*
X41429Y22729D1*
X41410Y22671D1*
Y22575D1*
X41429Y22518D1*
X41448Y22480D1*
X41486Y22442D1*
X41525Y22422D1*
X41601D1*
X41639Y22442D1*
X41678Y22480D1*
X41697Y22518D1*
X41840Y22728D2*
Y22747D1*
X41859Y22786D1*
X41878Y22805D1*
X41916Y22824D1*
X41993D1*
X42031Y22805D1*
X42050Y22786D1*
X42069Y22747D1*
Y22709D1*
X42050Y22671D1*
X42012Y22614D1*
X41820Y22422D1*
X42088D1*
X42212Y22356D2*
X42575D1*
X42718Y22728D2*
Y22747D1*
X42737Y22786D1*
X42756Y22805D1*
X42795Y22824D1*
X42871D1*
X42909Y22805D1*
X42928Y22786D1*
X42947Y22747D1*
Y22709D1*
X42928Y22671D1*
X42890Y22614D1*
X42699Y22422D1*
X42967D1*
X41732Y20864D2*
Y20558D1*
X41713Y20500D1*
X41693Y20481D1*
X41655Y20462D1*
X41617D1*
X41579Y20481D1*
X41560Y20500D1*
X41540Y20558D1*
Y20596D1*
X41855Y20787D2*
X41894Y20806D1*
X41951Y20863D1*
Y20462D1*
X42075Y20396D2*
X42438D1*
X42581Y20768D2*
Y20787D1*
X42600Y20825D1*
X42619Y20844D1*
X42658Y20863D1*
X42734D1*
X42772Y20844D1*
X42791Y20825D1*
X42811Y20787D1*
Y20749D1*
X42791Y20710D1*
X42753Y20653D1*
X42562Y20462D1*
X42830D1*
X36761Y23150D2*
Y23322D1*
X36742Y23380D1*
X36723Y23399D1*
X36685Y23418D1*
X36646D1*
X36608Y23399D1*
X36589Y23380D1*
X36570Y23322D1*
Y23150D1*
X36972D1*
X36761Y23284D2*
X36972Y23418D1*
X36647Y23542D2*
X36627Y23580D1*
X36570Y23638D1*
X36972D1*
X37038Y23761D2*
Y24125D1*
X36666Y24267D2*
X36647D1*
X36608Y24286D1*
X36589Y24305D1*
X36570Y24344D1*
Y24420D1*
X36589Y24458D1*
X36608Y24477D1*
X36647Y24497D1*
X36685D1*
X36723Y24477D1*
X36780Y24439D1*
X36972Y24248D1*
Y24516D1*
X47268Y22968D2*
Y23140D1*
X47248Y23197D1*
X47229Y23217D1*
X47191Y23236D1*
X47153D1*
X47115Y23217D1*
X47095Y23197D1*
X47076Y23140D1*
Y22968D1*
X47478D1*
X47268Y23102D2*
X47478Y23236D1*
X47172Y23379D2*
X47153D1*
X47115Y23398D1*
X47096Y23417D1*
X47077Y23455D1*
Y23532D1*
X47096Y23570D1*
X47115Y23589D1*
X47153Y23608D1*
X47191D1*
X47230Y23589D1*
X47287Y23551D1*
X47478Y23359D1*
Y23627D1*
X47545Y23751D2*
Y24114D1*
X47172Y24257D2*
X47153D1*
X47115Y24276D1*
X47096Y24295D1*
X47077Y24334D1*
Y24410D1*
X47096Y24448D1*
X47115Y24467D1*
X47153Y24487D1*
X47191D1*
X47230Y24467D1*
X47287Y24429D1*
X47478Y24238D1*
Y24506D1*
X38338Y29892D2*
X38510D1*
X38568Y29911D1*
X38587Y29930D1*
X38606Y29968D1*
Y30007D1*
X38587Y30045D1*
X38568Y30064D1*
X38510Y30083D1*
X38338D1*
Y29681D1*
X38472Y29892D2*
X38606Y29681D1*
X38768Y30083D2*
X38978D1*
X38864Y29930D1*
X38921D1*
X38959Y29911D1*
X38978Y29892D1*
X38998Y29834D1*
Y29796D1*
X38978Y29739D1*
X38940Y29700D1*
X38883Y29681D1*
X38825D1*
X38768Y29700D1*
X38749Y29720D1*
X38730Y29758D1*
X39121Y29615D2*
X39485D1*
X39628Y29987D2*
Y30006D1*
X39647Y30045D1*
X39666Y30064D1*
X39704Y30083D1*
X39781D1*
X39819Y30064D1*
X39838Y30045D1*
X39857Y30006D1*
Y29968D1*
X39838Y29930D1*
X39800Y29873D1*
X39608Y29681D1*
X39876D1*
X46062Y27677D2*
X46234D1*
X46292Y27697D1*
X46311Y27716D1*
X46330Y27754D1*
Y27792D1*
X46311Y27830D1*
X46292Y27850D1*
X46234Y27869D1*
X46062D1*
Y27467D1*
X46196Y27677D2*
X46330Y27467D1*
X46645D2*
Y27868D1*
X46454Y27601D1*
X46740D1*
X46864Y27401D2*
X47227D1*
X47370Y27773D2*
Y27792D1*
X47389Y27830D1*
X47408Y27849D1*
X47447Y27868D1*
X47523D1*
X47561Y27849D1*
X47580Y27830D1*
X47600Y27792D1*
Y27754D1*
X47580Y27715D1*
X47542Y27658D1*
X47351Y27467D1*
X47619D1*
X39902Y25183D2*
Y25355D1*
X39882Y25412D1*
X39863Y25431D1*
X39825Y25450D1*
X39787D1*
X39749Y25431D1*
X39729Y25412D1*
X39710Y25355D1*
Y25183D1*
X40112D1*
X39902Y25317D2*
X40112Y25450D1*
X39711Y25803D2*
Y25612D1*
X39883Y25593D1*
X39864Y25612D1*
X39844Y25670D1*
Y25727D1*
X39864Y25784D1*
X39902Y25823D1*
X39959Y25842D1*
X39997D1*
X40055Y25823D1*
X40093Y25784D1*
X40112Y25727D1*
Y25670D1*
X40093Y25612D1*
X40074Y25593D1*
X40036Y25574D1*
X40179Y25965D2*
Y26329D1*
X39806Y26472D2*
X39787D1*
X39749Y26491D1*
X39730Y26510D1*
X39711Y26548D1*
Y26625D1*
X39730Y26663D1*
X39749Y26682D1*
X39787Y26701D1*
X39825D1*
X39864Y26682D1*
X39921Y26644D1*
X40112Y26452D1*
Y26720D1*
X44547Y28193D2*
Y28365D1*
X44527Y28423D1*
X44508Y28442D1*
X44470Y28461D1*
X44432D1*
X44394Y28442D1*
X44374Y28423D1*
X44355Y28365D1*
Y28193D1*
X44757D1*
X44547Y28327D2*
X44757Y28461D1*
X44413Y28814D2*
X44375Y28795D1*
X44356Y28738D1*
Y28700D1*
X44375Y28642D1*
X44432Y28604D1*
X44528Y28585D1*
X44623D1*
X44700Y28604D1*
X44738Y28642D1*
X44757Y28700D1*
Y28719D1*
X44738Y28776D1*
X44700Y28814D1*
X44642Y28833D1*
X44623D1*
X44566Y28814D1*
X44528Y28776D1*
X44509Y28719D1*
Y28700D1*
X44528Y28642D1*
X44566Y28604D1*
X44623Y28585D1*
X44824Y28957D2*
Y29320D1*
X44451Y29463D2*
X44432D1*
X44394Y29482D1*
X44375Y29501D1*
X44356Y29540D1*
Y29616D1*
X44375Y29654D1*
X44394Y29673D1*
X44432Y29693D1*
X44470D1*
X44509Y29673D1*
X44566Y29635D1*
X44757Y29444D1*
Y29712D1*
X38342Y29386D2*
X38514D1*
X38571Y29406D1*
X38590Y29425D1*
X38610Y29463D1*
Y29501D1*
X38590Y29539D1*
X38571Y29559D1*
X38514Y29578D1*
X38342D1*
Y29176D1*
X38476Y29386D2*
X38610Y29176D1*
X38810D2*
X39001Y29577D1*
X38733D1*
X39124Y29110D2*
X39488D1*
X39631Y29482D2*
Y29501D1*
X39650Y29539D1*
X39669Y29558D1*
X39707Y29577D1*
X39784D1*
X39822Y29558D1*
X39841Y29539D1*
X39860Y29501D1*
Y29463D1*
X39841Y29424D1*
X39803Y29367D1*
X39611Y29176D1*
X39879D1*
X46058Y27166D2*
X46230D1*
X46287Y27185D1*
X46307Y27204D1*
X46326Y27243D1*
Y27281D1*
X46307Y27319D1*
X46287Y27338D1*
X46230Y27357D1*
X46058D1*
Y26956D1*
X46192Y27166D2*
X46326Y26956D1*
X46545Y27357D2*
X46488Y27338D1*
X46468Y27300D1*
Y27262D1*
X46488Y27224D1*
X46526Y27204D1*
X46602Y27185D1*
X46660Y27166D1*
X46698Y27128D1*
X46717Y27090D1*
Y27032D1*
X46698Y26994D1*
X46679Y26975D1*
X46621Y26956D1*
X46545D1*
X46488Y26975D1*
X46468Y26994D1*
X46449Y27032D1*
Y27090D1*
X46468Y27128D1*
X46507Y27166D1*
X46564Y27185D1*
X46640Y27204D1*
X46679Y27224D1*
X46698Y27262D1*
Y27300D1*
X46679Y27338D1*
X46621Y27357D1*
X46545D1*
X46840Y26889D2*
X47204D1*
X47347Y27262D2*
Y27281D1*
X47366Y27319D1*
X47385Y27338D1*
X47423Y27357D1*
X47500D1*
X47538Y27338D1*
X47557Y27319D1*
X47576Y27281D1*
Y27243D1*
X47557Y27204D1*
X47519Y27147D1*
X47327Y26956D1*
X47595D1*
X42531Y26613D2*
Y26785D1*
X42512Y26843D1*
X42493Y26862D1*
X42455Y26881D1*
X42416D1*
X42378Y26862D1*
X42359Y26843D1*
X42340Y26785D1*
Y26613D1*
X42742D1*
X42531Y26747D2*
X42742Y26881D1*
X42436Y27024D2*
X42417D1*
X42378Y27043D1*
X42359Y27062D1*
X42340Y27101D1*
Y27177D1*
X42359Y27215D1*
X42378Y27234D1*
X42417Y27254D1*
X42455D1*
X42493Y27234D1*
X42550Y27196D1*
X42742Y27005D1*
Y27273D1*
X42340Y27435D2*
Y27645D1*
X42493Y27530D1*
Y27588D1*
X42512Y27626D1*
X42531Y27645D1*
X42589Y27664D1*
X42627D1*
X42684Y27645D1*
X42723Y27607D1*
X42742Y27549D1*
Y27492D1*
X42723Y27435D1*
X42703Y27416D1*
X42665Y27396D1*
X42808Y27788D2*
Y28151D1*
X42436Y28294D2*
X42417D1*
X42378Y28313D1*
X42359Y28332D1*
X42340Y28370D1*
Y28447D1*
X42359Y28485D1*
X42378Y28504D1*
X42417Y28523D1*
X42455D1*
X42493Y28504D1*
X42550Y28466D1*
X42742Y28275D1*
Y28542D1*
X37049Y18402D2*
Y18574D1*
X37030Y18631D1*
X37011Y18651D1*
X36973Y18670D1*
X36934D1*
X36896Y18651D1*
X36877Y18631D1*
X36858Y18574D1*
Y18402D1*
X37260D1*
X37049Y18536D2*
X37260Y18670D1*
X36954Y18812D2*
X36935D1*
X36896Y18832D1*
X36877Y18851D1*
X36858Y18889D1*
Y18965D1*
X36877Y19004D1*
X36896Y19023D1*
X36935Y19042D1*
X36973D1*
X37011Y19023D1*
X37068Y18984D1*
X37260Y18793D1*
Y19061D1*
Y19376D2*
X36858D1*
X37126Y19185D1*
Y19471D1*
X37326Y19595D2*
Y19958D1*
X36954Y20101D2*
X36935D1*
X36896Y20120D1*
X36877Y20139D1*
X36858Y20178D1*
Y20254D1*
X36877Y20292D1*
X36896Y20311D1*
X36935Y20331D1*
X36973D1*
X37011Y20311D1*
X37068Y20273D1*
X37260Y20082D1*
Y20350D1*
X45650Y20263D2*
Y20435D1*
X45631Y20492D1*
X45612Y20512D1*
X45574Y20531D1*
X45535D1*
X45497Y20512D1*
X45478Y20492D1*
X45459Y20435D1*
Y20263D1*
X45861D1*
X45650Y20397D2*
X45861Y20531D1*
X45555Y20674D2*
X45536D1*
X45497Y20693D1*
X45478Y20712D1*
X45459Y20750D1*
Y20827D1*
X45478Y20865D1*
X45497Y20884D1*
X45536Y20903D1*
X45574D1*
X45612Y20884D1*
X45669Y20846D1*
X45861Y20654D1*
Y20922D1*
X45459Y21275D2*
Y21084D1*
X45631Y21065D1*
X45612Y21084D1*
X45593Y21142D1*
Y21199D1*
X45612Y21256D1*
X45650Y21295D1*
X45708Y21314D1*
X45746D1*
X45803Y21295D1*
X45842Y21256D1*
X45861Y21199D1*
Y21142D1*
X45842Y21084D1*
X45822Y21065D1*
X45784Y21046D1*
X45927Y21437D2*
Y21801D1*
X45555Y21944D2*
X45536D1*
X45497Y21963D1*
X45478Y21982D1*
X45459Y22020D1*
Y22097D1*
X45478Y22135D1*
X45497Y22154D1*
X45536Y22173D1*
X45574D1*
X45612Y22154D1*
X45669Y22116D1*
X45861Y21924D1*
Y22192D1*
X38346Y20373D2*
Y20545D1*
X38327Y20602D1*
X38308Y20622D1*
X38270Y20641D1*
X38231D1*
X38193Y20622D1*
X38174Y20602D1*
X38155Y20545D1*
Y20373D1*
X38557D1*
X38346Y20507D2*
X38557Y20641D1*
X38251Y20784D2*
X38232D1*
X38193Y20803D1*
X38174Y20822D1*
X38155Y20860D1*
Y20937D1*
X38174Y20975D1*
X38193Y20994D1*
X38232Y21013D1*
X38270D1*
X38308Y20994D1*
X38365Y20956D1*
X38557Y20764D1*
Y21032D1*
X38155Y21251D2*
X38174Y21194D1*
X38212Y21175D1*
X38251D1*
X38289Y21194D1*
X38308Y21232D1*
X38327Y21309D1*
X38346Y21366D1*
X38385Y21404D1*
X38423Y21423D1*
X38480D1*
X38518Y21404D1*
X38538Y21385D1*
X38557Y21328D1*
Y21251D1*
X38538Y21194D1*
X38518Y21175D1*
X38480Y21156D1*
X38423D1*
X38385Y21175D1*
X38346Y21213D1*
X38327Y21270D1*
X38308Y21347D1*
X38289Y21385D1*
X38251Y21404D1*
X38212D1*
X38174Y21385D1*
X38155Y21328D1*
Y21251D1*
X38623Y21547D2*
Y21910D1*
X38251Y22053D2*
X38232D1*
X38193Y22072D1*
X38174Y22091D1*
X38155Y22130D1*
Y22206D1*
X38174Y22244D1*
X38193Y22263D1*
X38232Y22283D1*
X38270D1*
X38308Y22263D1*
X38365Y22225D1*
X38557Y22034D1*
Y22302D1*
X37594Y18428D2*
Y18600D1*
X37575Y18658D1*
X37556Y18677D1*
X37518Y18696D1*
X37479D1*
X37441Y18677D1*
X37422Y18658D1*
X37403Y18600D1*
Y18428D1*
X37805D1*
X37594Y18562D2*
X37805Y18696D1*
Y19011D2*
X37403D1*
X37671Y18820D1*
Y19107D1*
X37480Y19230D2*
X37460Y19269D1*
X37403Y19326D1*
X37805D1*
X37871Y19450D2*
Y19813D1*
X37499Y19956D2*
X37480D1*
X37441Y19975D1*
X37422Y19994D1*
X37403Y20033D1*
Y20109D1*
X37422Y20147D1*
X37441Y20166D1*
X37480Y20186D1*
X37518D1*
X37556Y20166D1*
X37613Y20128D1*
X37805Y19937D1*
Y20205D1*
X32683Y31877D2*
X32664Y31915D1*
X32626Y31954D1*
X32588Y31973D1*
X32511D1*
X32473Y31954D1*
X32435Y31915D1*
X32415Y31877D1*
X32396Y31820D1*
Y31724D1*
X32415Y31667D1*
X32435Y31628D1*
X32473Y31590D1*
X32511Y31571D1*
X32588D1*
X32626Y31590D1*
X32664Y31628D1*
X32683Y31667D1*
X32826Y31877D2*
Y31896D1*
X32845Y31934D1*
X32864Y31953D1*
X32902Y31972D1*
X32979D1*
X33017Y31953D1*
X33036Y31934D1*
X33055Y31896D1*
Y31858D1*
X33036Y31819D1*
X32998Y31762D1*
X32807Y31571D1*
X33074D1*
X33427Y31915D2*
X33408Y31953D1*
X33351Y31972D1*
X33313D1*
X33255Y31953D1*
X33217Y31896D1*
X33198Y31800D1*
Y31705D1*
X33217Y31628D1*
X33255Y31590D1*
X33313Y31571D1*
X33332D1*
X33389Y31590D1*
X33427Y31628D1*
X33446Y31686D1*
Y31705D1*
X33427Y31762D1*
X33389Y31800D1*
X33332Y31819D1*
X33313D1*
X33255Y31800D1*
X33217Y31762D1*
X33198Y31705D1*
X32659Y29887D2*
X32640Y29925D1*
X32602Y29964D1*
X32564Y29983D1*
X32487D1*
X32449Y29964D1*
X32411Y29925D1*
X32391Y29887D1*
X32372Y29830D1*
Y29734D1*
X32391Y29677D1*
X32411Y29638D1*
X32449Y29600D1*
X32487Y29581D1*
X32564D1*
X32602Y29600D1*
X32640Y29638D1*
X32659Y29677D1*
X32802Y29887D2*
Y29906D1*
X32821Y29944D1*
X32840Y29963D1*
X32879Y29982D1*
X32955D1*
X32993Y29963D1*
X33012Y29944D1*
X33032Y29906D1*
Y29868D1*
X33012Y29830D1*
X32974Y29772D1*
X32783Y29581D1*
X33051D1*
X33251D2*
X33442Y29982D1*
X33174D1*
X36772Y29918D2*
X36753Y29957D1*
X36715Y29995D1*
X36677Y30014D1*
X36600D1*
X36562Y29995D1*
X36524Y29957D1*
X36504Y29918D1*
X36485Y29861D1*
Y29765D1*
X36504Y29708D1*
X36524Y29670D1*
X36562Y29632D1*
X36600Y29612D1*
X36677D1*
X36715Y29632D1*
X36753Y29670D1*
X36772Y29708D1*
X36915Y29918D2*
Y29937D1*
X36934Y29976D1*
X36953Y29995D1*
X36992Y30014D1*
X37068D1*
X37106Y29995D1*
X37125Y29976D1*
X37145Y29937D1*
Y29899D1*
X37125Y29861D1*
X37087Y29804D1*
X36896Y29612D1*
X37164D1*
X37383Y30014D2*
X37326Y29995D1*
X37306Y29957D1*
Y29918D1*
X37326Y29880D1*
X37364Y29861D1*
X37440Y29842D1*
X37498Y29823D1*
X37536Y29784D1*
X37555Y29746D1*
Y29689D1*
X37536Y29651D1*
X37517Y29631D1*
X37459Y29612D1*
X37383D1*
X37326Y29631D1*
X37306Y29651D1*
X37287Y29689D1*
Y29746D1*
X37306Y29784D1*
X37345Y29823D1*
X37402Y29842D1*
X37478Y29861D1*
X37517Y29880D1*
X37536Y29918D1*
Y29957D1*
X37517Y29995D1*
X37459Y30014D1*
X37383D1*
X36783Y31956D2*
X36764Y31994D1*
X36725Y32032D1*
X36687Y32051D1*
X36611D1*
X36572Y32032D1*
X36534Y31994D1*
X36515Y31956D1*
X36496Y31898D1*
Y31802D1*
X36515Y31745D1*
X36534Y31707D1*
X36572Y31669D1*
X36611Y31649D1*
X36687D1*
X36725Y31669D1*
X36764Y31707D1*
X36783Y31745D1*
X36945Y32051D2*
X37155D1*
X37040Y31898D1*
X37098D1*
X37136Y31879D1*
X37155Y31860D1*
X37174Y31802D1*
Y31764D1*
X37155Y31707D1*
X37117Y31668D1*
X37059Y31649D1*
X37002D1*
X36945Y31668D1*
X36926Y31688D1*
X36906Y31726D1*
X37374Y31649D2*
X37565Y32051D1*
X37298D1*
X34614Y35594D2*
Y35192D1*
X35025Y35498D2*
X35006Y35536D1*
X34967Y35575D1*
X34929Y35594D1*
X34853D1*
X34814Y35575D1*
X34776Y35536D1*
X34757Y35498D1*
X34738Y35441D1*
Y35345D1*
X34757Y35288D1*
X34776Y35249D1*
X34814Y35211D1*
X34853Y35192D1*
X34929D1*
X34967Y35211D1*
X35006Y35249D1*
X35025Y35288D1*
X35187Y35593D2*
X35397D1*
X35282Y35440D1*
X35340D1*
X35378Y35421D1*
X35397Y35402D1*
X35416Y35345D1*
Y35307D1*
X35397Y35249D1*
X35359Y35211D1*
X35301Y35192D1*
X35244D1*
X35187Y35211D1*
X35168Y35230D1*
X35148Y35268D1*
X32572Y32475D2*
X32744D1*
X32802Y32494D1*
X32821Y32513D1*
X32840Y32551D1*
Y32590D1*
X32821Y32628D1*
X32802Y32647D1*
X32744Y32666D1*
X32572D1*
Y32264D1*
X32706Y32475D2*
X32840Y32264D1*
X32964Y32589D2*
X33002Y32609D1*
X33060Y32666D1*
Y32264D1*
X33432Y32532D2*
X33413Y32475D1*
X33375Y32436D1*
X33317Y32417D1*
X33298D1*
X33241Y32436D1*
X33203Y32475D1*
X33183Y32532D1*
Y32551D1*
X33203Y32609D1*
X33241Y32647D1*
X33298Y32666D1*
X33317D1*
X33375Y32647D1*
X33413Y32609D1*
X33432Y32532D1*
Y32436D1*
X33413Y32341D1*
X33375Y32283D1*
X33317Y32264D1*
X33279D1*
X33222Y32283D1*
X33203Y32322D1*
X34059Y26350D2*
Y26522D1*
X34039Y26580D1*
X34020Y26599D1*
X33982Y26618D1*
X33944D1*
X33906Y26599D1*
X33886Y26580D1*
X33867Y26522D1*
Y26350D1*
X34269D1*
X34059Y26484D2*
X34269Y26618D1*
X33963Y26761D2*
X33944D1*
X33906Y26780D1*
X33887Y26799D1*
X33868Y26838D1*
Y26914D1*
X33887Y26952D1*
X33906Y26971D1*
X33944Y26991D1*
X33982D1*
X34021Y26971D1*
X34078Y26933D1*
X34269Y26742D1*
Y27010D1*
X33868Y27248D2*
X33887Y27191D1*
X33944Y27152D1*
X34040Y27133D1*
X34097D1*
X34193Y27152D1*
X34250Y27191D1*
X34269Y27248D1*
Y27286D1*
X34250Y27344D1*
X34193Y27382D1*
X34097Y27401D1*
X34040D1*
X33944Y27382D1*
X33887Y27344D1*
X33868Y27286D1*
Y27248D1*
X33944Y27382D2*
X34193Y27152D1*
X32541Y31117D2*
X32713D1*
X32770Y31136D1*
X32790Y31155D1*
X32809Y31193D1*
Y31232D1*
X32790Y31270D1*
X32770Y31289D1*
X32713Y31308D1*
X32541D1*
Y30906D1*
X32675Y31117D2*
X32809Y30906D1*
X32971Y31308D2*
X33181D1*
X33066Y31155D1*
X33124D1*
X33162Y31136D1*
X33181Y31117D1*
X33200Y31059D1*
Y31021D1*
X33181Y30964D1*
X33143Y30925D1*
X33085Y30906D1*
X33028D1*
X32971Y30925D1*
X32952Y30945D1*
X32932Y30983D1*
X33324Y31231D2*
X33362Y31251D1*
X33420Y31308D1*
Y30906D1*
X37107Y31156D2*
X37279D1*
X37337Y31175D1*
X37356Y31194D1*
X37375Y31232D1*
Y31271D1*
X37356Y31309D1*
X37337Y31328D1*
X37279Y31347D1*
X37107D1*
Y30945D1*
X37241Y31156D2*
X37375Y30945D1*
X37537Y31347D2*
X37747D1*
X37632Y31194D1*
X37690D1*
X37728Y31175D1*
X37747Y31156D1*
X37766Y31098D1*
Y31060D1*
X37747Y31003D1*
X37709Y30964D1*
X37651Y30945D1*
X37594D1*
X37537Y30964D1*
X37518Y30984D1*
X37498Y31022D1*
X37909Y31251D2*
Y31270D1*
X37928Y31309D1*
X37947Y31328D1*
X37986Y31347D1*
X38062D1*
X38100Y31328D1*
X38119Y31309D1*
X38139Y31270D1*
Y31232D1*
X38119Y31194D1*
X38081Y31137D1*
X37890Y30945D1*
X38158D1*
X31748Y29120D2*
X31920D1*
X31977Y29139D1*
X31997Y29158D1*
X32016Y29196D1*
Y29235D1*
X31997Y29273D1*
X31977Y29292D1*
X31920Y29311D1*
X31748D1*
Y28909D1*
X31882Y29120D2*
X32016Y28909D1*
X32178Y29311D2*
X32388D1*
X32273Y29158D1*
X32331D1*
X32369Y29139D1*
X32388Y29120D1*
X32407Y29062D1*
Y29024D1*
X32388Y28967D1*
X32350Y28928D1*
X32292Y28909D1*
X32235D1*
X32178Y28928D1*
X32159Y28948D1*
X32139Y28986D1*
X32569Y29311D2*
X32779D1*
X32665Y29158D1*
X32722D1*
X32760Y29139D1*
X32779Y29120D1*
X32799Y29062D1*
Y29024D1*
X32779Y28967D1*
X32741Y28928D1*
X32684Y28909D1*
X32626D1*
X32569Y28928D1*
X32550Y28948D1*
X32531Y28986D1*
X36511Y29140D2*
X36683D1*
X36740Y29160D1*
X36759Y29179D1*
X36778Y29217D1*
Y29255D1*
X36759Y29293D1*
X36740Y29313D1*
X36683Y29332D1*
X36511D1*
Y28930D1*
X36645Y29140D2*
X36778Y28930D1*
X36940Y29331D2*
X37150D1*
X37036Y29178D1*
X37093D1*
X37131Y29159D1*
X37150Y29140D1*
X37170Y29083D1*
Y29045D1*
X37150Y28987D1*
X37112Y28949D1*
X37055Y28930D1*
X36998D1*
X36940Y28949D1*
X36921Y28968D1*
X36902Y29006D1*
X37485Y28930D2*
Y29331D1*
X37293Y29064D1*
X37580D1*
X33403Y26352D2*
Y26524D1*
X33383Y26582D1*
X33364Y26601D1*
X33326Y26620D1*
X33288D1*
X33250Y26601D1*
X33230Y26582D1*
X33211Y26524D1*
Y26352D1*
X33613D1*
X33403Y26486D2*
X33613Y26620D1*
Y26935D2*
X33212D1*
X33479Y26744D1*
Y27031D1*
X33212Y27193D2*
Y27403D1*
X33365Y27288D1*
Y27346D1*
X33384Y27384D1*
X33403Y27403D1*
X33460Y27422D1*
X33498D1*
X33556Y27403D1*
X33594Y27365D1*
X33613Y27307D1*
Y27250D1*
X33594Y27193D1*
X33575Y27174D1*
X33537Y27154D1*
X32377Y30457D2*
X32549D1*
X32606Y30476D1*
X32626Y30495D1*
X32645Y30534D1*
Y30572D1*
X32626Y30610D1*
X32606Y30629D1*
X32549Y30648D1*
X32377D1*
Y30247D1*
X32511Y30457D2*
X32645Y30247D1*
X32960D2*
Y30648D1*
X32768Y30381D1*
X33055D1*
X33370Y30247D2*
Y30648D1*
X33179Y30381D1*
X33466D1*
X36518Y32536D2*
X36690D1*
X36748Y32556D1*
X36767Y32575D1*
X36786Y32613D1*
Y32651D1*
X36767Y32689D1*
X36748Y32709D1*
X36690Y32728D1*
X36518D1*
Y32326D1*
X36652Y32536D2*
X36786Y32326D1*
X37101D2*
Y32727D1*
X36910Y32460D1*
X37197D1*
X37550Y32727D2*
X37359D1*
X37340Y32555D1*
X37359Y32574D1*
X37416Y32594D1*
X37473D1*
X37531Y32574D1*
X37569Y32536D1*
X37588Y32479D1*
Y32441D1*
X37569Y32383D1*
X37531Y32345D1*
X37473Y32326D1*
X37416D1*
X37359Y32345D1*
X37340Y32364D1*
X37320Y32402D1*
X36478Y26337D2*
Y26509D1*
X36459Y26566D1*
X36440Y26585D1*
X36402Y26604D1*
X36363D1*
X36325Y26585D1*
X36306Y26566D1*
X36287Y26509D1*
Y26337D1*
X36689D1*
X36478Y26470D2*
X36689Y26604D1*
Y26919D2*
X36287D1*
X36555Y26728D1*
Y27015D1*
X36344Y27368D2*
X36306Y27349D1*
X36287Y27291D1*
Y27253D1*
X36306Y27196D1*
X36364Y27157D1*
X36459Y27138D1*
X36555D1*
X36631Y27157D1*
X36670Y27196D1*
X36689Y27253D1*
Y27272D1*
X36670Y27329D1*
X36631Y27368D1*
X36574Y27387D1*
X36555D1*
X36497Y27368D1*
X36459Y27329D1*
X36440Y27272D1*
Y27253D1*
X36459Y27196D1*
X36497Y27157D1*
X36555Y27138D1*
X35815Y26340D2*
Y26512D1*
X35796Y26569D1*
X35777Y26589D1*
X35739Y26608D1*
X35700D1*
X35662Y26589D1*
X35643Y26569D1*
X35624Y26512D1*
Y26340D1*
X36026D1*
X35815Y26474D2*
X36026Y26608D1*
Y26923D2*
X35624D1*
X35892Y26731D1*
Y27018D1*
X36026Y27218D2*
X35624Y27410D1*
Y27142D1*
X36480Y30516D2*
X36652D1*
X36710Y30536D1*
X36729Y30555D1*
X36748Y30593D1*
Y30631D1*
X36729Y30669D1*
X36710Y30689D1*
X36652Y30708D1*
X36480D1*
Y30306D1*
X36614Y30516D2*
X36748Y30306D1*
X37063D2*
Y30707D1*
X36872Y30440D1*
X37159D1*
X37378Y30707D2*
X37321Y30688D1*
X37301Y30650D1*
Y30612D1*
X37321Y30574D1*
X37359Y30554D1*
X37435Y30535D1*
X37493Y30516D1*
X37531Y30478D1*
X37550Y30440D1*
Y30382D1*
X37531Y30344D1*
X37512Y30325D1*
X37454Y30306D1*
X37378D1*
X37321Y30325D1*
X37301Y30344D1*
X37282Y30382D1*
Y30440D1*
X37301Y30478D1*
X37340Y30516D1*
X37397Y30535D1*
X37473Y30554D1*
X37512Y30574D1*
X37531Y30612D1*
Y30650D1*
X37512Y30688D1*
X37454Y30707D1*
X37378D1*
X9791Y29297D2*
X9753Y29278D1*
X9714Y29240D1*
X9695Y29202D1*
Y29125D1*
X9714Y29087D1*
X9753Y29049D1*
X9791Y29029D1*
X9848Y29010D1*
X9944D1*
X10001Y29029D1*
X10039Y29049D1*
X10078Y29087D1*
X10097Y29125D1*
Y29202D1*
X10078Y29240D1*
X10039Y29278D1*
X10001Y29297D1*
X9772Y29421D2*
X9753Y29459D1*
X9695Y29516D1*
X10097D1*
Y29716D2*
X9695Y29908D1*
Y29640D1*
X8677Y33170D2*
X8639Y33151D1*
X8601Y33113D1*
X8582Y33075D1*
Y32998D1*
X8601Y32960D1*
X8639Y32922D1*
X8677Y32902D1*
X8735Y32883D1*
X8831D1*
X8888Y32902D1*
X8926Y32922D1*
X8964Y32960D1*
X8984Y32998D1*
Y33075D1*
X8964Y33113D1*
X8926Y33151D1*
X8888Y33170D1*
X8678Y33313D2*
X8659D1*
X8620Y33332D1*
X8601Y33351D1*
X8582Y33390D1*
Y33466D1*
X8601Y33504D1*
X8620Y33523D1*
X8659Y33543D1*
X8697D1*
X8735Y33523D1*
X8792Y33485D1*
X8984Y33294D1*
Y33562D1*
X8582Y33800D2*
X8601Y33743D1*
X8659Y33704D1*
X8754Y33685D1*
X8812D1*
X8907Y33704D1*
X8965Y33743D1*
X8984Y33800D1*
Y33838D1*
X8965Y33896D1*
X8907Y33934D1*
X8812Y33953D1*
X8754D1*
X8659Y33934D1*
X8601Y33896D1*
X8582Y33838D1*
Y33800D1*
X8659Y33934D2*
X8907Y33704D1*
X10938Y29738D2*
X10900Y29719D1*
X10861Y29680D1*
X10842Y29642D1*
Y29566D1*
X10861Y29527D1*
X10900Y29489D1*
X10938Y29470D1*
X10995Y29451D1*
X11091D1*
X11148Y29470D1*
X11187Y29489D1*
X11225Y29527D1*
X11244Y29566D1*
Y29642D1*
X11225Y29680D1*
X11187Y29719D1*
X11148Y29738D1*
X10843Y29900D2*
Y30110D1*
X10996Y29995D1*
Y30053D1*
X11015Y30091D1*
X11034Y30110D1*
X11091Y30129D1*
X11129D1*
X11187Y30110D1*
X11225Y30072D1*
X11244Y30014D1*
Y29957D1*
X11225Y29900D1*
X11206Y29881D1*
X11168Y29861D1*
X10976Y30502D2*
X11034Y30482D1*
X11072Y30444D1*
X11091Y30387D1*
Y30368D1*
X11072Y30310D1*
X11034Y30272D1*
X10976Y30253D1*
X10957D1*
X10900Y30272D1*
X10862Y30310D1*
X10843Y30368D1*
Y30387D1*
X10862Y30444D1*
X10900Y30482D1*
X10976Y30502D1*
X11072D1*
X11168Y30482D1*
X11225Y30444D1*
X11244Y30387D1*
Y30349D1*
X11225Y30291D1*
X11187Y30272D1*
X6703Y29735D2*
Y29429D1*
X6684Y29372D1*
X6665Y29353D1*
X6627Y29333D1*
X6588D1*
X6550Y29353D1*
X6531Y29372D1*
X6512Y29429D1*
Y29467D1*
X7018Y29333D2*
Y29735D1*
X6827Y29467D1*
X7114D1*
X8167Y32886D2*
Y33058D1*
X8147Y33115D1*
X8128Y33135D1*
X8090Y33154D1*
X8052D1*
X8014Y33135D1*
X7994Y33115D1*
X7975Y33058D1*
Y32886D1*
X8377D1*
X8167Y33020D2*
X8377Y33154D1*
X8052Y33277D2*
X8033Y33316D1*
X7976Y33373D1*
X8377D1*
X7976Y33612D2*
X7995Y33554D1*
X8052Y33516D1*
X8148Y33497D1*
X8205D1*
X8301Y33516D1*
X8358Y33554D1*
X8377Y33612D1*
Y33650D1*
X8358Y33707D1*
X8301Y33745D1*
X8205Y33765D1*
X8148D1*
X8052Y33745D1*
X7995Y33707D1*
X7976Y33650D1*
Y33612D1*
X8052Y33745D2*
X8301Y33516D1*
X9891Y32553D2*
Y32725D1*
X9871Y32783D1*
X9852Y32802D1*
X9814Y32821D1*
X9776D1*
X9738Y32802D1*
X9718Y32783D1*
X9699Y32725D1*
Y32553D1*
X10101D1*
X9891Y32687D2*
X10101Y32821D1*
X9776Y32945D2*
X9757Y32983D1*
X9700Y33041D1*
X10101D1*
X9776Y33164D2*
X9757Y33203D1*
X9700Y33260D1*
X10101D1*
X9326Y33187D2*
Y33359D1*
X9307Y33417D1*
X9288Y33436D1*
X9250Y33455D1*
X9211D1*
X9173Y33436D1*
X9154Y33417D1*
X9135Y33359D1*
Y33187D1*
X9537D1*
X9326Y33321D2*
X9537Y33455D1*
X9212Y33579D2*
X9192Y33617D1*
X9135Y33675D1*
X9537D1*
X9231Y33818D2*
X9212D1*
X9173Y33837D1*
X9154Y33856D1*
X9135Y33894D1*
Y33970D1*
X9154Y34009D1*
X9173Y34028D1*
X9212Y34047D1*
X9250D1*
X9288Y34028D1*
X9345Y33990D1*
X9537Y33798D1*
Y34066D1*
X10492Y32603D2*
Y32775D1*
X10472Y32833D1*
X10453Y32852D1*
X10415Y32871D1*
X10377D1*
X10339Y32852D1*
X10319Y32833D1*
X10300Y32775D1*
Y32603D1*
X10702D1*
X10492Y32737D2*
X10702Y32871D1*
X10301Y33033D2*
Y33243D1*
X10454Y33129D1*
Y33186D1*
X10473Y33224D1*
X10492Y33243D1*
X10549Y33263D1*
X10587D1*
X10645Y33243D1*
X10683Y33205D1*
X10702Y33148D1*
Y33090D1*
X10683Y33033D1*
X10664Y33014D1*
X10626Y32995D1*
X10434Y33635D2*
X10492Y33616D1*
X10530Y33578D1*
X10549Y33520D1*
Y33501D1*
X10530Y33444D1*
X10492Y33406D1*
X10434Y33386D1*
X10415D1*
X10358Y33406D1*
X10320Y33444D1*
X10301Y33501D1*
Y33520D1*
X10320Y33578D1*
X10358Y33616D1*
X10434Y33635D1*
X10530D1*
X10626Y33616D1*
X10683Y33578D1*
X10702Y33520D1*
Y33482D1*
X10683Y33425D1*
X10645Y33406D1*
X12927Y32227D2*
Y31940D1*
X12946Y31883D1*
X12985Y31845D1*
X13042Y31825D1*
X13080D1*
X13138Y31845D1*
X13176Y31883D1*
X13195Y31940D1*
Y32227D1*
X13319Y32150D2*
X13357Y32170D1*
X13415Y32227D1*
Y31825D1*
X13538Y32150D2*
X13577Y32170D1*
X13634Y32227D1*
Y31825D1*
X16609Y17393D2*
X16418D1*
X16399Y17221D1*
X16418Y17240D1*
X16476Y17260D1*
X16533D1*
X16590Y17240D1*
X16629Y17202D1*
X16648Y17145D1*
Y17107D1*
X16629Y17049D1*
X16590Y17011D1*
X16533Y16992D1*
X16476D1*
X16418Y17011D1*
X16399Y17030D1*
X16380Y17068D1*
X16790Y17030D2*
X16771Y17011D1*
X16790Y16992D1*
X16810Y17011D1*
X16790Y17030D1*
X17048Y17393D2*
X16991Y17374D1*
X16952Y17317D1*
X16933Y17221D1*
Y17164D1*
X16952Y17068D1*
X16991Y17011D1*
X17048Y16992D1*
X17086D1*
X17144Y17011D1*
X17182Y17068D1*
X17201Y17164D1*
Y17221D1*
X17182Y17317D1*
X17144Y17374D1*
X17086Y17393D1*
X17048D1*
X17182Y17317D2*
X16952Y17068D1*
X17325Y17394D2*
X17478Y16992D1*
X17631Y17394D1*
X18411Y17336D2*
X18373Y17375D1*
X18316Y17394D1*
X18239D1*
X18182Y17375D1*
X18143Y17336D1*
Y17298D1*
X18163Y17260D1*
X18182Y17241D1*
X18220Y17222D1*
X18335Y17183D1*
X18373Y17164D1*
X18392Y17145D1*
X18411Y17107D1*
Y17049D1*
X18373Y17011D1*
X18316Y16992D1*
X18239D1*
X18182Y17011D1*
X18143Y17049D1*
X18535Y17145D2*
X18764D1*
Y17183D1*
X18745Y17222D1*
X18726Y17241D1*
X18688Y17260D1*
X18630D1*
X18592Y17241D1*
X18554Y17202D1*
X18535Y17145D1*
Y17107D1*
X18554Y17049D1*
X18592Y17011D1*
X18630Y16992D1*
X18688D1*
X18726Y17011D1*
X18764Y17049D1*
X18888Y17394D2*
Y16992D1*
X13538Y15285D2*
Y15457D1*
X13519Y15514D1*
X13500Y15534D1*
X13462Y15553D1*
X13423D1*
X13385Y15534D1*
X13366Y15514D1*
X13347Y15457D1*
Y15285D1*
X13749D1*
X13538Y15419D2*
X13749Y15553D1*
X13347Y15925D2*
Y15676D1*
X13749D1*
Y15925D1*
X13538Y15676D2*
Y15829D1*
X13442Y16335D2*
X13404Y16316D1*
X13366Y16278D1*
X13347Y16240D1*
Y16163D1*
X13366Y16125D1*
X13404Y16087D1*
X13442Y16067D1*
X13500Y16048D1*
X13596D1*
X13653Y16067D1*
X13691Y16087D1*
X13729Y16125D1*
X13749Y16163D1*
Y16240D1*
X13729Y16278D1*
X13691Y16316D1*
X13653Y16335D1*
X13596D1*
Y16240D1*
X28775Y12040D2*
X28373Y11886D1*
X28775Y11733D1*
X28641Y11791D2*
Y11982D1*
X28373Y12163D2*
X28775Y12316D1*
X28373Y12469D1*
X28468Y12880D2*
X28430Y12861D1*
X28392Y12822D1*
X28373Y12784D1*
Y12708D1*
X28392Y12669D1*
X28430Y12631D1*
X28468Y12612D1*
X28526Y12593D1*
X28622D1*
X28679Y12612D1*
X28717Y12631D1*
X28755Y12669D1*
X28775Y12708D1*
Y12784D1*
X28755Y12822D1*
X28717Y12861D1*
X28679Y12880D1*
X28468Y13290D2*
X28430Y13271D1*
X28392Y13233D1*
X28373Y13195D1*
Y13118D1*
X28392Y13080D1*
X28430Y13042D1*
X28468Y13022D1*
X28526Y13003D1*
X28622D1*
X28679Y13022D1*
X28717Y13042D1*
X28755Y13080D1*
X28775Y13118D1*
Y13195D1*
X28755Y13233D1*
X28717Y13271D1*
X28679Y13290D1*
X28841Y13414D2*
Y13777D1*
X28564Y13901D2*
Y14073D1*
X28545Y14130D1*
X28526Y14149D1*
X28488Y14168D1*
X28449D1*
X28411Y14149D1*
X28392Y14130D1*
X28373Y14073D1*
Y13901D1*
X28775D1*
X28564Y14034D2*
X28775Y14168D1*
X27799Y12175D2*
X27397Y12022D1*
X27799Y11869D1*
X27665Y11926D2*
Y12118D1*
X27397Y12299D2*
X27799Y12452D1*
X27397Y12605D1*
X27493Y13015D2*
X27455Y12996D1*
X27416Y12958D1*
X27397Y12920D1*
Y12843D1*
X27416Y12805D1*
X27455Y12767D1*
X27493Y12747D1*
X27550Y12728D1*
X27646D1*
X27703Y12747D1*
X27742Y12767D1*
X27780Y12805D1*
X27799Y12843D1*
Y12920D1*
X27780Y12958D1*
X27742Y12996D1*
X27703Y13015D1*
X27493Y13426D2*
X27455Y13407D1*
X27416Y13368D1*
X27397Y13330D1*
Y13254D1*
X27416Y13215D1*
X27455Y13177D1*
X27493Y13158D1*
X27550Y13139D1*
X27646D1*
X27703Y13158D1*
X27742Y13177D1*
X27780Y13215D1*
X27799Y13254D1*
Y13330D1*
X27780Y13368D1*
X27742Y13407D1*
X27703Y13426D1*
X27865Y13549D2*
Y13913D1*
X27397Y14036D2*
X27799D1*
Y14266D1*
X25349Y7737D2*
X25330Y7775D1*
X25292Y7813D1*
X25254Y7832D1*
X25177D1*
X25139Y7813D1*
X25101Y7775D1*
X25081Y7737D1*
X25062Y7679D1*
Y7583D1*
X25081Y7526D1*
X25101Y7488D1*
X25139Y7450D1*
X25177Y7430D1*
X25254D1*
X25292Y7450D1*
X25330Y7488D1*
X25349Y7526D1*
Y7583D1*
X25254D1*
X25741Y7832D2*
Y7430D1*
X25473Y7832D1*
Y7430D1*
X25864Y7832D2*
Y7430D1*
X25998D1*
X26056Y7450D1*
X26094Y7488D1*
X26113Y7526D1*
X26132Y7583D1*
Y7679D1*
X26113Y7737D1*
X26094Y7775D1*
X26056Y7813D1*
X25998Y7832D1*
X25864D1*
X26256Y7631D2*
X26477D1*
X26600D2*
X26821D1*
X26945Y7803D2*
X27251Y7631D1*
X26945Y7459D1*
X42931Y7803D2*
X42625Y7631D1*
X42931Y7459D1*
X43054Y7631D2*
X43275D1*
X43399D2*
X43620D1*
X44031Y7737D2*
X44012Y7775D1*
X43973Y7813D1*
X43935Y7832D1*
X43859D1*
X43820Y7813D1*
X43782Y7775D1*
X43763Y7737D1*
X43744Y7679D1*
Y7583D1*
X43763Y7526D1*
X43782Y7488D1*
X43820Y7450D1*
X43859Y7430D1*
X43935D1*
X43973Y7450D1*
X44012Y7488D1*
X44031Y7526D1*
Y7583D1*
X43935D1*
X44422Y7832D2*
Y7430D1*
X44154Y7832D1*
Y7430D1*
X44546Y7832D2*
Y7430D1*
X44679D1*
X44737Y7450D1*
X44775Y7488D1*
X44794Y7526D1*
X44813Y7583D1*
Y7679D1*
X44794Y7737D1*
X44775Y7775D1*
X44737Y7813D1*
X44679Y7832D1*
X44546D1*
X30519Y7623D2*
X30740D1*
X30863D2*
X31084D1*
X31208D2*
X31429D1*
X37998Y4764D2*
Y4936D1*
X37978Y4993D1*
X37959Y5013D1*
X37921Y5032D1*
X37883D1*
X37845Y5013D1*
X37825Y4993D1*
X37806Y4936D1*
Y4764D1*
X38208D1*
X37998Y4898D2*
X38208Y5032D1*
X37806Y5404D2*
Y5155D1*
X38208D1*
Y5404D1*
X37998Y5155D2*
Y5308D1*
X37864Y5795D2*
X37825Y5757D1*
X37806Y5700D1*
Y5623D1*
X37825Y5566D1*
X37864Y5527D1*
X37902D1*
X37940Y5547D1*
X37959Y5566D1*
X37978Y5604D1*
X38017Y5719D1*
X38036Y5757D1*
X38055Y5776D1*
X38093Y5795D1*
X38151D1*
X38189Y5757D1*
X38208Y5700D1*
Y5623D1*
X38189Y5566D1*
X38151Y5527D1*
X37806Y6167D2*
Y5919D1*
X38208D1*
Y6167D1*
X37998Y5919D2*
Y6072D1*
X37806Y6425D2*
X38208D1*
X37806Y6291D2*
Y6559D1*
Y6682D2*
X38208D1*
Y6855D1*
X38189Y6912D1*
X38170Y6931D1*
X38132Y6950D1*
X38074D1*
X38036Y6931D1*
X38017Y6912D1*
X37998Y6855D1*
X37978Y6912D1*
X37959Y6931D1*
X37921Y6950D1*
X37883D1*
X37845Y6931D1*
X37825Y6912D1*
X37806Y6855D1*
Y6682D1*
X37998D2*
Y6855D1*
X31901Y5051D2*
X31863Y5032D1*
X31825Y4993D1*
X31806Y4955D1*
Y4879D1*
X31825Y4840D1*
X31863Y4802D1*
X31901Y4783D1*
X31959Y4764D1*
X32055D1*
X32112Y4783D1*
X32150Y4802D1*
X32188Y4840D1*
X32208Y4879D1*
Y4955D1*
X32188Y4993D1*
X32150Y5032D1*
X32112Y5051D1*
X32055D1*
Y4955D1*
X32016Y5174D2*
Y5347D1*
X31997Y5404D1*
X31978Y5423D1*
X31940Y5442D1*
X31882D1*
X31844Y5423D1*
X31825Y5404D1*
X31806Y5347D1*
Y5174D1*
X32208D1*
X31806Y5566D2*
X32208D1*
X31806Y5804D2*
X31825Y5766D1*
X31863Y5728D1*
X31901Y5708D1*
X31959Y5689D1*
X32055D1*
X32112Y5708D1*
X32150Y5728D1*
X32188Y5766D1*
X32208Y5804D1*
Y5881D1*
X32188Y5919D1*
X32150Y5957D1*
X32112Y5976D1*
X32055Y5995D1*
X31959D1*
X31901Y5976D1*
X31863Y5957D1*
X31825Y5919D1*
X31806Y5881D1*
Y5804D1*
X31902Y6138D2*
X31883D1*
X31844Y6157D1*
X31825Y6176D1*
X31806Y6215D1*
Y6291D1*
X31825Y6329D1*
X31844Y6348D1*
X31883Y6368D1*
X31921D1*
X31959Y6348D1*
X32016Y6310D1*
X32208Y6119D1*
Y6387D1*
X32901Y5051D2*
X32863Y5032D1*
X32825Y4993D1*
X32806Y4955D1*
Y4879D1*
X32825Y4840D1*
X32863Y4802D1*
X32901Y4783D1*
X32959Y4764D1*
X33055D1*
X33112Y4783D1*
X33150Y4802D1*
X33188Y4840D1*
X33208Y4879D1*
Y4955D1*
X33188Y4993D1*
X33150Y5032D1*
X33112Y5051D1*
X33055D1*
Y4955D1*
X33016Y5174D2*
Y5347D1*
X32997Y5404D1*
X32978Y5423D1*
X32940Y5442D1*
X32882D1*
X32844Y5423D1*
X32825Y5404D1*
X32806Y5347D1*
Y5174D1*
X33208D1*
X32806Y5566D2*
X33208D1*
X32806Y5804D2*
X32825Y5766D1*
X32863Y5728D1*
X32901Y5708D1*
X32959Y5689D1*
X33055D1*
X33112Y5708D1*
X33150Y5728D1*
X33188Y5766D1*
X33208Y5804D1*
Y5881D1*
X33188Y5919D1*
X33150Y5957D1*
X33112Y5976D1*
X33055Y5995D1*
X32959D1*
X32901Y5976D1*
X32863Y5957D1*
X32825Y5919D1*
X32806Y5881D1*
Y5804D1*
X32883Y6119D2*
X32863Y6157D1*
X32806Y6215D1*
X33208D1*
X33806Y4764D2*
X34208D1*
Y4898D1*
X34188Y4955D1*
X34150Y4994D1*
X34112Y5013D1*
X34055Y5032D1*
X33959D1*
X33901Y5013D1*
X33863Y4994D1*
X33825Y4955D1*
X33806Y4898D1*
Y4764D1*
X34208Y5462D2*
X33806Y5308D1*
X34208Y5155D1*
X34074Y5213D2*
Y5404D1*
X33806Y5719D2*
X34208D1*
X33806Y5585D2*
Y5853D1*
X34208Y6283D2*
X33806Y6130D1*
X34208Y5977D1*
X34074Y6034D2*
Y6226D1*
X33902Y6426D2*
X33883D1*
X33844Y6445D1*
X33825Y6464D1*
X33806Y6503D1*
Y6579D1*
X33825Y6617D1*
X33844Y6636D1*
X33883Y6656D1*
X33921D1*
X33959Y6636D1*
X34016Y6598D1*
X34208Y6407D1*
Y6675D1*
X35806Y4764D2*
X36208D1*
Y4898D1*
X36188Y4955D1*
X36150Y4994D1*
X36112Y5013D1*
X36055Y5032D1*
X35959D1*
X35901Y5013D1*
X35863Y4994D1*
X35825Y4955D1*
X35806Y4898D1*
Y4764D1*
X35901Y5442D2*
X35863Y5423D1*
X35825Y5385D1*
X35806Y5347D1*
Y5270D1*
X35825Y5232D1*
X35863Y5194D1*
X35901Y5174D1*
X35959Y5155D1*
X36055D1*
X36112Y5174D1*
X36150Y5194D1*
X36188Y5232D1*
X36208Y5270D1*
Y5347D1*
X36188Y5385D1*
X36150Y5423D1*
X36112Y5442D1*
X35806Y5566D2*
X36208D1*
Y5795D1*
X35806Y5919D2*
X36208D1*
X35806Y6187D2*
X36074Y5919D1*
X35978Y6014D2*
X36208Y6187D1*
X34806Y4764D2*
X35208D1*
Y4898D1*
X35188Y4955D1*
X35150Y4994D1*
X35112Y5013D1*
X35055Y5032D1*
X34959D1*
X34901Y5013D1*
X34863Y4994D1*
X34825Y4955D1*
X34806Y4898D1*
Y4764D1*
X35208Y5462D2*
X34806Y5308D1*
X35208Y5155D1*
X35074Y5213D2*
Y5404D1*
X34806Y5719D2*
X35208D1*
X34806Y5585D2*
Y5853D1*
X35208Y6283D2*
X34806Y6130D1*
X35208Y5977D1*
X35074Y6034D2*
Y6226D1*
X34883Y6407D2*
X34863Y6445D1*
X34806Y6503D1*
X35208D1*
X39675Y5032D2*
X39637Y4994D1*
X39618Y4936D1*
Y4860D1*
X39637Y4802D1*
X39675Y4764D1*
X39714D1*
X39752Y4783D1*
X39771Y4802D1*
X39790Y4840D1*
X39828Y4955D1*
X39847Y4994D1*
X39867Y5013D1*
X39905Y5032D1*
X39962D1*
X40000Y4994D1*
X40020Y4936D1*
Y4860D1*
X40000Y4802D1*
X39962Y4764D1*
X39714Y5442D2*
X39675Y5423D1*
X39637Y5385D1*
X39618Y5347D1*
Y5270D1*
X39637Y5232D1*
X39675Y5194D1*
X39714Y5174D1*
X39771Y5155D1*
X39867D1*
X39924Y5174D1*
X39962Y5194D1*
X40000Y5232D1*
X40020Y5270D1*
Y5347D1*
X40000Y5385D1*
X39962Y5423D1*
X39924Y5442D1*
X39618Y5566D2*
X40020D1*
Y5795D1*
X40675Y5032D2*
X40637Y4994D1*
X40618Y4936D1*
Y4860D1*
X40637Y4802D1*
X40675Y4764D1*
X40714D1*
X40752Y4783D1*
X40771Y4802D1*
X40790Y4840D1*
X40828Y4955D1*
X40847Y4994D1*
X40867Y5013D1*
X40905Y5032D1*
X40962D1*
X41000Y4994D1*
X41020Y4936D1*
Y4860D1*
X41000Y4802D1*
X40962Y4764D1*
X40618Y5155D2*
X41020D1*
Y5289D1*
X41000Y5347D1*
X40962Y5385D1*
X40924Y5404D1*
X40867Y5423D1*
X40771D1*
X40714Y5404D1*
X40675Y5385D1*
X40637Y5347D1*
X40618Y5289D1*
Y5155D1*
X41020Y5853D2*
X40618Y5700D1*
X41020Y5547D1*
X40886Y5604D2*
Y5796D1*
X42020Y5070D2*
X41618Y4917D1*
X42020Y4764D1*
X41886Y4821D2*
Y5013D1*
X41618Y5194D2*
X42020D1*
Y5328D1*
X42000Y5385D1*
X41962Y5424D1*
X41924Y5443D1*
X41867Y5462D1*
X41771D1*
X41714Y5443D1*
X41675Y5424D1*
X41637Y5385D1*
X41618Y5328D1*
Y5194D1*
Y5585D2*
X42020D1*
Y5719D1*
X42000Y5777D1*
X41962Y5815D1*
X41924Y5834D1*
X41867Y5853D1*
X41771D1*
X41714Y5834D1*
X41675Y5815D1*
X41637Y5777D1*
X41618Y5719D1*
Y5585D1*
X41809Y5977D2*
Y6149D1*
X41790Y6206D1*
X41771Y6226D1*
X41733Y6245D1*
X41695D1*
X41656Y6226D1*
X41637Y6206D1*
X41618Y6149D1*
Y5977D1*
X42020D1*
X41809Y6111D2*
X42020Y6245D1*
X27680Y4764D2*
X28082Y4917D1*
X27680Y5070D1*
Y5193D2*
X27967D1*
X28025Y5212D1*
X28063Y5251D1*
X28082Y5308D1*
Y5346D1*
X28063Y5404D1*
X28025Y5442D1*
X27967Y5461D1*
X27680D1*
X27738Y5853D2*
X27699Y5815D1*
X27680Y5757D1*
Y5681D1*
X27699Y5623D1*
X27738Y5585D1*
X27776D1*
X27814Y5604D1*
X27833Y5623D1*
X27852Y5661D1*
X27891Y5776D1*
X27910Y5815D1*
X27929Y5834D1*
X27967Y5853D1*
X28025D1*
X28063Y5815D1*
X28082Y5757D1*
Y5681D1*
X28063Y5623D1*
X28025Y5585D1*
X27680Y5976D2*
X28082D1*
Y6149D1*
X28063Y6206D1*
X28044Y6225D1*
X28006Y6244D1*
X27948D1*
X27910Y6225D1*
X27891Y6206D1*
X27872Y6149D1*
X27852Y6206D1*
X27833Y6225D1*
X27795Y6244D1*
X27757D1*
X27719Y6225D1*
X27699Y6206D1*
X27680Y6149D1*
Y5976D1*
X27872D2*
Y6149D1*
X28743Y4764D2*
X29145Y4917D1*
X28743Y5070D1*
X28838Y5480D2*
X28800Y5461D1*
X28762Y5423D1*
X28743Y5385D1*
Y5308D1*
X28762Y5270D1*
X28800Y5232D1*
X28838Y5212D1*
X28896Y5193D1*
X28992D1*
X29049Y5212D1*
X29087Y5232D1*
X29125Y5270D1*
X29145Y5308D1*
Y5385D1*
X29125Y5423D1*
X29087Y5461D1*
X29049Y5480D1*
X28838Y5891D2*
X28800Y5872D1*
X28762Y5833D1*
X28743Y5795D1*
Y5719D1*
X28762Y5680D1*
X28800Y5642D1*
X28838Y5623D1*
X28896Y5604D1*
X28992D1*
X29049Y5623D1*
X29087Y5642D1*
X29125Y5680D1*
X29145Y5719D1*
Y5795D1*
X29125Y5833D1*
X29087Y5872D1*
X29049Y5891D1*
X29145Y6321D2*
X28743Y6167D1*
X29145Y6014D1*
X29011Y6072D2*
Y6263D1*
X38688Y7631D2*
X38910D1*
X39033D2*
X39254D1*
X36863Y5032D2*
X36825Y4994D1*
X36806Y4936D1*
Y4860D1*
X36825Y4802D1*
X36863Y4764D1*
X36901D1*
X36940Y4783D1*
X36959Y4802D1*
X36978Y4840D1*
X37016Y4955D1*
X37035Y4994D1*
X37055Y5013D1*
X37093Y5032D1*
X37150D1*
X37188Y4994D1*
X37208Y4936D1*
Y4860D1*
X37188Y4802D1*
X37150Y4764D1*
X37016Y5155D2*
Y5328D1*
X36997Y5385D1*
X36978Y5404D1*
X36940Y5423D1*
X36882D1*
X36844Y5404D1*
X36825Y5385D1*
X36806Y5328D1*
Y5155D1*
X37208D1*
X36806Y5547D2*
X37208D1*
Y5681D1*
X37188Y5738D1*
X37150Y5777D1*
X37112Y5796D1*
X37055Y5815D1*
X36959D1*
X36901Y5796D1*
X36863Y5777D1*
X36825Y5738D1*
X36806Y5681D1*
Y5547D1*
Y5938D2*
X37208D1*
X36806Y6311D2*
Y6062D1*
X37208D1*
X36997D2*
Y6215D1*
X51503Y22897D2*
D125*
X51446Y22840D1*
X51417Y22754D1*
Y22639D1*
X51446Y22553D1*
X51503Y22495D1*
X51560D1*
X51618Y22525D1*
X51647Y22553D1*
X51675Y22610D1*
X51733Y22783D1*
X51761Y22840D1*
X51791Y22869D1*
X51848Y22897D1*
X51934D1*
X51991Y22840D1*
X52020Y22754D1*
Y22639D1*
X51991Y22553D1*
X51934Y22495D1*
X51618Y23427D2*
X52020D1*
X51704D2*
X51647Y23370D1*
X51618Y23312D1*
Y23227D1*
X51647Y23169D1*
X51704Y23112D1*
X51791Y23083D1*
X51848D1*
X51934Y23112D1*
X51991Y23169D1*
X52020Y23227D1*
Y23312D1*
X51991Y23370D1*
X51934Y23427D1*
X51417Y23612D2*
X52020D1*
X51704D2*
X51647Y23670D1*
X51618Y23727D1*
Y23813D1*
X51647Y23870D1*
X51704Y23928D1*
X51791Y23956D1*
X51848D1*
X51934Y23928D1*
X51991Y23870D1*
X52020Y23813D1*
Y23727D1*
X51991Y23670D1*
X51934Y23612D1*
X51618Y24142D2*
X52020D1*
X51791D2*
X51704Y24171D1*
X51647Y24228D1*
X51618Y24286D1*
Y24372D1*
X51791Y24557D2*
Y24901D1*
X51733D1*
X51675Y24873D1*
X51647Y24844D1*
X51618Y24786D1*
Y24700D1*
X51647Y24643D1*
X51704Y24586D1*
X51791Y24557D1*
X51848D1*
X51934Y24586D1*
X51991Y24643D1*
X52020Y24700D1*
Y24786D1*
X51991Y24844D1*
X51934Y24901D1*
X51719Y25087D2*
Y25418D1*
X51561Y25633D2*
X51533D1*
X51475Y25661D1*
X51446Y25690D1*
X51418Y25747D1*
Y25862D1*
X51446Y25919D1*
X51475Y25948D1*
X51533Y25977D1*
X51590D1*
X51647Y25948D1*
X51733Y25891D1*
X52020Y25603D1*
Y26005D1*
Y26650D2*
X51417D1*
X52020Y26420D1*
X51417Y26191D1*
X52020D1*
X51417Y27418D2*
X52020D1*
Y27619D1*
X51991Y27705D1*
X51934Y27763D1*
X51876Y27791D1*
X51791Y27820D1*
X51647D1*
X51560Y27791D1*
X51503Y27763D1*
X51446Y27705D1*
X51417Y27619D1*
Y27418D1*
Y28379D2*
Y28005D1*
X52020D1*
X51704D2*
Y28235D1*
X51417Y28937D2*
Y28564D1*
X52020D1*
X51704D2*
Y28793D1*
Y29706D2*
Y29964D1*
X51675Y30050D1*
X51647Y30079D1*
X51590Y30108D1*
X51532D1*
X51475Y30079D1*
X51446Y30050D1*
X51417Y29964D1*
Y29706D1*
X52020D1*
X51704Y29907D2*
X52020Y30108D1*
X51417Y30666D2*
Y30293D1*
X52020D1*
Y30666D1*
X51704Y30293D2*
Y30522D1*
X51417Y31224D2*
Y30851D1*
X52020D1*
X51704D2*
Y31080D1*
X51418Y31467D2*
Y31782D1*
X51647Y31611D1*
Y31697D1*
X51676Y31754D1*
X51704Y31782D1*
X51791Y31812D1*
X51848D1*
X51934Y31782D1*
X51991Y31725D1*
X52020Y31639D1*
Y31553D1*
X51991Y31467D1*
X51962Y31439D1*
X51905Y31410D1*
X52962Y22483D2*
Y22741D1*
X52933Y22827D1*
X52905Y22856D1*
X52848Y22885D1*
X52790D1*
X52733Y22856D1*
X52704Y22827D1*
X52675Y22741D1*
Y22483D1*
X53278D1*
X52962Y22684D2*
X53278Y22885D1*
X53049Y23070D2*
Y23414D1*
X52991D1*
X52933Y23386D1*
X52905Y23357D1*
X52876Y23299D1*
Y23213D1*
X52905Y23156D1*
X52962Y23099D1*
X53049Y23070D1*
X53106D1*
X53192Y23099D1*
X53249Y23156D1*
X53278Y23213D1*
Y23299D1*
X53249Y23357D1*
X53192Y23414D1*
X52675Y23829D2*
Y23772D1*
X52704Y23714D1*
X52790Y23686D1*
X53278D1*
X52876Y23600D2*
Y23800D1*
X53049Y24014D2*
Y24358D1*
X52991D1*
X52933Y24330D1*
X52905Y24301D1*
X52876Y24244D1*
Y24158D1*
X52905Y24100D1*
X52962Y24043D1*
X53049Y24014D1*
X53106D1*
X53192Y24043D1*
X53249Y24100D1*
X53278Y24158D1*
Y24244D1*
X53249Y24301D1*
X53192Y24358D1*
X52876Y24544D2*
X53278D1*
X53049D2*
X52962Y24573D1*
X52905Y24630D1*
X52876Y24688D1*
Y24774D1*
X53049Y24959D2*
Y25303D1*
X52991D1*
X52933Y25275D1*
X52905Y25246D1*
X52876Y25189D1*
Y25102D1*
X52905Y25045D1*
X52962Y24988D1*
X53049Y24959D1*
X53106D1*
X53192Y24988D1*
X53249Y25045D1*
X53278Y25102D1*
Y25189D1*
X53249Y25246D1*
X53192Y25303D1*
X52876Y25489D2*
X53278D1*
X52991D2*
X52905Y25575D1*
X52876Y25633D1*
Y25718D1*
X52905Y25776D1*
X52991Y25804D1*
X53278D1*
X52962Y26335D2*
X52905Y26277D1*
X52876Y26219D1*
Y26134D1*
X52905Y26076D1*
X52962Y26019D1*
X53049Y25990D1*
X53106D1*
X53192Y26019D1*
X53249Y26076D1*
X53278Y26134D1*
Y26219D1*
X53249Y26277D1*
X53192Y26335D1*
X53049Y26520D2*
Y26864D1*
X52991D1*
X52933Y26835D1*
X52905Y26807D1*
X52876Y26749D1*
Y26663D1*
X52905Y26606D1*
X52962Y26548D1*
X53049Y26520D1*
X53106D1*
X53192Y26548D1*
X53249Y26606D1*
X53278Y26663D1*
Y26749D1*
X53249Y26807D1*
X53192Y26864D1*
X52675Y27632D2*
X53278D1*
Y27891D1*
X53249Y27977D1*
X53220Y28006D1*
X53163Y28034D1*
X53077D1*
X53019Y28006D1*
X52991Y27977D1*
X52962Y27891D1*
X52933Y27977D1*
X52905Y28006D1*
X52848Y28034D1*
X52790D1*
X52733Y28006D1*
X52704Y27977D1*
X52675Y27891D1*
Y27632D1*
X52962D2*
Y27891D1*
X52876Y28363D2*
X52905Y28306D1*
X52962Y28248D1*
X53049Y28220D1*
X53106D1*
X53192Y28248D1*
X53249Y28306D1*
X53278Y28363D1*
Y28449D1*
X53249Y28507D1*
X53192Y28564D1*
X53106Y28593D1*
X53049D1*
X52962Y28564D1*
X52905Y28507D1*
X52876Y28449D1*
Y28363D1*
Y29123D2*
X53278D1*
X52962D2*
X52905Y29066D1*
X52876Y29008D1*
Y28922D1*
X52905Y28865D1*
X52962Y28808D1*
X53049Y28778D1*
X53106D1*
X53192Y28808D1*
X53249Y28865D1*
X53278Y28922D1*
Y29008D1*
X53249Y29066D1*
X53192Y29123D1*
X52876Y29308D2*
X53278D1*
X53049D2*
X52962Y29337D1*
X52905Y29394D1*
X52876Y29452D1*
Y29538D1*
X52675Y30067D2*
X53278D1*
X52962D2*
X52905Y30010D1*
X52876Y29953D1*
Y29867D1*
X52905Y29809D1*
X52962Y29752D1*
X53049Y29723D1*
X53106D1*
X53192Y29752D1*
X53249Y29809D1*
X53278Y29867D1*
Y29953D1*
X53249Y30010D1*
X53192Y30067D1*
X52962Y30836D2*
Y31094D1*
X52933Y31180D1*
X52905Y31209D1*
X52848Y31238D1*
X52790D1*
X52733Y31209D1*
X52704Y31180D1*
X52675Y31094D1*
Y30836D1*
X53278D1*
X52962Y31037D2*
X53278Y31238D1*
X53049Y31423D2*
Y31767D1*
X52991D1*
X52933Y31739D1*
X52905Y31710D1*
X52876Y31653D1*
Y31566D1*
X52905Y31509D1*
X52962Y31452D1*
X53049Y31423D1*
X53106D1*
X53192Y31452D1*
X53249Y31509D1*
X53278Y31566D1*
Y31653D1*
X53249Y31710D1*
X53192Y31767D1*
X52876Y31953D2*
X53278Y32125D1*
X52876Y32297D1*
X52676Y33123D2*
Y33438D1*
X52905Y33266D1*
Y33353D1*
X52934Y33410D1*
X52962Y33438D1*
X53049Y33467D1*
X53106D1*
X53192Y33438D1*
X53250Y33381D1*
X53278Y33295D1*
Y33209D1*
X53250Y33123D1*
X53220Y33095D1*
X53163Y33065D1*
X50328Y22875D2*
Y22502D1*
X50931D1*
Y22875D1*
X50615Y22502D2*
Y22731D1*
X50414Y23462D2*
X50357Y23405D1*
X50328Y23319D1*
Y23204D1*
X50357Y23118D1*
X50414Y23060D1*
X50471D1*
X50529Y23089D1*
X50558Y23118D1*
X50586Y23175D1*
X50644Y23347D1*
X50672Y23405D1*
X50701Y23433D1*
X50759Y23462D1*
X50845D1*
X50902Y23405D1*
X50931Y23319D1*
Y23204D1*
X50902Y23118D1*
X50845Y23060D1*
X50414Y24049D2*
X50357Y23992D1*
X50328Y23906D1*
Y23791D1*
X50357Y23705D1*
X50414Y23647D1*
X50471D1*
X50529Y23676D1*
X50558Y23705D1*
X50586Y23762D1*
X50644Y23934D1*
X50672Y23992D1*
X50701Y24020D1*
X50759Y24049D1*
X50845D1*
X50902Y23992D1*
X50931Y23906D1*
Y23791D1*
X50902Y23705D1*
X50845Y23647D1*
X50328Y25018D2*
X50931D1*
X50328Y24817D2*
Y25219D1*
X50701Y25405D2*
Y25749D1*
X50644D1*
X50586Y25720D1*
X50558Y25692D1*
X50529Y25634D1*
Y25548D1*
X50558Y25491D1*
X50615Y25433D1*
X50701Y25405D1*
X50759D1*
X50845Y25433D1*
X50902Y25491D1*
X50931Y25548D1*
Y25634D1*
X50902Y25692D1*
X50845Y25749D1*
X50615Y26279D2*
X50558Y26221D1*
X50529Y26164D1*
Y26078D1*
X50558Y26020D1*
X50615Y25963D1*
X50701Y25934D1*
X50759D1*
X50845Y25963D1*
X50902Y26020D1*
X50931Y26078D1*
Y26164D1*
X50902Y26221D1*
X50845Y26279D1*
X50328Y26464D2*
X50931D1*
X50644D2*
X50558Y26550D1*
X50529Y26608D1*
Y26694D1*
X50558Y26751D1*
X50644Y26780D1*
X50931D1*
X50472Y27578D2*
X50443D1*
X50386Y27606D1*
X50357Y27635D1*
X50329Y27692D1*
Y27807D1*
X50357Y27864D1*
X50386Y27893D1*
X50443Y27922D1*
X50501D1*
X50558Y27893D1*
X50644Y27836D1*
X50931Y27548D1*
Y27950D1*
X50329Y28308D2*
X50357Y28222D1*
X50443Y28164D1*
X50587Y28136D1*
X50673D1*
X50816Y28164D1*
X50902Y28222D1*
X50931Y28308D1*
Y28365D1*
X50902Y28451D1*
X50816Y28508D1*
X50673Y28538D1*
X50587D1*
X50443Y28508D1*
X50357Y28451D1*
X50329Y28365D1*
Y28308D1*
X50443Y28508D2*
X50816Y28164D1*
X50443Y28723D2*
X50414Y28781D1*
X50329Y28867D1*
X50931D1*
X50329Y29110D2*
Y29425D1*
X50558Y29253D1*
Y29339D1*
X50587Y29396D1*
X50615Y29425D1*
X50701Y29454D1*
X50759D1*
X50845Y29425D1*
X50902Y29368D1*
X50931Y29282D1*
Y29195D1*
X50902Y29110D1*
X50873Y29081D1*
X50816Y29052D1*
X44879Y18731D2*
X45481Y19133D1*
X44879D2*
X45481Y18731D1*
X44879Y19318D2*
X45481D1*
X44864Y15172D2*
X45467Y15574D1*
X44864D2*
X45467Y15172D1*
X44864Y15932D2*
X44892Y15874D1*
X44950Y15817D1*
X45007Y15788D1*
X45093Y15759D1*
X45237D1*
X45323Y15788D1*
X45381Y15817D1*
X45438Y15874D1*
X45467Y15932D1*
Y16046D1*
X45438Y16103D1*
X45381Y16161D1*
X45323Y16190D1*
X45237Y16218D1*
X45093D1*
X45007Y16190D1*
X44950Y16161D1*
X44892Y16103D1*
X44864Y16046D1*
Y15932D1*
X9161Y22757D2*
X9764Y22986D1*
X9161Y23216D1*
X9247Y23803D2*
X9189Y23746D1*
X9161Y23660D1*
Y23545D1*
X9189Y23459D1*
X9247Y23401D1*
X9304D1*
X9362Y23430D1*
X9390Y23459D1*
X9419Y23516D1*
X9477Y23688D1*
X9505Y23746D1*
X9534Y23775D1*
X9591Y23803D1*
X9678D1*
X9735Y23746D1*
X9764Y23660D1*
Y23545D1*
X9735Y23459D1*
X9678Y23401D1*
X9204Y24246D2*
X9721D1*
X9463Y23988D2*
Y24505D1*
X9045Y15071D2*
X8988Y15042D1*
X8930Y14984D1*
X8902Y14927D1*
Y14813D1*
X8930Y14755D1*
X8988Y14698D1*
X9045Y14669D1*
X9131Y14640D1*
X9275D1*
X9361Y14669D1*
X9418Y14698D1*
X9475Y14755D1*
X9505Y14813D1*
Y14927D1*
X9475Y14984D1*
X9418Y15042D1*
X9361Y15071D1*
X9275D1*
Y14927D1*
X8902Y15658D2*
X9505D1*
X8902Y15256D1*
X9505D1*
X8902Y15843D2*
X9505D1*
Y16044D1*
X9475Y16130D1*
X9418Y16188D1*
X9361Y16217D1*
X9275Y16245D1*
X9131D1*
X9045Y16217D1*
X8988Y16188D1*
X8930Y16130D1*
X8902Y16044D1*
Y15843D1*
X9068Y7285D2*
X9671Y7515D1*
X9068Y7744D1*
X9155Y8331D2*
X9097Y8274D1*
X9068Y8188D1*
Y8073D1*
X9097Y7987D1*
X9155Y7930D1*
X9212D1*
X9269Y7959D1*
X9298Y7987D1*
X9326Y8044D1*
X9384Y8217D1*
X9413Y8274D1*
X9442Y8303D1*
X9499Y8331D1*
X9585D1*
X9642Y8274D1*
X9671Y8188D1*
Y8073D1*
X9642Y7987D1*
X9585Y7930D1*
X9370Y8517D2*
Y8848D1*
X22304Y29106D2*
X22907D1*
Y29450D1*
X22304Y30008D2*
Y29635D1*
X22907D1*
Y30008D1*
X22591Y29635D2*
Y29865D1*
X22304Y30567D2*
Y30193D1*
X22907D1*
X22591D2*
Y30423D1*
X22304Y30953D2*
X22907D1*
X22304Y30752D2*
Y31154D1*
X47444Y29106D2*
Y29364D1*
X47415Y29450D1*
X47386Y29479D1*
X47329Y29508D1*
X47271D1*
X47214Y29479D1*
X47185Y29450D1*
X47157Y29364D1*
Y29106D1*
X47760D1*
X47444Y29307D2*
X47760Y29508D1*
X47157Y29693D2*
X47760D1*
X47300Y30309D2*
X47243Y30280D1*
X47185Y30222D1*
X47157Y30165D1*
Y30051D1*
X47185Y29993D1*
X47243Y29936D1*
X47300Y29907D1*
X47386Y29878D1*
X47530D1*
X47616Y29907D1*
X47673Y29936D1*
X47730Y29993D1*
X47760Y30051D1*
Y30165D1*
X47730Y30222D1*
X47673Y30280D1*
X47616Y30309D1*
X47530D1*
Y30165D1*
X47157Y30494D2*
X47760D1*
X47157Y30896D2*
X47760D1*
X47444Y30494D2*
Y30896D1*
X47157Y31282D2*
X47760D1*
X47157Y31081D2*
Y31483D1*
X14127Y25097D2*
X14442D1*
X14270Y24868D1*
X14357D1*
X14414Y24839D1*
X14442Y24811D1*
X14471Y24725D1*
Y24668D1*
X14442Y24581D1*
X14385Y24524D1*
X14299Y24495D1*
X14213D1*
X14127Y24524D1*
X14099Y24553D1*
X14069Y24610D1*
X14685Y24553D2*
X14657Y24524D1*
X14685Y24495D1*
X14714Y24524D1*
X14685Y24553D1*
X14957Y25097D2*
X15272D1*
X15100Y24868D1*
X15187D1*
X15244Y24839D1*
X15272Y24811D1*
X15301Y24725D1*
Y24668D1*
X15272Y24581D1*
X15215Y24524D1*
X15129Y24495D1*
X15043D1*
X14957Y24524D1*
X14929Y24553D1*
X14899Y24610D1*
X16070Y24495D2*
X16472Y25097D1*
X17240Y24983D2*
X17298Y25012D1*
X17384Y25097D1*
Y24495D1*
X17598Y24553D2*
X17569Y24524D1*
X17598Y24495D1*
X17627Y24524D1*
X17598Y24553D1*
X17956Y25097D2*
X17870Y25069D1*
X17841Y25012D1*
Y24954D1*
X17870Y24897D1*
X17927Y24868D1*
X18042Y24839D1*
X18128Y24811D1*
X18185Y24753D1*
X18214Y24696D1*
Y24610D1*
X18185Y24553D1*
X18157Y24524D1*
X18070Y24495D1*
X17956D1*
X17870Y24524D1*
X17841Y24553D1*
X17812Y24610D1*
Y24696D1*
X17841Y24753D1*
X17899Y24811D1*
X17984Y24839D1*
X18099Y24868D1*
X18157Y24897D1*
X18185Y24954D1*
Y25012D1*
X18157Y25069D1*
X18070Y25097D1*
X17956D1*
X15535Y15285D2*
D124*
X15822D1*
X15879Y15304D1*
X15917Y15342D1*
X15937Y15400D1*
Y15438D1*
X15917Y15495D1*
X15879Y15534D1*
X15822Y15553D1*
X15535D1*
X15592Y15944D2*
X15554Y15906D1*
X15535Y15849D1*
Y15772D1*
X15554Y15715D1*
X15592Y15676D1*
X15630D1*
X15669Y15696D1*
X15688Y15715D1*
X15707Y15753D1*
X15745Y15868D1*
X15764Y15906D1*
X15784Y15925D1*
X15822Y15944D1*
X15879D1*
X15917Y15906D1*
X15937Y15849D1*
Y15772D1*
X15917Y15715D1*
X15879Y15676D1*
X15535Y16068D2*
X15937D1*
Y16240D1*
X15917Y16298D1*
X15898Y16317D1*
X15860Y16336D1*
X15803D1*
X15764Y16317D1*
X15745Y16298D1*
X15726Y16240D1*
X15707Y16298D1*
X15688Y16317D1*
X15650Y16336D1*
X15611D1*
X15573Y16317D1*
X15554Y16298D1*
X15535Y16240D1*
Y16068D1*
X15726D2*
Y16240D1*
X15250Y18394D2*
X15403Y17992D1*
X15556Y18394D1*
X15909D2*
X15718D1*
X15699Y18222D1*
X15718Y18241D1*
X15776Y18260D1*
X15833D1*
X15890Y18241D1*
X15929Y18203D1*
X15948Y18145D1*
Y18107D1*
X15929Y18050D1*
X15890Y18012D1*
X15833Y17992D1*
X15776D1*
X15718Y18012D1*
X15699Y18031D1*
X15680Y18069D1*
X16090Y18031D2*
X16071Y18012D1*
X16090Y17992D1*
X16110Y18012D1*
X16090Y18031D1*
X16348Y18394D2*
X16291Y18375D1*
X16252Y18317D1*
X16233Y18222D1*
Y18164D1*
X16252Y18069D1*
X16291Y18012D1*
X16348Y17992D1*
X16386D1*
X16444Y18012D1*
X16482Y18069D1*
X16501Y18164D1*
Y18222D1*
X16482Y18317D1*
X16444Y18375D1*
X16386Y18394D1*
X16348D1*
X16482Y18317D2*
X16252Y18069D1*
X14672Y19303D2*
Y18959D1*
X14500Y19131D2*
X14845D1*
X26560Y16021D2*
X26905D1*
X26733Y15849D2*
Y16194D1*
X13438Y19131D2*
X13659D1*
X26732Y14787D2*
Y15008D1*
X47050Y17033D2*
D125*
X46993Y17005D1*
X46935Y16947D1*
X46906Y16890D1*
Y16775D1*
X46935Y16717D1*
X46993Y16660D1*
X47050Y16631D1*
X47136Y16603D1*
X47280D1*
X47365Y16631D1*
X47423Y16660D1*
X47480Y16717D1*
X47509Y16775D1*
Y16890D1*
X47480Y16947D1*
X47423Y17005D1*
X47365Y17033D1*
X47280D1*
Y16890D1*
X46906Y17620D2*
X47509D1*
X46906Y17218D1*
X47509D1*
X46906Y17806D2*
X47509D1*
Y18007D1*
X47480Y18093D1*
X47423Y18150D1*
X47365Y18179D1*
X47280Y18208D1*
X47136D1*
X47050Y18179D1*
X46993Y18150D1*
X46935Y18093D1*
X46906Y18007D1*
Y17806D1*
X294Y29284D2*
D59*
X199Y29380D1*
X55Y29428D1*
X-136D1*
X-280Y29380D1*
X-376Y29284D1*
Y29189D1*
X-327Y29093D1*
X-280Y29045D1*
X-185Y28998D1*
X103Y28902D1*
X199Y28854D1*
X246Y28805D1*
X294Y28710D1*
Y28567D1*
X199Y28472D1*
X55Y28423D1*
X-136D1*
X-280Y28472D1*
X-376Y28567D1*
X603Y28902D2*
X1034D1*
X1176Y28949D1*
X1225Y28998D1*
X1273Y29093D1*
Y29236D1*
X1225Y29332D1*
X1176Y29380D1*
X1034Y29428D1*
X603D1*
Y28423D1*
X1581Y29428D2*
Y28423D1*
X1916D1*
X2060Y28472D1*
X2156Y28567D1*
X2204Y28663D1*
X2251Y28805D1*
Y29045D1*
X2204Y29189D1*
X2156Y29284D1*
X2060Y29380D1*
X1916Y29428D1*
X1581D1*
X2560D2*
Y28423D1*
X3491Y29428D2*
X2869D1*
Y28423D1*
Y28949D2*
X3251D1*
X2312Y27740D2*
Y26735D1*
X3290Y27740D2*
Y26735D1*
X2621Y27740D1*
Y26735D1*
X29627Y38491D2*
X30297Y37486D1*
Y38491D2*
X29627Y37486D1*
X30606Y38491D2*
Y37486D1*
X31180D1*
X31488Y38013D2*
X31918D1*
X32062Y38061D1*
X32111Y38109D1*
X32158Y38204D1*
Y38300D1*
X32111Y38395D1*
X32062Y38444D1*
X31918Y38491D1*
X31488D1*
Y37486D1*
X31823Y38013D2*
X32158Y37486D1*
X33439Y38491D2*
Y37486D1*
X33774D1*
X33918Y37535D1*
X34014Y37630D1*
X34061Y37726D1*
X34109Y37869D1*
Y38109D1*
X34061Y38252D1*
X34014Y38347D1*
X33918Y38444D1*
X33774Y38491D1*
X33439D1*
X34418D2*
Y37486D1*
X35349Y38491D2*
X34726D1*
Y37486D1*
Y38013D2*
X35109D1*
X36280Y38491D2*
X35658D1*
Y37486D1*
Y38013D2*
X36040D1*
X37848Y38491D2*
X37752Y38444D1*
X37657Y38347D1*
X37608Y38252D1*
X37561Y38109D1*
Y37869D1*
X37608Y37726D1*
X37657Y37630D1*
X37752Y37535D1*
X37848Y37486D1*
X38039D1*
X38134Y37535D1*
X38231Y37630D1*
X38278Y37726D1*
X38326Y37869D1*
Y38109D1*
X38278Y38252D1*
X38231Y38347D1*
X38134Y38444D1*
X38039Y38491D1*
X37848D1*
X38634D2*
Y37774D1*
X38682Y37630D1*
X38778Y37535D1*
X38922Y37486D1*
X39017D1*
X39161Y37535D1*
X39257Y37630D1*
X39304Y37774D1*
Y38491D1*
X39948D2*
Y37486D1*
X39613Y38491D2*
X40283D1*
X19983Y40785D2*
X19888Y40881D1*
X19745Y40929D1*
X19553D1*
X19410Y40881D1*
X19314Y40785D1*
Y40690D1*
X19362Y40594D1*
X19410Y40546D1*
X19505Y40499D1*
X19792Y40403D1*
X19888Y40355D1*
X19936Y40307D1*
X19983Y40212D1*
Y40068D1*
X19888Y39973D1*
X19745Y39924D1*
X19553D1*
X19410Y39973D1*
X19314Y40068D1*
X20914Y40929D2*
X20292D1*
Y39924D1*
X20914D1*
X20292Y40450D2*
X20675D1*
X22482Y40929D2*
X22386Y40881D1*
X22290Y40785D1*
X22242Y40690D1*
X22194Y40546D1*
Y40307D1*
X22242Y40164D1*
X22290Y40068D1*
X22386Y39973D1*
X22482Y39924D1*
X22673D1*
X22768Y39973D1*
X22864Y40068D1*
X22912Y40164D1*
X22959Y40307D1*
Y40546D1*
X22912Y40690D1*
X22864Y40785D1*
X22768Y40881D1*
X22673Y40929D1*
X22482D1*
X23268D2*
Y40212D1*
X23316Y40068D1*
X23412Y39973D1*
X23555Y39924D1*
X23650D1*
X23794Y39973D1*
X23890Y40068D1*
X23938Y40212D1*
Y40929D1*
X24582D2*
Y39924D1*
X24247Y40929D2*
X24917D1*
X26197D2*
Y39924D1*
X26771D1*
X44049Y40723D2*
X43953Y40819D1*
X43810Y40866D1*
X43619D1*
X43475Y40819D1*
X43379Y40723D1*
Y40628D1*
X43427Y40531D1*
X43475Y40484D1*
X43570Y40436D1*
X43857Y40340D1*
X43953Y40293D1*
X44001Y40244D1*
X44049Y40149D1*
Y40005D1*
X43953Y39910D1*
X43810Y39862D1*
X43619D1*
X43475Y39910D1*
X43379Y40005D1*
X44979Y40866D2*
X44357D1*
Y39862D1*
X44979D1*
X44357Y40388D2*
X44740D1*
X46547Y40866D2*
X46451Y40819D1*
X46356Y40723D1*
X46307Y40628D1*
X46259Y40484D1*
Y40244D1*
X46307Y40102D1*
X46356Y40005D1*
X46451Y39910D1*
X46547Y39862D1*
X46738D1*
X46833Y39910D1*
X46929Y40005D1*
X46977Y40102D1*
X47024Y40244D1*
Y40484D1*
X46977Y40628D1*
X46929Y40723D1*
X46833Y40819D1*
X46738Y40866D1*
X46547D1*
X47333D2*
Y40149D1*
X47381Y40005D1*
X47477Y39910D1*
X47620Y39862D1*
X47716D1*
X47859Y39910D1*
X47955Y40005D1*
X48003Y40149D1*
Y40866D1*
X48647D2*
Y39862D1*
X48312Y40866D2*
X48982D1*
X50262Y40388D2*
X50692D1*
X50836Y40436D1*
X50885Y40484D1*
X50932Y40579D1*
Y40675D1*
X50885Y40770D1*
X50836Y40819D1*
X50692Y40866D1*
X50262D1*
Y39862D1*
X50597Y40388D2*
X50932Y39862D1*
X21501Y2862D2*
Y2145D1*
X21549Y2001D1*
X21645Y1906D1*
X21789Y1858D1*
X21884D1*
X22028Y1906D1*
X22124Y2001D1*
X22171Y2145D1*
Y2862D1*
X23150Y2719D2*
X23055Y2815D1*
X22911Y2862D1*
X22720D1*
X22576Y2815D1*
X22480Y2719D1*
Y2624D1*
X22529Y2528D1*
X22576Y2480D1*
X22671Y2432D1*
X22959Y2336D1*
X23055Y2289D1*
X23102Y2240D1*
X23150Y2145D1*
Y2001D1*
X23055Y1906D1*
X22911Y1858D1*
X22720D1*
X22576Y1906D1*
X22480Y2001D1*
X23459Y2862D2*
Y1858D1*
X23890D1*
X24033Y1906D1*
X24081Y1954D1*
X24129Y2049D1*
Y2193D1*
X24081Y2289D1*
X24033Y2336D1*
X23890Y2384D1*
X24033Y2432D1*
X24081Y2480D1*
X24129Y2575D1*
Y2671D1*
X24081Y2766D1*
X24033Y2815D1*
X23890Y2862D1*
X23459D1*
Y2384D2*
X23890D1*
X24437Y2359D2*
X24990D1*
X25299Y2862D2*
Y1858D1*
X25730D1*
X25874Y1906D1*
X25921Y1954D1*
X25969Y2049D1*
Y2193D1*
X25921Y2289D1*
X25874Y2336D1*
X25730Y2384D1*
X25874Y2432D1*
X25921Y2480D1*
X25969Y2575D1*
Y2671D1*
X25921Y2766D1*
X25874Y2815D1*
X25730Y2862D1*
X25299D1*
Y2384D2*
X25730D1*
X29807Y4760D2*
D124*
X30209D1*
Y4894D1*
X30190Y4951D1*
X30151Y4989D1*
X30113Y5008D1*
X30056Y5027D1*
X29960D1*
X29903Y5008D1*
X29865Y4989D1*
X29826Y4951D1*
X29807Y4894D1*
Y4760D1*
Y5151D2*
X30209Y5304D1*
X29807Y5457D1*
Y5580D2*
X30209D1*
Y5714D1*
X30190Y5772D1*
X30151Y5810D1*
X30113Y5829D1*
X30056Y5848D1*
X29960D1*
X29903Y5829D1*
X29865Y5810D1*
X29826Y5772D1*
X29807Y5714D1*
Y5580D1*
Y5972D2*
X30209D1*
Y6106D1*
X30190Y6163D1*
X30151Y6202D1*
X30113Y6221D1*
X30056Y6240D1*
X29960D1*
X29903Y6221D1*
X29865Y6202D1*
X29826Y6163D1*
X29807Y6106D1*
Y5972D1*
X25131Y13406D2*
X24883D1*
Y13004D1*
X25131D1*
X24883Y13215D2*
X25036D1*
X25503Y13406D2*
X25255D1*
Y13004D1*
X25503D1*
X25255Y13215D2*
X25408D1*
X25627Y13196D2*
X25799D1*
X25856Y13215D1*
X25876Y13234D1*
X25895Y13272D1*
Y13330D1*
X25876Y13368D1*
X25856Y13387D1*
X25799Y13406D1*
X25627D1*
Y13004D1*
X26305Y13311D2*
X26286Y13349D1*
X26248Y13387D1*
X26210Y13406D1*
X26133D1*
X26095Y13387D1*
X26057Y13349D1*
X26037Y13311D1*
X26018Y13253D1*
Y13157D1*
X26037Y13100D1*
X26057Y13062D1*
X26095Y13024D1*
X26133Y13004D1*
X26210D1*
X26248Y13024D1*
X26286Y13062D1*
X26305Y13100D1*
Y13157D1*
X26210D1*
X26735Y13004D2*
Y13406D1*
X26582Y13004D1*
X26429Y13406D1*
Y13004D1*
X11138Y12022D2*
X11100Y12003D1*
X11061Y11964D1*
X11042Y11926D1*
Y11850D1*
X11061Y11811D1*
X11100Y11773D1*
X11138Y11754D1*
X11195Y11735D1*
X11291D1*
X11348Y11754D1*
X11387Y11773D1*
X11425Y11811D1*
X11444Y11850D1*
Y11926D1*
X11425Y11964D1*
X11387Y12003D1*
X11348Y12022D1*
X11042Y12145D2*
X11234Y12298D1*
X11444D1*
X11042Y12451D2*
X11234Y12298D1*
Y12575D2*
Y12747D1*
X11214Y12804D1*
X11195Y12824D1*
X11157Y12843D1*
X11119D1*
X11081Y12824D1*
X11061Y12804D1*
X11042Y12747D1*
Y12575D1*
X11444D1*
X11234Y12709D2*
X11444Y12843D1*
X11100Y13234D2*
X11061Y13196D1*
X11042Y13139D1*
Y13062D1*
X11061Y13005D1*
X11100Y12966D1*
X11138D1*
X11176Y12986D1*
X11195Y13005D1*
X11214Y13043D1*
X11253Y13158D1*
X11272Y13196D1*
X11291Y13215D1*
X11329Y13234D1*
X11387D1*
X11425Y13196D1*
X11444Y13139D1*
Y13062D1*
X11425Y13005D1*
X11387Y12966D1*
X11042Y13492D2*
X11444D1*
X11042Y13358D2*
Y13626D1*
Y13749D2*
X11444D1*
X11234D2*
X11195Y13788D1*
X11176Y13826D1*
Y13883D1*
X11195Y13921D1*
X11234Y13960D1*
X11291Y13979D1*
X11329D1*
X11387Y13960D1*
X11425Y13921D1*
X11444Y13883D1*
Y13826D1*
X11425Y13788D1*
X11387Y13749D1*
X15296Y19525D2*
Y19123D1*
X15430D1*
X15487Y19143D1*
X15525Y19181D1*
X15544Y19219D1*
X15563Y19276D1*
Y19372D1*
X15544Y19430D1*
X15525Y19468D1*
X15487Y19506D1*
X15430Y19525D1*
X15296D1*
X15687D2*
X15840Y19123D1*
X15993Y19525D1*
X16403Y19430D2*
X16384Y19468D1*
X16346Y19506D1*
X16308Y19525D1*
X16231D1*
X16193Y19506D1*
X16155Y19468D1*
X16135Y19430D1*
X16116Y19372D1*
Y19276D1*
X16135Y19219D1*
X16155Y19181D1*
X16193Y19143D1*
X16231Y19123D1*
X16308D1*
X16346Y19143D1*
X16384Y19181D1*
X16403Y19219D1*
X16814Y19430D2*
X16795Y19468D1*
X16756Y19506D1*
X16718Y19525D1*
X16642D1*
X16603Y19506D1*
X16565Y19468D1*
X16546Y19430D1*
X16527Y19372D1*
Y19276D1*
X16546Y19219D1*
X16565Y19181D1*
X16603Y19143D1*
X16642Y19123D1*
X16718D1*
X16756Y19143D1*
X16795Y19181D1*
X16814Y19219D1*
M02*
